STARTFONT 2.3
FONT -FontForge-Rajdhani-Book-R-Normal--16-160-72-72-P-98-ISO10646-1
SIZE 16 72 72  2
FONTBOUNDINGBOX 40 19 -7 -5
COMMENT "Generated by fontforge, http://fontforge.sourceforge.net"
COMMENT "Copyright (c) 2014 Indian Type Foundry (info@indiantypefoundry.com)"
STARTPROPERTIES 41
FOUNDRY "FontForge"
FAMILY_NAME "Rajdhani"
WEIGHT_NAME "Book"
SLANT "R"
SETWIDTH_NAME "Normal"
ADD_STYLE_NAME ""
PIXEL_SIZE 16
POINT_SIZE 160
RESOLUTION_X 72
RESOLUTION_Y 72
SPACING "P"
AVERAGE_WIDTH 98
CHARSET_REGISTRY "ISO10646"
CHARSET_ENCODING "1"
FONTNAME_REGISTRY ""
CHARSET_COLLECTIONS "ISO8859-2 ISO8859-9 ISO8859-4 ISO10646-1"
BITS_PER_PIXEL 2
FONT_NAME "Rajdhani-Regular"
FACE_NAME "Rajdhani Regular"
COPYRIGHT "Copyright (c) 2014 Indian Type Foundry (info@indiantypefoundry.com)"
FONT_VERSION "1.201;PS 1.0;hotconv 1.0.78;makeotf.lib2.5.61930; ttfautohint (v1.1) -l 7 -r 28 -G 50 -x 13 -D latn -f deva -w G"
FONT_ASCENT 13
FONT_DESCENT 3
UNDERLINE_POSITION -2
UNDERLINE_THICKNESS 1
X_HEIGHT 7
CAP_HEIGHT 9
DEFAULT_CHAR 3
RAW_ASCENT 800
RAW_DESCENT 200
NORM_SPACE 4
RELATIVE_WEIGHT 40
RELATIVE_SETWIDTH 50
SUPERSCRIPT_X 0
SUPERSCRIPT_Y 5
SUPERSCRIPT_SIZE 9
SUBSCRIPT_X 0
SUBSCRIPT_Y 1
SUBSCRIPT_SIZE 9
AVG_LOWERCASE_WIDTH 71
AVG_UPPERCASE_WIDTH 84
ENDPROPERTIES
CHARS 1043
STARTCHAR NULL.dup1
ENCODING 0
SWIDTH 0 0
DWIDTH 0 0
BBX 1 1 0 0
BITMAP
00
ENDCHAR
STARTCHAR CR
ENCODING 13
SWIDTH 0 0
DWIDTH 0 0
BBX 1 1 0 0
BITMAP
00
ENDCHAR
STARTCHAR space
ENCODING 32
SWIDTH 267 0
DWIDTH 4 0
BBX 1 1 0 0
BITMAP
00
ENDCHAR
STARTCHAR exclam
ENCODING 33
SWIDTH 237 0
DWIDTH 4 0
BBX 2 10 1 0
BITMAP
90
90
90
90
90
50
50
00
90
90
ENDCHAR
STARTCHAR quotedbl
ENCODING 34
SWIDTH 330 0
DWIDTH 5 0
BBX 4 3 1 7
BITMAP
89
85
44
ENDCHAR
STARTCHAR numbersign
ENCODING 35
SWIDTH 677 0
DWIDTH 11 0
BBX 9 10 1 0
BITMAP
020200
020200
2BAE80
050800
080800
081800
081400
BABA00
202000
205000
ENDCHAR
STARTCHAR dollar
ENCODING 36
SWIDTH 504 0
DWIDTH 8 0
BBX 6 14 1 -2
BITMAP
0100
0200
6A90
8020
8010
8000
6A90
0060
0020
8020
8020
6A90
0200
0100
ENDCHAR
STARTCHAR percent
ENCODING 37
SWIDTH 717 0
DWIDTH 11 0
BBX 11 10 0 0
BITMAP
2A4200
208200
508500
208800
1A5400
0022A0
005508
008508
018508
0202A4
ENDCHAR
STARTCHAR ampersand
ENCODING 38
SWIDTH 597 0
DWIDTH 10 0
BBX 8 10 1 0
BITMAP
1A90
2030
2020
2400
6C00
97A9
8180
8060
8034
2A99
ENDCHAR
STARTCHAR quotesingle
ENCODING 39
SWIDTH 186 0
DWIDTH 3 0
BBX 1 3 1 7
BITMAP
80
80
40
ENDCHAR
STARTCHAR parenleft
ENCODING 40
SWIDTH 283 0
DWIDTH 5 0
BBX 3 12 1 -2
BITMAP
64
80
80
80
80
80
80
80
80
80
80
64
ENDCHAR
STARTCHAR parenright
ENCODING 41
SWIDTH 283 0
DWIDTH 5 0
BBX 3 12 1 -2
BITMAP
A0
24
14
14
14
14
14
14
14
14
24
90
ENDCHAR
STARTCHAR asterisk
ENCODING 42
SWIDTH 406 0
DWIDTH 7 0
BBX 5 4 1 6
BITMAP
0800
9640
1400
2600
ENDCHAR
STARTCHAR plus
ENCODING 43
SWIDTH 523 0
DWIDTH 8 0
BBX 6 6 1 2
BITMAP
0600
0600
ABA0
0600
0600
0200
ENDCHAR
STARTCHAR comma
ENCODING 44
SWIDTH 191 0
DWIDTH 3 0
BBX 1 4 1 -2
BITMAP
C0
C0
80
40
ENDCHAR
STARTCHAR hyphen
ENCODING 45
SWIDTH 312 0
DWIDTH 5 0
BBX 5 1 0 5
BITMAP
6A40
ENDCHAR
STARTCHAR period
ENCODING 46
SWIDTH 191 0
DWIDTH 3 0
BBX 1 2 1 0
BITMAP
C0
C0
ENDCHAR
STARTCHAR slash
ENCODING 47
SWIDTH 396 0
DWIDTH 6 0
BBX 5 10 1 0
BITMAP
0240
0200
0600
0800
0800
1400
2000
2000
9000
8000
ENDCHAR
STARTCHAR zero
ENCODING 48
SWIDTH 514 0
DWIDTH 8 0
BBX 6 10 1 0
BITMAP
6A90
8020
8020
8020
8020
8020
8020
8020
8020
6A90
ENDCHAR
STARTCHAR one
ENCODING 49
SWIDTH 317 0
DWIDTH 5 0
BBX 4 10 0 0
BITMAP
1A
66
02
02
02
02
02
02
02
02
ENDCHAR
STARTCHAR two
ENCODING 50
SWIDTH 478 0
DWIDTH 8 0
BBX 6 10 1 0
BITMAP
6A80
C060
8020
0060
0180
0600
2400
9000
C000
EAA0
ENDCHAR
STARTCHAR three
ENCODING 51
SWIDTH 496 0
DWIDTH 8 0
BBX 6 10 1 0
BITMAP
6A90
8020
4020
0020
06C0
0060
4020
8020
8020
6A80
ENDCHAR
STARTCHAR four
ENCODING 52
SWIDTH 520 0
DWIDTH 8 0
BBX 8 10 0 0
BITMAP
0034
00A4
0154
0214
0914
1814
2014
6ABE
0014
0014
ENDCHAR
STARTCHAR five
ENCODING 53
SWIDTH 482 0
DWIDTH 8 0
BBX 6 10 1 0
BITMAP
EA90
8000
8000
AA80
8060
0020
0020
8020
8060
6A80
ENDCHAR
STARTCHAR six
ENCODING 54
SWIDTH 497 0
DWIDTH 8 0
BBX 6 10 1 0
BITMAP
6A90
C000
8000
8000
EA80
8060
8020
8020
C020
6A90
ENDCHAR
STARTCHAR seven
ENCODING 55
SWIDTH 380 0
DWIDTH 6 0
BBX 6 10 0 0
BITMAP
AAA0
0050
0080
0180
0240
0200
0600
0800
0800
1400
ENDCHAR
STARTCHAR eight
ENCODING 56
SWIDTH 519 0
DWIDTH 8 0
BBX 7 10 1 0
BITMAP
6A90
8020
8024
8020
7AD0
9020
8024
8024
8020
6A90
ENDCHAR
STARTCHAR nine
ENCODING 57
SWIDTH 497 0
DWIDTH 8 0
BBX 6 10 1 0
BITMAP
6A90
C020
8020
8020
C020
6AB0
0020
0020
0020
6A90
ENDCHAR
STARTCHAR colon
ENCODING 58
SWIDTH 191 0
DWIDTH 3 0
BBX 1 8 1 0
BITMAP
C0
C0
00
00
00
00
C0
C0
ENDCHAR
STARTCHAR semicolon
ENCODING 59
SWIDTH 191 0
DWIDTH 3 0
BBX 1 9 1 -1
BITMAP
C0
C0
00
00
00
40
C0
80
80
ENDCHAR
STARTCHAR less
ENCODING 60
SWIDTH 513 0
DWIDTH 8 0
BBX 6 6 1 2
BITMAP
0060
0A40
A400
6800
0690
0010
ENDCHAR
STARTCHAR equal
ENCODING 61
SWIDTH 531 0
DWIDTH 9 0
BBX 7 4 1 3
BITMAP
AAA4
0000
0000
AAA4
ENDCHAR
STARTCHAR greater
ENCODING 62
SWIDTH 531 0
DWIDTH 9 0
BBX 7 6 1 2
BITMAP
9000
1A40
0064
01A0
6900
4000
ENDCHAR
STARTCHAR question
ENCODING 63
SWIDTH 473 0
DWIDTH 8 0
BBX 6 10 1 0
BITMAP
6A80
8090
8050
0090
0240
0500
0500
0000
0900
0900
ENDCHAR
STARTCHAR at
ENCODING 64
SWIDTH 753 0
DWIDTH 12 0
BBX 10 11 1 -1
BITMAP
06AA80
240050
500020
81A920
860520
850520
850520
860960
51A680
240000
06A900
ENDCHAR
STARTCHAR A
ENCODING 65
SWIDTH 533 0
DWIDTH 9 0
BBX 8 10 0 0
BITMAP
01C0
0290
0220
0520
0814
0808
1AAC
2005
2002
5002
ENDCHAR
STARTCHAR B
ENCODING 66
SWIDTH 546 0
DWIDTH 9 0
BBX 7 10 1 0
BITMAP
AAA0
8014
8014
8024
AAE0
8024
8018
8018
8014
AAA0
ENDCHAR
STARTCHAR C
ENCODING 67
SWIDTH 542 0
DWIDTH 9 0
BBX 7 10 1 0
BITMAP
2AA0
9018
8008
8000
8000
8000
8000
8008
9018
2AA0
ENDCHAR
STARTCHAR D
ENCODING 68
SWIDTH 557 0
DWIDTH 9 0
BBX 7 10 1 0
BITMAP
AAA0
8018
8008
8008
8008
8008
8008
8008
8018
AAA0
ENDCHAR
STARTCHAR E
ENCODING 69
SWIDTH 481 0
DWIDTH 8 0
BBX 6 10 1 0
BITMAP
AA90
8000
8000
8000
AA80
8000
8000
8000
8000
AA90
ENDCHAR
STARTCHAR F
ENCODING 70
SWIDTH 459 0
DWIDTH 7 0
BBX 6 10 1 0
BITMAP
AA90
8000
8000
8000
8000
AA80
8000
8000
8000
8000
ENDCHAR
STARTCHAR G
ENCODING 71
SWIDTH 539 0
DWIDTH 9 0
BBX 7 10 1 0
BITMAP
2AA0
9024
8014
8000
8000
81A4
8014
8014
9024
2AA0
ENDCHAR
STARTCHAR H
ENCODING 72
SWIDTH 570 0
DWIDTH 9 0
BBX 7 10 1 0
BITMAP
8008
8008
8008
8008
AAA8
8008
8008
8008
8008
8008
ENDCHAR
STARTCHAR I
ENCODING 73
SWIDTH 230 0
DWIDTH 4 0
BBX 2 10 1 0
BITMAP
90
90
90
90
90
90
90
90
90
90
ENDCHAR
STARTCHAR J
ENCODING 74
SWIDTH 499 0
DWIDTH 8 0
BBX 7 10 0 0
BITMAP
0008
0008
0008
0008
0008
0008
5008
5008
6018
2AA0
ENDCHAR
STARTCHAR K
ENCODING 75
SWIDTH 530 0
DWIDTH 8 0
BBX 7 10 1 0
BITMAP
8024
8060
8180
8200
9900
A600
A180
8050
8020
8008
ENDCHAR
STARTCHAR L
ENCODING 76
SWIDTH 451 0
DWIDTH 7 0
BBX 6 10 1 0
BITMAP
8000
8000
8000
8000
8000
8000
8000
8000
8000
AAA0
ENDCHAR
STARTCHAR M
ENCODING 77
SWIDTH 696 0
DWIDTH 11 0
BBX 9 10 1 0
BITMAP
A00280
A00280
980580
880880
851480
822080
81A080
808080
800080
800080
ENDCHAR
STARTCHAR N
ENCODING 78
SWIDTH 579 0
DWIDTH 9 0
BBX 7 10 1 0
BITMAP
9008
B008
9808
8908
8208
8148
8088
8068
802C
800C
ENDCHAR
STARTCHAR O
ENCODING 79
SWIDTH 553 0
DWIDTH 9 0
BBX 7 10 1 0
BITMAP
2AA0
9018
8008
8008
8008
8008
8008
8008
9018
2AA0
ENDCHAR
STARTCHAR P
ENCODING 80
SWIDTH 524 0
DWIDTH 8 0
BBX 7 10 1 0
BITMAP
AAA0
8024
8014
8014
8024
AAA0
8000
8000
8000
8000
ENDCHAR
STARTCHAR Q
ENCODING 81
SWIDTH 556 0
DWIDTH 9 0
BBX 7 12 1 -2
BITMAP
2AA0
9018
8008
8008
8008
8008
8008
8008
9018
2AA0
0080
0060
ENDCHAR
STARTCHAR R
ENCODING 82
SWIDTH 534 0
DWIDTH 9 0
BBX 7 10 1 0
BITMAP
AAA0
8024
8014
8014
8024
AAD0
8080
8060
8020
8014
ENDCHAR
STARTCHAR S
ENCODING 83
SWIDTH 562 0
DWIDTH 9 0
BBX 7 10 1 0
BITMAP
2AA0
9018
8008
9000
2900
01A0
0018
8008
9018
2AA0
ENDCHAR
STARTCHAR T
ENCODING 84
SWIDTH 420 0
DWIDTH 7 0
BBX 7 10 0 0
BITMAP
ABA4
0200
0200
0200
0200
0200
0200
0200
0200
0200
ENDCHAR
STARTCHAR U
ENCODING 85
SWIDTH 552 0
DWIDTH 9 0
BBX 7 10 1 0
BITMAP
8018
8018
8018
8018
8018
8018
8018
8018
9014
2AA0
ENDCHAR
STARTCHAR V
ENCODING 86
SWIDTH 500 0
DWIDTH 8 0
BBX 8 10 0 0
BITMAP
5005
2008
2008
2418
1824
0820
0960
0690
0280
0280
ENDCHAR
STARTCHAR W
ENCODING 87
SWIDTH 794 0
DWIDTH 13 0
BBX 12 10 0 0
BITMAP
501C02
602903
302506
202205
245209
188148
088088
098098
0A40A4
070070
ENDCHAR
STARTCHAR X
ENCODING 88
SWIDTH 504 0
DWIDTH 8 0
BBX 8 10 0 0
BITMAP
2009
1418
0820
0690
0280
0280
0960
0824
2408
6009
ENDCHAR
STARTCHAR Y
ENCODING 89
SWIDTH 493 0
DWIDTH 8 0
BBX 8 10 0 0
BITMAP
5009
2008
1824
0820
0690
0280
0140
0140
0140
0140
ENDCHAR
STARTCHAR Z
ENCODING 90
SWIDTH 482 0
DWIDTH 8 0
BBX 7 10 0 0
BITMAP
2AAC
0024
0020
0090
0180
0200
0900
1800
2000
7AA8
ENDCHAR
STARTCHAR bracketleft
ENCODING 91
SWIDTH 287 0
DWIDTH 5 0
BBX 3 12 1 -2
BITMAP
E4
80
80
80
80
80
80
80
80
80
80
A4
ENDCHAR
STARTCHAR backslash
ENCODING 92
SWIDTH 396 0
DWIDTH 6 0
BBX 5 10 1 0
BITMAP
8000
9000
2000
2000
1400
0800
0800
0600
0200
0240
ENDCHAR
STARTCHAR bracketright
ENCODING 93
SWIDTH 287 0
DWIDTH 5 0
BBX 3 12 1 -2
BITMAP
A4
14
14
14
14
14
14
14
14
14
14
A4
ENDCHAR
STARTCHAR asciicircum
ENCODING 94
SWIDTH 465 0
DWIDTH 7 0
BBX 6 5 1 5
BITMAP
0A00
2600
2180
8080
4010
ENDCHAR
STARTCHAR underscore
ENCODING 95
SWIDTH 372 0
DWIDTH 6 0
BBX 6 1 0 -2
BITMAP
AAA0
ENDCHAR
STARTCHAR grave
ENCODING 96
SWIDTH 269 0
DWIDTH 4 0
BBX 2 2 1 9
BITMAP
90
20
ENDCHAR
STARTCHAR a
ENCODING 97
SWIDTH 502 0
DWIDTH 8 0
BBX 6 8 1 0
BITMAP
6AA0
8020
8020
8020
8020
8020
8060
6AA0
ENDCHAR
STARTCHAR b
ENCODING 98
SWIDTH 504 0
DWIDTH 8 0
BBX 6 11 1 0
BITMAP
8000
8000
8000
AA90
9020
8020
8020
8020
8020
8020
AA90
ENDCHAR
STARTCHAR c
ENCODING 99
SWIDTH 394 0
DWIDTH 6 0
BBX 5 8 1 0
BITMAP
6A80
8000
8000
8000
8000
8000
8000
6A80
ENDCHAR
STARTCHAR d
ENCODING 100
SWIDTH 504 0
DWIDTH 8 0
BBX 6 11 1 0
BITMAP
0020
0020
0020
6AA0
8070
8020
8020
8020
8020
8070
6AA0
ENDCHAR
STARTCHAR e
ENCODING 101
SWIDTH 492 0
DWIDTH 8 0
BBX 6 8 1 0
BITMAP
6A80
8020
8020
8020
EAA0
8000
8000
6AA0
ENDCHAR
STARTCHAR f
ENCODING 102
SWIDTH 303 0
DWIDTH 5 0
BBX 5 11 0 0
BITMAP
0640
0C00
0800
6E40
0800
0800
0800
0800
0800
0800
0800
ENDCHAR
STARTCHAR g
ENCODING 103
SWIDTH 506 0
DWIDTH 8 0
BBX 6 10 1 -2
BITMAP
6AB0
8020
8020
8020
8020
9070
2A60
0020
0060
6A90
ENDCHAR
STARTCHAR h
ENCODING 104
SWIDTH 507 0
DWIDTH 8 0
BBX 6 11 1 0
BITMAP
8000
8000
8000
9A90
9020
8020
8020
8020
8020
8020
8020
ENDCHAR
STARTCHAR i
ENCODING 105
SWIDTH 210 0
DWIDTH 3 0
BBX 1 11 1 0
BITMAP
80
80
00
80
80
80
80
80
80
80
80
ENDCHAR
STARTCHAR j
ENCODING 106
SWIDTH 210 0
DWIDTH 3 0
BBX 3 13 -1 -2
BITMAP
08
08
00
08
08
08
08
08
08
08
08
0C
A4
ENDCHAR
STARTCHAR k
ENCODING 107
SWIDTH 431 0
DWIDTH 7 0
BBX 6 11 1 0
BITMAP
8000
8000
8000
8090
8180
8200
8900
8900
8200
8180
8050
ENDCHAR
STARTCHAR l
ENCODING 108
SWIDTH 210 0
DWIDTH 3 0
BBX 1 11 1 0
BITMAP
80
80
80
80
80
80
80
80
80
80
80
ENDCHAR
STARTCHAR m
ENCODING 109
SWIDTH 769 0
DWIDTH 12 0
BBX 11 8 1 0
BITMAP
9A9A90
906020
806024
806024
806024
806024
806024
806024
ENDCHAR
STARTCHAR n
ENCODING 110
SWIDTH 507 0
DWIDTH 8 0
BBX 6 8 1 0
BITMAP
9A90
9020
8020
8020
8020
8020
8020
8020
ENDCHAR
STARTCHAR o
ENCODING 111
SWIDTH 496 0
DWIDTH 8 0
BBX 6 8 1 0
BITMAP
6A90
8020
8020
8020
8020
8020
8020
6A90
ENDCHAR
STARTCHAR p
ENCODING 112
SWIDTH 504 0
DWIDTH 8 0
BBX 6 10 1 -2
BITMAP
AA90
9020
8020
8020
8020
8020
9020
AA90
8000
8000
ENDCHAR
STARTCHAR q
ENCODING 113
SWIDTH 502 0
DWIDTH 8 0
BBX 6 10 1 -2
BITMAP
6AA0
8020
8020
8020
8020
8020
8060
6AA0
0020
0020
ENDCHAR
STARTCHAR r
ENCODING 114
SWIDTH 313 0
DWIDTH 5 0
BBX 4 8 1 0
BITMAP
99
90
80
80
80
80
80
80
ENDCHAR
STARTCHAR s
ENCODING 115
SWIDTH 431 0
DWIDTH 7 0
BBX 5 8 1 0
BITMAP
AA40
8000
8000
6800
0680
00C0
00C0
AA40
ENDCHAR
STARTCHAR t
ENCODING 116
SWIDTH 347 0
DWIDTH 6 0
BBX 5 10 0 0
BITMAP
0400
1800
7E80
1800
1800
1800
1800
1800
0800
0680
ENDCHAR
STARTCHAR u
ENCODING 117
SWIDTH 507 0
DWIDTH 8 0
BBX 6 8 1 0
BITMAP
8020
8020
8020
8020
8020
8020
8030
6AA0
ENDCHAR
STARTCHAR v
ENCODING 118
SWIDTH 416 0
DWIDTH 7 0
BBX 7 8 0 0
BITMAP
9024
6020
2060
2490
1480
0880
0A40
0700
ENDCHAR
STARTCHAR w
ENCODING 119
SWIDTH 683 0
DWIDTH 11 0
BBX 11 8 0 0
BITMAP
903014
606424
209820
208860
148850
094580
0A0280
060240
ENDCHAR
STARTCHAR x
ENCODING 120
SWIDTH 413 0
DWIDTH 7 0
BBX 6 8 0 0
BITMAP
6020
2490
0880
0B00
0A40
1880
2090
6020
ENDCHAR
STARTCHAR y
ENCODING 121
SWIDTH 459 0
DWIDTH 7 0
BBX 7 10 0 -2
BITMAP
5008
2014
2020
1820
0890
0980
0680
0240
0200
2800
ENDCHAR
STARTCHAR z
ENCODING 122
SWIDTH 405 0
DWIDTH 6 0
BBX 6 8 0 0
BITMAP
6AA0
0090
0180
0200
0900
1800
2000
7AA0
ENDCHAR
STARTCHAR braceleft
ENCODING 123
SWIDTH 298 0
DWIDTH 5 0
BBX 4 12 0 -2
BITMAP
0A
08
14
14
14
70
14
14
14
14
08
06
ENDCHAR
STARTCHAR bar
ENCODING 124
SWIDTH 207 0
DWIDTH 3 0
BBX 1 10 1 0
BITMAP
80
80
80
80
80
80
80
80
80
80
ENDCHAR
STARTCHAR braceright
ENCODING 125
SWIDTH 298 0
DWIDTH 5 0
BBX 4 12 0 -2
BITMAP
60
18
08
08
08
0A
08
08
08
08
14
60
ENDCHAR
STARTCHAR asciitilde
ENCODING 126
SWIDTH 523 0
DWIDTH 8 0
BBX 6 1 1 4
BITMAP
6AA0
ENDCHAR
STARTCHAR uni00A0
ENCODING 160
SWIDTH 267 0
DWIDTH 4 0
BBX 1 1 0 0
BITMAP
00
ENDCHAR
STARTCHAR exclamdown
ENCODING 161
SWIDTH 237 0
DWIDTH 4 0
BBX 2 10 1 0
BITMAP
90
90
00
50
50
90
90
90
90
90
ENDCHAR
STARTCHAR cent
ENCODING 162
SWIDTH 414 0
DWIDTH 7 0
BBX 5 12 1 -2
BITMAP
0100
0600
6A80
8000
8000
8000
8000
8000
8000
6A80
0600
0100
ENDCHAR
STARTCHAR sterling
ENCODING 163
SWIDTH 528 0
DWIDTH 8 0
BBX 8 10 0 0
BITMAP
06A4
0808
1805
1800
1800
6E90
1800
1800
1400
7AA9
ENDCHAR
STARTCHAR yen
ENCODING 165
SWIDTH 499 0
DWIDTH 8 0
BBX 8 10 0 0
BITMAP
6009
2008
1824
0860
6AA9
0280
0140
6BE9
0140
0140
ENDCHAR
STARTCHAR brokenbar
ENCODING 166
SWIDTH 201 0
DWIDTH 3 0
BBX 1 10 1 0
BITMAP
80
80
80
80
00
00
80
80
80
80
ENDCHAR
STARTCHAR section
ENCODING 167
SWIDTH 454 0
DWIDTH 7 0
BBX 6 10 1 0
BITMAP
6A80
C000
C000
EA00
8180
9050
1A90
0090
0090
AA80
ENDCHAR
STARTCHAR dieresis
ENCODING 168
SWIDTH 345 0
DWIDTH 6 0
BBX 4 2 1 9
BITMAP
85
85
ENDCHAR
STARTCHAR copyright
ENCODING 169
SWIDTH 723 0
DWIDTH 12 0
BBX 10 10 1 0
BITMAP
6AAA80
800050
82A450
850850
850050
850450
850850
82A450
800050
6AAA80
ENDCHAR
STARTCHAR guillemotleft
ENCODING 171
SWIDTH 431 0
DWIDTH 7 0
BBX 5 6 1 1
BITMAP
0440
2240
8500
9500
2540
0440
ENDCHAR
STARTCHAR registered
ENCODING 174
SWIDTH 439 0
DWIDTH 7 0
BBX 5 5 1 6
BITMAP
6A40
9980
5940
9180
6A40
ENDCHAR
STARTCHAR macron
ENCODING 175
SWIDTH 358 0
DWIDTH 6 0
BBX 4 1 1 9
BITMAP
A9
ENDCHAR
STARTCHAR degree
ENCODING 176
SWIDTH 298 0
DWIDTH 5 0
BBX 3 4 1 7
BITMAP
A4
88
84
64
ENDCHAR
STARTCHAR plusminus
ENCODING 177
SWIDTH 523 0
DWIDTH 8 0
BBX 6 6 1 2
BITMAP
0600
ABA0
0600
0600
0000
AAA0
ENDCHAR
STARTCHAR acute
ENCODING 180
SWIDTH 269 0
DWIDTH 4 0
BBX 2 2 1 9
BITMAP
20
80
ENDCHAR
STARTCHAR paragraph
ENCODING 182
SWIDTH 513 0
DWIDTH 8 0
BBX 7 10 0 0
BITMAP
2FA8
3D08
7D08
3D08
2D08
0508
0508
0508
0508
0508
ENDCHAR
STARTCHAR periodcentered
ENCODING 183
SWIDTH 207 0
DWIDTH 3 0
BBX 1 2 1 4
BITMAP
80
80
ENDCHAR
STARTCHAR cedilla
ENCODING 184
SWIDTH 257 0
DWIDTH 4 0
BBX 2 3 1 -3
BITMAP
50
A0
A0
ENDCHAR
STARTCHAR guillemotright
ENCODING 187
SWIDTH 431 0
DWIDTH 7 0
BBX 5 6 1 1
BITMAP
4400
5600
1580
1580
5600
4400
ENDCHAR
STARTCHAR questiondown
ENCODING 191
SWIDTH 473 0
DWIDTH 8 0
BBX 6 10 1 0
BITMAP
0800
0800
0000
0800
0800
2400
9000
8050
8090
6A80
ENDCHAR
STARTCHAR Agrave
ENCODING 192
SWIDTH 532 0
DWIDTH 9 0
BBX 8 13 0 0
BITMAP
0600
0240
0000
01C0
0290
0220
0520
0814
0808
1AAC
2005
2002
5002
ENDCHAR
STARTCHAR Aacute
ENCODING 193
SWIDTH 532 0
DWIDTH 9 0
BBX 8 13 0 0
BITMAP
0020
0080
0000
01C0
0290
0220
0520
0814
0808
1AAC
2005
2002
5002
ENDCHAR
STARTCHAR Acircumflex
ENCODING 194
SWIDTH 532 0
DWIDTH 9 0
BBX 8 13 0 0
BITMAP
0180
0220
0000
01C0
0290
0220
0520
0814
0808
1AAC
2005
2002
5002
ENDCHAR
STARTCHAR Atilde
ENCODING 195
SWIDTH 532 0
DWIDTH 9 0
BBX 8 13 0 0
BITMAP
04A0
0650
0000
01C0
0290
0220
0520
0814
0808
1AAC
2005
2002
5002
ENDCHAR
STARTCHAR Adieresis
ENCODING 196
SWIDTH 532 0
DWIDTH 9 0
BBX 8 13 0 0
BITMAP
0520
0520
0000
01C0
0290
0220
0520
0814
0808
1AAC
2005
2002
5002
ENDCHAR
STARTCHAR Aring
ENCODING 197
SWIDTH 532 0
DWIDTH 9 0
BBX 8 14 0 0
BITMAP
0290
0120
0220
0280
01C0
0290
0220
0520
0814
0808
1AAC
2005
2002
5002
ENDCHAR
STARTCHAR AE
ENCODING 198
SWIDTH 773 0
DWIDTH 12 0
BBX 12 10 0 0
BITMAP
002EA9
006800
008800
014800
020EA8
080800
0EAC00
200800
600800
800EA9
ENDCHAR
STARTCHAR Ccedilla
ENCODING 199
SWIDTH 542 0
DWIDTH 9 0
BBX 7 13 1 -3
BITMAP
2AA0
9018
8008
8000
8000
8000
8000
8008
9018
2AA0
0200
0180
0240
ENDCHAR
STARTCHAR Egrave
ENCODING 200
SWIDTH 481 0
DWIDTH 8 0
BBX 6 13 1 0
BITMAP
1800
0900
0000
AA90
8000
8000
8000
AA80
8000
8000
8000
8000
AA90
ENDCHAR
STARTCHAR Eacute
ENCODING 201
SWIDTH 481 0
DWIDTH 8 0
BBX 6 13 1 0
BITMAP
0240
0600
0000
AA90
8000
8000
8000
AA80
8000
8000
8000
8000
AA90
ENDCHAR
STARTCHAR Ecircumflex
ENCODING 202
SWIDTH 481 0
DWIDTH 8 0
BBX 6 13 1 0
BITMAP
0A00
1540
0000
AA90
8000
8000
8000
AA80
8000
8000
8000
8000
AA90
ENDCHAR
STARTCHAR Edieresis
ENCODING 203
SWIDTH 481 0
DWIDTH 8 0
BBX 6 13 1 0
BITMAP
2080
2080
0000
AA90
8000
8000
8000
AA80
8000
8000
8000
8000
AA90
ENDCHAR
STARTCHAR Igrave
ENCODING 204
SWIDTH 230 0
DWIDTH 4 0
BBX 3 13 0 0
BITMAP
90
20
00
24
24
24
24
24
24
24
24
24
24
ENDCHAR
STARTCHAR Iacute
ENCODING 205
SWIDTH 231 0
DWIDTH 4 0
BBX 3 13 1 0
BITMAP
24
60
00
90
90
90
90
90
90
90
90
90
90
ENDCHAR
STARTCHAR Icircumflex
ENCODING 206
SWIDTH 229 0
DWIDTH 4 0
BBX 3 13 0 0
BITMAP
24
58
00
24
24
24
24
24
24
24
24
24
24
ENDCHAR
STARTCHAR Idieresis
ENCODING 207
SWIDTH 230 0
DWIDTH 4 0
BBX 4 13 0 0
BITMAP
86
86
00
24
24
24
24
24
24
24
24
24
24
ENDCHAR
STARTCHAR Eth
ENCODING 208
SWIDTH 514 0
DWIDTH 8 0
BBX 8 10 0 0
BITMAP
2AA8
2406
2402
2402
7A82
2402
2402
2402
2406
2AA8
ENDCHAR
STARTCHAR Ntilde
ENCODING 209
SWIDTH 579 0
DWIDTH 9 0
BBX 7 13 1 0
BITMAP
0590
0A10
0000
9008
B008
9808
8908
8208
8148
8088
8068
802C
800C
ENDCHAR
STARTCHAR Ograve
ENCODING 210
SWIDTH 553 0
DWIDTH 9 0
BBX 7 13 1 0
BITMAP
0800
0500
0000
2AA0
9018
8008
8008
8008
8008
8008
8008
9018
2AA0
ENDCHAR
STARTCHAR Oacute
ENCODING 211
SWIDTH 553 0
DWIDTH 9 0
BBX 7 13 1 0
BITMAP
0080
0200
0000
2AA0
9018
8008
8008
8008
8008
8008
8008
9018
2AA0
ENDCHAR
STARTCHAR Ocircumflex
ENCODING 212
SWIDTH 553 0
DWIDTH 9 0
BBX 7 13 1 0
BITMAP
0600
0880
0000
2AA0
9018
8008
8008
8008
8008
8008
8008
9018
2AA0
ENDCHAR
STARTCHAR Otilde
ENCODING 213
SWIDTH 553 0
DWIDTH 9 0
BBX 7 13 1 0
BITMAP
1680
0940
0000
2AA0
9018
8008
8008
8008
8008
8008
8008
9018
2AA0
ENDCHAR
STARTCHAR Odieresis
ENCODING 214
SWIDTH 553 0
DWIDTH 9 0
BBX 7 13 1 0
BITMAP
1480
1480
0000
2AA0
9018
8008
8008
8008
8008
8008
8008
9018
2AA0
ENDCHAR
STARTCHAR multiply
ENCODING 215
SWIDTH 493 0
DWIDTH 8 0
BBX 5 5 1 3
BITMAP
1040
2580
0A00
1A40
6080
ENDCHAR
STARTCHAR Oslash
ENCODING 216
SWIDTH 559 0
DWIDTH 9 0
BBX 7 10 1 0
BITMAP
2AA4
9018
8028
8098
8248
8508
8808
A008
9018
AAA0
ENDCHAR
STARTCHAR Ugrave
ENCODING 217
SWIDTH 552 0
DWIDTH 9 0
BBX 7 13 1 0
BITMAP
0800
0600
0000
8018
8018
8018
8018
8018
8018
8018
8018
9014
2AA0
ENDCHAR
STARTCHAR Uacute
ENCODING 218
SWIDTH 552 0
DWIDTH 9 0
BBX 7 13 1 0
BITMAP
0080
0200
0000
8018
8018
8018
8018
8018
8018
8018
8018
9014
2AA0
ENDCHAR
STARTCHAR Ucircumflex
ENCODING 219
SWIDTH 552 0
DWIDTH 9 0
BBX 7 13 1 0
BITMAP
0600
0880
0000
8018
8018
8018
8018
8018
8018
8018
8018
9014
2AA0
ENDCHAR
STARTCHAR Udieresis
ENCODING 220
SWIDTH 552 0
DWIDTH 9 0
BBX 7 13 1 0
BITMAP
1480
1480
0000
8018
8018
8018
8018
8018
8018
8018
8018
9014
2AA0
ENDCHAR
STARTCHAR Yacute
ENCODING 221
SWIDTH 493 0
DWIDTH 8 0
BBX 8 13 0 0
BITMAP
0090
0180
0000
5009
2008
1824
0820
0690
0280
0140
0140
0140
0140
ENDCHAR
STARTCHAR Thorn
ENCODING 222
SWIDTH 501 0
DWIDTH 8 0
BBX 5 10 2 0
BITMAP
8000
8000
EA40
8080
8080
8080
8180
EA00
8000
8000
ENDCHAR
STARTCHAR germandbls
ENCODING 223
SWIDTH 540 0
DWIDTH 9 0
BBX 7 10 1 0
BITMAP
2AA0
9024
8014
8024
82E0
8024
8014
8018
8024
86A0
ENDCHAR
STARTCHAR agrave
ENCODING 224
SWIDTH 502 0
DWIDTH 8 0
BBX 6 11 1 0
BITMAP
0800
0600
0000
6AA0
8020
8020
8020
8020
8020
8060
6AA0
ENDCHAR
STARTCHAR aacute
ENCODING 225
SWIDTH 502 0
DWIDTH 8 0
BBX 6 11 1 0
BITMAP
0180
0200
0000
6AA0
8020
8020
8020
8020
8020
8060
6AA0
ENDCHAR
STARTCHAR acircumflex
ENCODING 226
SWIDTH 502 0
DWIDTH 8 0
BBX 6 11 1 0
BITMAP
0600
0940
0000
6AA0
8020
8020
8020
8020
8020
8060
6AA0
ENDCHAR
STARTCHAR atilde
ENCODING 227
SWIDTH 504 0
DWIDTH 8 0
BBX 6 11 1 0
BITMAP
1280
0940
0000
6AA0
8020
8020
8020
8020
8020
8060
6AA0
ENDCHAR
STARTCHAR adieresis
ENCODING 228
SWIDTH 502 0
DWIDTH 8 0
BBX 6 11 1 0
BITMAP
1480
1480
0000
6AA0
8020
8020
8020
8020
8020
8060
6AA0
ENDCHAR
STARTCHAR aring
ENCODING 229
SWIDTH 502 0
DWIDTH 8 0
BBX 6 12 1 0
BITMAP
0A00
1440
1440
0A00
6AA0
8020
8020
8020
8020
8020
8060
6AA0
ENDCHAR
STARTCHAR ae
ENCODING 230
SWIDTH 795 0
DWIDTH 13 0
BBX 11 8 1 0
BITMAP
2A9AA0
007018
002008
2AA008
803AA8
802000
807000
6A9AA4
ENDCHAR
STARTCHAR ccedilla
ENCODING 231
SWIDTH 394 0
DWIDTH 6 0
BBX 5 11 1 -3
BITMAP
6A80
8000
8000
8000
8000
8000
8000
6A80
0900
0200
0A00
ENDCHAR
STARTCHAR egrave
ENCODING 232
SWIDTH 492 0
DWIDTH 8 0
BBX 6 11 1 0
BITMAP
1800
0900
0000
6A80
8020
8020
8020
EAA0
8000
8000
6AA0
ENDCHAR
STARTCHAR eacute
ENCODING 233
SWIDTH 492 0
DWIDTH 8 0
BBX 6 11 1 0
BITMAP
0240
0500
0000
6A80
8020
8020
8020
EAA0
8000
8000
6AA0
ENDCHAR
STARTCHAR ecircumflex
ENCODING 234
SWIDTH 492 0
DWIDTH 8 0
BBX 6 11 1 0
BITMAP
0A00
1540
0000
6A80
8020
8020
8020
EAA0
8000
8000
6AA0
ENDCHAR
STARTCHAR edieresis
ENCODING 235
SWIDTH 492 0
DWIDTH 8 0
BBX 6 11 1 0
BITMAP
2080
2080
0000
6A80
8020
8020
8020
EAA0
8000
8000
6AA0
ENDCHAR
STARTCHAR igrave
ENCODING 236
SWIDTH 210 0
DWIDTH 3 0
BBX 2 11 0 0
BITMAP
80
20
00
20
20
20
20
20
20
20
20
ENDCHAR
STARTCHAR iacute
ENCODING 237
SWIDTH 208 0
DWIDTH 3 0
BBX 3 11 1 0
BITMAP
24
50
00
80
80
80
80
80
80
80
80
ENDCHAR
STARTCHAR icircumflex
ENCODING 238
SWIDTH 210 0
DWIDTH 3 0
BBX 3 11 0 0
BITMAP
24
88
00
20
20
20
20
20
20
20
20
ENDCHAR
STARTCHAR idieresis
ENCODING 239
SWIDTH 210 0
DWIDTH 3 0
BBX 4 11 0 0
BITMAP
85
85
00
20
20
20
20
20
20
20
20
ENDCHAR
STARTCHAR eth
ENCODING 240
SWIDTH 488 0
DWIDTH 8 0
BBX 6 12 1 0
BITMAP
1040
1980
0A00
2640
0090
2AA0
9060
8020
8020
8020
8060
6A80
ENDCHAR
STARTCHAR ntilde
ENCODING 241
SWIDTH 507 0
DWIDTH 8 0
BBX 6 11 1 0
BITMAP
1280
1840
0000
9A90
9020
8020
8020
8020
8020
8020
8020
ENDCHAR
STARTCHAR ograve
ENCODING 242
SWIDTH 496 0
DWIDTH 8 0
BBX 6 11 1 0
BITMAP
2400
0800
0000
6A90
8020
8020
8020
8020
8020
8020
6A90
ENDCHAR
STARTCHAR oacute
ENCODING 243
SWIDTH 496 0
DWIDTH 8 0
BBX 6 11 1 0
BITMAP
0180
0200
0000
6A90
8020
8020
8020
8020
8020
8020
6A90
ENDCHAR
STARTCHAR ocircumflex
ENCODING 244
SWIDTH 496 0
DWIDTH 8 0
BBX 6 11 1 0
BITMAP
0A00
1540
0000
6A90
8020
8020
8020
8020
8020
8020
6A90
ENDCHAR
STARTCHAR otilde
ENCODING 245
SWIDTH 496 0
DWIDTH 8 0
BBX 6 11 1 0
BITMAP
1640
2840
0000
6A90
8020
8020
8020
8020
8020
8020
6A90
ENDCHAR
STARTCHAR odieresis
ENCODING 246
SWIDTH 496 0
DWIDTH 8 0
BBX 6 11 1 0
BITMAP
2080
2080
0000
6A90
8020
8020
8020
8020
8020
8020
6A90
ENDCHAR
STARTCHAR divide
ENCODING 247
SWIDTH 510 0
DWIDTH 8 0
BBX 6 5 1 3
BITMAP
0500
0000
AAA0
0000
0500
ENDCHAR
STARTCHAR oslash
ENCODING 248
SWIDTH 521 0
DWIDTH 8 0
BBX 8 8 0 0
BITMAP
0AA5
240D
202C
2098
2248
2808
340C
5AA4
ENDCHAR
STARTCHAR ugrave
ENCODING 249
SWIDTH 507 0
DWIDTH 8 0
BBX 6 11 1 0
BITMAP
1400
0800
0000
8020
8020
8020
8020
8020
8020
8030
6AA0
ENDCHAR
STARTCHAR uacute
ENCODING 250
SWIDTH 507 0
DWIDTH 8 0
BBX 6 11 1 0
BITMAP
0180
0200
0000
8020
8020
8020
8020
8020
8020
8030
6AA0
ENDCHAR
STARTCHAR ucircumflex
ENCODING 251
SWIDTH 507 0
DWIDTH 8 0
BBX 6 11 1 0
BITMAP
0A00
1540
0000
8020
8020
8020
8020
8020
8020
8030
6AA0
ENDCHAR
STARTCHAR udieresis
ENCODING 252
SWIDTH 507 0
DWIDTH 8 0
BBX 6 11 1 0
BITMAP
2080
2080
0000
8020
8020
8020
8020
8020
8020
8030
6AA0
ENDCHAR
STARTCHAR yacute
ENCODING 253
SWIDTH 459 0
DWIDTH 7 0
BBX 7 13 0 -2
BITMAP
0090
0140
0000
5008
2014
2020
1820
0890
0980
0680
0240
0200
2800
ENDCHAR
STARTCHAR thorn
ENCODING 254
SWIDTH 508 0
DWIDTH 8 0
BBX 6 13 1 -2
BITMAP
8000
8000
8000
AA90
9030
8020
8020
8020
8020
9030
AA90
8000
8000
ENDCHAR
STARTCHAR ydieresis
ENCODING 255
SWIDTH 459 0
DWIDTH 7 0
BBX 7 13 0 -2
BITMAP
0850
0850
0000
5008
2014
2020
1820
0890
0980
0680
0240
0200
2800
ENDCHAR
STARTCHAR Amacron
ENCODING 256
SWIDTH 532 0
DWIDTH 9 0
BBX 8 13 0 0
BITMAP
06A0
0000
0000
01C0
0290
0220
0520
0814
0808
1AAC
2005
2002
5002
ENDCHAR
STARTCHAR amacron
ENCODING 257
SWIDTH 502 0
DWIDTH 8 0
BBX 6 10 1 0
BITMAP
1A80
0000
6AA0
8020
8020
8020
8020
8020
8060
6AA0
ENDCHAR
STARTCHAR Abreve
ENCODING 258
SWIDTH 532 0
DWIDTH 9 0
BBX 8 13 0 0
BITMAP
0520
0290
0000
01C0
0290
0220
0520
0814
0808
1AAC
2005
2002
5002
ENDCHAR
STARTCHAR abreve
ENCODING 259
SWIDTH 502 0
DWIDTH 8 0
BBX 6 11 1 0
BITMAP
1480
0A40
0000
6AA0
8020
8020
8020
8020
8020
8060
6AA0
ENDCHAR
STARTCHAR Aogonek
ENCODING 260
SWIDTH 532 0
DWIDTH 9 0
BBX 8 12 0 -2
BITMAP
01C0
0290
0220
0520
0814
0808
1AAC
2005
2002
5003
0005
0009
ENDCHAR
STARTCHAR aogonek
ENCODING 261
SWIDTH 502 0
DWIDTH 8 0
BBX 6 10 1 -2
BITMAP
6AA0
8020
8020
8020
8020
8020
8060
6AA0
0040
0090
ENDCHAR
STARTCHAR Cacute
ENCODING 262
SWIDTH 542 0
DWIDTH 9 0
BBX 7 13 1 0
BITMAP
0080
0200
0000
2AA0
9018
8008
8000
8000
8000
8000
8008
9018
2AA0
ENDCHAR
STARTCHAR cacute
ENCODING 263
SWIDTH 394 0
DWIDTH 6 0
BBX 5 11 1 0
BITMAP
0200
0500
0000
6A80
8000
8000
8000
8000
8000
8000
6A80
ENDCHAR
STARTCHAR Cdotaccent
ENCODING 266
SWIDTH 542 0
DWIDTH 9 0
BBX 7 13 1 0
BITMAP
0200
0200
0000
2AA0
9018
8008
8000
8000
8000
8000
8008
9018
2AA0
ENDCHAR
STARTCHAR cdotaccent
ENCODING 267
SWIDTH 394 0
DWIDTH 6 0
BBX 5 11 1 0
BITMAP
0800
0800
0000
6A80
8000
8000
8000
8000
8000
8000
6A80
ENDCHAR
STARTCHAR Ccaron
ENCODING 268
SWIDTH 542 0
DWIDTH 9 0
BBX 7 13 1 0
BITMAP
0880
0640
0000
2AA0
9018
8008
8000
8000
8000
8000
8008
9018
2AA0
ENDCHAR
STARTCHAR ccaron
ENCODING 269
SWIDTH 394 0
DWIDTH 6 0
BBX 5 11 1 0
BITMAP
2200
0900
0000
6A80
8000
8000
8000
8000
8000
8000
6A80
ENDCHAR
STARTCHAR Dcaron
ENCODING 270
SWIDTH 557 0
DWIDTH 9 0
BBX 7 13 1 0
BITMAP
0880
0600
0000
AAA0
8018
8008
8008
8008
8008
8008
8008
8018
AAA0
ENDCHAR
STARTCHAR dcaron
ENCODING 271
SWIDTH 534 0
DWIDTH 9 0
BBX 8 11 1 0
BITMAP
0026
0026
0025
7FA4
9070
8020
8020
8020
8020
8030
6AA0
ENDCHAR
STARTCHAR Dcroat
ENCODING 272
SWIDTH 514 0
DWIDTH 8 0
BBX 8 10 0 0
BITMAP
2AA8
2406
2402
2402
7A82
2402
2402
2402
2406
2AA8
ENDCHAR
STARTCHAR dcroat
ENCODING 273
SWIDTH 539 0
DWIDTH 9 0
BBX 7 11 1 0
BITMAP
0020
0AB8
0020
0020
2A60
8070
8020
8020
8020
8070
6AA0
ENDCHAR
STARTCHAR Emacron
ENCODING 274
SWIDTH 481 0
DWIDTH 8 0
BBX 6 13 1 0
BITMAP
2A80
0000
0000
AA90
8000
8000
8000
AA80
8000
8000
8000
8000
AA90
ENDCHAR
STARTCHAR emacron
ENCODING 275
SWIDTH 492 0
DWIDTH 8 0
BBX 6 10 1 0
BITMAP
2A80
0000
6A80
8020
8020
8020
EAA0
8000
8000
6AA0
ENDCHAR
STARTCHAR Ebreve
ENCODING 276
SWIDTH 481 0
DWIDTH 8 0
BBX 6 13 1 0
BITMAP
2040
1A00
0000
AA90
8000
8000
8000
AA80
8000
8000
8000
8000
AA90
ENDCHAR
STARTCHAR ebreve
ENCODING 277
SWIDTH 492 0
DWIDTH 8 0
BBX 6 11 1 0
BITMAP
2040
1A00
0000
6A80
8020
8020
8020
EAA0
8000
8000
6AA0
ENDCHAR
STARTCHAR Edotaccent
ENCODING 278
SWIDTH 496 0
DWIDTH 8 0
BBX 6 13 1 0
BITMAP
0500
0500
0000
AA90
8000
8000
8000
AA80
8000
8000
8000
8000
AA90
ENDCHAR
STARTCHAR edotaccent
ENCODING 279
SWIDTH 492 0
DWIDTH 8 0
BBX 6 11 1 0
BITMAP
0500
0500
0000
6A80
8020
8020
8020
EAA0
8000
8000
6AA0
ENDCHAR
STARTCHAR Eogonek
ENCODING 280
SWIDTH 481 0
DWIDTH 8 0
BBX 6 12 1 -2
BITMAP
AA90
8000
8000
8000
AA80
8000
8000
8000
8000
AA90
0140
0240
ENDCHAR
STARTCHAR eogonek
ENCODING 281
SWIDTH 492 0
DWIDTH 8 0
BBX 6 10 1 -2
BITMAP
6A80
8020
8020
8020
EAA0
8000
8000
6AA0
0140
0240
ENDCHAR
STARTCHAR Ecaron
ENCODING 282
SWIDTH 481 0
DWIDTH 8 0
BBX 6 13 1 0
BITMAP
1540
0A00
0000
AA90
8000
8000
8000
AA80
8000
8000
8000
8000
AA90
ENDCHAR
STARTCHAR ecaron
ENCODING 283
SWIDTH 492 0
DWIDTH 8 0
BBX 6 11 1 0
BITMAP
1540
0A00
0000
6A80
8020
8020
8020
EAA0
8000
8000
6AA0
ENDCHAR
STARTCHAR Gcircumflex
ENCODING 284
SWIDTH 539 0
DWIDTH 9 0
BBX 7 13 1 0
BITMAP
0600
0880
0000
2AA0
9024
8014
8000
8000
81A4
8014
8014
9024
2AA0
ENDCHAR
STARTCHAR gcircumflex
ENCODING 285
SWIDTH 506 0
DWIDTH 8 0
BBX 6 13 1 -2
BITMAP
0600
0880
0000
6AB0
8020
8020
8020
8020
9070
2A60
0020
0060
6A90
ENDCHAR
STARTCHAR Gbreve
ENCODING 286
SWIDTH 539 0
DWIDTH 9 0
BBX 7 13 1 0
BITMAP
1480
0540
0000
2AA0
9024
8014
8000
8000
81A4
8014
8014
9024
2AA0
ENDCHAR
STARTCHAR gbreve
ENCODING 287
SWIDTH 506 0
DWIDTH 8 0
BBX 6 13 1 -2
BITMAP
0480
0640
0000
6AB0
8020
8020
8020
8020
9070
2A60
0020
0060
6A90
ENDCHAR
STARTCHAR Gdotaccent
ENCODING 288
SWIDTH 539 0
DWIDTH 9 0
BBX 7 13 1 0
BITMAP
0200
0200
0000
2AA0
9024
8014
8000
8000
81A4
8014
8014
9024
2AA0
ENDCHAR
STARTCHAR gdotaccent
ENCODING 289
SWIDTH 506 0
DWIDTH 8 0
BBX 6 13 1 -2
BITMAP
0200
0200
0000
6AB0
8020
8020
8020
8020
9070
2A60
0020
0060
6A90
ENDCHAR
STARTCHAR uni0122
ENCODING 290
SWIDTH 539 0
DWIDTH 9 0
BBX 7 14 1 -4
BITMAP
2AA0
9024
8014
8000
8000
81A4
8014
8014
9024
2AA0
0000
0200
0200
0100
ENDCHAR
STARTCHAR uni0123
ENCODING 291
SWIDTH 506 0
DWIDTH 8 0
BBX 6 14 1 -2
BITMAP
0100
0200
0200
0000
6AB0
8020
8020
8020
8020
9070
2A60
0020
0060
6A90
ENDCHAR
STARTCHAR hcircumflex
ENCODING 293
SWIDTH 507 0
DWIDTH 8 0
BBX 6 12 1 0
BITMAP
0600
8880
8000
8000
9A90
9020
8020
8020
8020
8020
8020
8020
ENDCHAR
STARTCHAR Hbar
ENCODING 294
SWIDTH 523 0
DWIDTH 8 0
BBX 9 10 0 0
BITMAP
240200
240200
7AAB80
240200
2AAB00
240200
240200
240200
240200
240200
ENDCHAR
STARTCHAR hbar
ENCODING 295
SWIDTH 544 0
DWIDTH 9 0
BBX 8 11 0 0
BITMAP
1800
6E90
1800
1800
1AA8
1809
1806
1806
1806
1806
1806
ENDCHAR
STARTCHAR Itilde
ENCODING 296
SWIDTH 230 0
DWIDTH 4 0
BBX 4 13 0 0
BITMAP
59
A1
00
24
24
24
24
24
24
24
24
24
24
ENDCHAR
STARTCHAR itilde
ENCODING 297
SWIDTH 210 0
DWIDTH 3 0
BBX 4 11 0 0
BITMAP
59
A1
00
20
20
20
20
20
20
20
20
ENDCHAR
STARTCHAR Imacron
ENCODING 298
SWIDTH 230 0
DWIDTH 4 0
BBX 4 13 0 0
BITMAP
A9
00
00
24
24
24
24
24
24
24
24
24
24
ENDCHAR
STARTCHAR imacron
ENCODING 299
SWIDTH 208 0
DWIDTH 3 0
BBX 4 10 0 0
BITMAP
A9
00
20
20
20
20
20
20
20
20
ENDCHAR
STARTCHAR Ibreve
ENCODING 300
SWIDTH 231 0
DWIDTH 4 0
BBX 4 13 0 0
BITMAP
81
68
00
24
24
24
24
24
24
24
24
24
24
ENDCHAR
STARTCHAR ibreve
ENCODING 301
SWIDTH 211 0
DWIDTH 3 0
BBX 4 11 0 0
BITMAP
85
64
00
20
20
20
20
20
20
20
20
ENDCHAR
STARTCHAR Iogonek
ENCODING 302
SWIDTH 230 0
DWIDTH 4 0
BBX 3 12 0 -2
BITMAP
24
24
24
24
24
24
24
24
24
24
10
60
ENDCHAR
STARTCHAR iogonek
ENCODING 303
SWIDTH 210 0
DWIDTH 3 0
BBX 2 13 0 -2
BITMAP
20
20
00
20
20
20
20
20
20
20
20
10
60
ENDCHAR
STARTCHAR Idotaccent
ENCODING 304
SWIDTH 230 0
DWIDTH 4 0
BBX 2 13 1 0
BITMAP
50
90
00
90
90
90
90
90
90
90
90
90
90
ENDCHAR
STARTCHAR dotlessi
ENCODING 305
SWIDTH 212 0
DWIDTH 3 0
BBX 1 8 1 0
BITMAP
80
80
80
80
80
80
80
80
ENDCHAR
STARTCHAR IJ
ENCODING 306
SWIDTH 721 0
DWIDTH 12 0
BBX 10 10 1 0
BITMAP
900050
900090
900090
900090
900090
900090
920090
920090
924080
90AA40
ENDCHAR
STARTCHAR ij
ENCODING 307
SWIDTH 419 0
DWIDTH 7 0
BBX 5 13 1 -2
BITMAP
8140
8140
0000
8140
8140
8140
8140
8140
8140
8140
8140
0240
1A00
ENDCHAR
STARTCHAR Jcircumflex
ENCODING 308
SWIDTH 494 0
DWIDTH 8 0
BBX 8 13 0 0
BITMAP
0018
0022
0000
0008
0008
0008
0008
0008
0008
5008
5008
6018
2AA0
ENDCHAR
STARTCHAR jcircumflex
ENCODING 309
SWIDTH 209 0
DWIDTH 3 0
BBX 4 13 -1 -2
BITMAP
09
22
00
08
08
08
08
08
08
08
08
0C
A4
ENDCHAR
STARTCHAR uni0136
ENCODING 310
SWIDTH 530 0
DWIDTH 8 0
BBX 7 14 1 -4
BITMAP
8024
8060
8180
8200
9900
A600
A180
8050
8020
8008
0100
0200
0200
0100
ENDCHAR
STARTCHAR uni0137
ENCODING 311
SWIDTH 431 0
DWIDTH 7 0
BBX 6 15 1 -4
BITMAP
8000
8000
8000
8090
8180
8200
8900
8900
8200
8180
8050
0000
0900
0800
0400
ENDCHAR
STARTCHAR Lacute
ENCODING 313
SWIDTH 451 0
DWIDTH 7 0
BBX 6 13 1 0
BITMAP
2400
5000
0000
8000
8000
8000
8000
8000
8000
8000
8000
8000
AAA0
ENDCHAR
STARTCHAR lacute
ENCODING 314
SWIDTH 207 0
DWIDTH 3 0
BBX 3 14 1 0
BITMAP
24
50
00
80
80
80
80
80
80
80
80
80
80
80
ENDCHAR
STARTCHAR uni013B
ENCODING 315
SWIDTH 451 0
DWIDTH 7 0
BBX 6 14 1 -4
BITMAP
8000
8000
8000
8000
8000
8000
8000
8000
8000
AAA0
0000
0500
0500
0400
ENDCHAR
STARTCHAR uni013C
ENCODING 316
SWIDTH 211 0
DWIDTH 3 0
BBX 1 15 1 -4
BITMAP
80
80
80
80
80
80
80
80
80
80
80
00
80
80
40
ENDCHAR
STARTCHAR Lcaron
ENCODING 317
SWIDTH 451 0
DWIDTH 7 0
BBX 6 10 1 0
BITMAP
8080
8080
8080
8040
8000
8000
8000
8000
8000
AAA0
ENDCHAR
STARTCHAR lcaron
ENCODING 318
SWIDTH 274 0
DWIDTH 4 0
BBX 3 11 1 0
BITMAP
88
88
88
84
80
80
80
80
80
80
80
ENDCHAR
STARTCHAR Ldot
ENCODING 319
SWIDTH 500 0
DWIDTH 8 0
BBX 6 10 1 0
BITMAP
9000
9000
9000
9000
9240
9240
9000
9000
9000
AAA0
ENDCHAR
STARTCHAR ldot
ENCODING 320
SWIDTH 314 0
DWIDTH 5 0
BBX 4 11 1 0
BITMAP
80
80
80
80
80
89
89
80
80
80
80
ENDCHAR
STARTCHAR Lslash
ENCODING 321
SWIDTH 504 0
DWIDTH 8 0
BBX 7 10 0 0
BITMAP
2400
2400
2600
2800
A400
2400
2400
2400
2400
2AA8
ENDCHAR
STARTCHAR lslash
ENCODING 322
SWIDTH 296 0
DWIDTH 5 0
BBX 5 11 0 0
BITMAP
0800
0800
0800
0A40
1D00
5800
0800
0800
0800
0800
0800
ENDCHAR
STARTCHAR Nacute
ENCODING 323
SWIDTH 579 0
DWIDTH 9 0
BBX 7 13 1 0
BITMAP
0090
0140
0000
9008
B008
9808
8908
8208
8148
8088
8068
802C
800C
ENDCHAR
STARTCHAR nacute
ENCODING 324
SWIDTH 507 0
DWIDTH 8 0
BBX 6 11 1 0
BITMAP
0180
0200
0000
9A90
9020
8020
8020
8020
8020
8020
8020
ENDCHAR
STARTCHAR uni0145
ENCODING 325
SWIDTH 579 0
DWIDTH 9 0
BBX 7 14 1 -4
BITMAP
9008
B008
9808
8908
8208
8148
8088
8068
802C
800C
0000
0200
0200
0100
ENDCHAR
STARTCHAR uni0146
ENCODING 326
SWIDTH 505 0
DWIDTH 8 0
BBX 6 12 1 -4
BITMAP
9A90
9020
8020
8020
8020
8020
8020
8020
0000
0600
0500
0400
ENDCHAR
STARTCHAR Ncaron
ENCODING 327
SWIDTH 579 0
DWIDTH 9 0
BBX 7 13 1 0
BITMAP
0880
0240
0000
9008
B008
9808
8908
8208
8148
8088
8068
802C
800C
ENDCHAR
STARTCHAR ncaron
ENCODING 328
SWIDTH 507 0
DWIDTH 8 0
BBX 6 11 1 0
BITMAP
1540
0A00
0000
9A90
9020
8020
8020
8020
8020
8020
8020
ENDCHAR
STARTCHAR Eng
ENCODING 330
SWIDTH 519 0
DWIDTH 8 0
BBX 7 12 1 -2
BITMAP
9008
B008
9808
9908
9208
9148
9088
9068
902C
900C
0008
00A4
ENDCHAR
STARTCHAR eng
ENCODING 331
SWIDTH 507 0
DWIDTH 8 0
BBX 6 10 1 -2
BITMAP
9A90
9020
8020
8020
8020
8020
8020
8020
0020
0290
ENDCHAR
STARTCHAR Omacron
ENCODING 332
SWIDTH 553 0
DWIDTH 9 0
BBX 7 13 1 0
BITMAP
1A80
0000
0000
2AA0
9018
8008
8008
8008
8008
8008
8008
9018
2AA0
ENDCHAR
STARTCHAR omacron
ENCODING 333
SWIDTH 496 0
DWIDTH 8 0
BBX 6 10 1 0
BITMAP
2A80
0000
6A90
8020
8020
8020
8020
8020
8020
6A90
ENDCHAR
STARTCHAR Obreve
ENCODING 334
SWIDTH 553 0
DWIDTH 9 0
BBX 7 13 1 0
BITMAP
0480
0540
0000
2AA0
9018
8008
8008
8008
8008
8008
8008
9018
2AA0
ENDCHAR
STARTCHAR obreve
ENCODING 335
SWIDTH 496 0
DWIDTH 8 0
BBX 6 11 1 0
BITMAP
2040
0A00
0000
6A90
8020
8020
8020
8020
8020
8020
6A90
ENDCHAR
STARTCHAR Ohungarumlaut
ENCODING 336
SWIDTH 553 0
DWIDTH 9 0
BBX 7 13 1 0
BITMAP
0220
0880
0000
2AA0
9018
8008
8008
8008
8008
8008
8008
9018
2AA0
ENDCHAR
STARTCHAR ohungarumlaut
ENCODING 337
SWIDTH 496 0
DWIDTH 8 0
BBX 6 11 1 0
BITMAP
0550
0880
0000
6A90
8020
8020
8020
8020
8020
8020
6A90
ENDCHAR
STARTCHAR OE
ENCODING 338
SWIDTH 775 0
DWIDTH 12 0
BBX 10 10 1 0
BITMAP
2ABAA0
902000
802000
802000
803AA0
802000
802000
802000
902000
2ABAA0
ENDCHAR
STARTCHAR oe
ENCODING 339
SWIDTH 812 0
DWIDTH 13 0
BBX 11 8 1 0
BITMAP
6A9AA4
803008
802008
802008
803AA8
802000
803000
6A9AA8
ENDCHAR
STARTCHAR Racute
ENCODING 340
SWIDTH 534 0
DWIDTH 9 0
BBX 7 13 1 0
BITMAP
0240
0600
0000
AAA0
8024
8014
8014
8024
AAD0
8080
8060
8020
8014
ENDCHAR
STARTCHAR racute
ENCODING 341
SWIDTH 313 0
DWIDTH 5 0
BBX 4 11 1 0
BITMAP
08
20
00
99
90
80
80
80
80
80
80
ENDCHAR
STARTCHAR uni0156
ENCODING 342
SWIDTH 534 0
DWIDTH 9 0
BBX 7 14 1 -4
BITMAP
AAA0
8024
8014
8014
8024
AAD0
8080
8060
8020
8014
0000
0200
0200
0100
ENDCHAR
STARTCHAR uni0157
ENCODING 343
SWIDTH 313 0
DWIDTH 5 0
BBX 4 12 1 -4
BITMAP
99
90
80
80
80
80
80
80
00
80
80
40
ENDCHAR
STARTCHAR Rcaron
ENCODING 344
SWIDTH 534 0
DWIDTH 9 0
BBX 7 13 1 0
BITMAP
1540
0A00
0000
AAA0
8024
8014
8014
8024
AAD0
8080
8060
8020
8014
ENDCHAR
STARTCHAR rcaron
ENCODING 345
SWIDTH 313 0
DWIDTH 5 0
BBX 4 11 1 0
BITMAP
58
24
00
99
90
80
80
80
80
80
80
ENDCHAR
STARTCHAR Sacute
ENCODING 346
SWIDTH 562 0
DWIDTH 9 0
BBX 7 13 1 0
BITMAP
0080
0200
0000
2AA0
9018
8008
9000
2900
01A0
0018
8008
9018
2AA0
ENDCHAR
STARTCHAR sacute
ENCODING 347
SWIDTH 427 0
DWIDTH 7 0
BBX 5 11 1 0
BITMAP
0600
0800
0000
AA40
8000
8000
6800
0680
00C0
00C0
AA40
ENDCHAR
STARTCHAR Scircumflex
ENCODING 348
SWIDTH 562 0
DWIDTH 9 0
BBX 7 13 1 0
BITMAP
0640
0880
0000
2AA0
9018
8008
9000
2900
01A0
0018
8008
9018
2AA0
ENDCHAR
STARTCHAR scircumflex
ENCODING 349
SWIDTH 427 0
DWIDTH 7 0
BBX 5 11 1 0
BITMAP
1800
2200
0000
AA40
8000
8000
6800
0680
00C0
00C0
AA40
ENDCHAR
STARTCHAR uni015E
ENCODING 350
SWIDTH 562 0
DWIDTH 9 0
BBX 7 13 1 -3
BITMAP
2AA0
9018
8008
9000
2900
01A0
0018
8008
9018
2AA0
0200
0240
0240
ENDCHAR
STARTCHAR uni015F
ENCODING 351
SWIDTH 427 0
DWIDTH 7 0
BBX 5 11 1 -3
BITMAP
AA40
8000
8000
6800
0640
00C0
00C0
AA40
0800
1900
0900
ENDCHAR
STARTCHAR Scaron
ENCODING 352
SWIDTH 562 0
DWIDTH 9 0
BBX 7 13 1 0
BITMAP
0880
0640
0000
2AA0
9018
8008
9000
2900
01A0
0018
8008
9018
2AA0
ENDCHAR
STARTCHAR scaron
ENCODING 353
SWIDTH 427 0
DWIDTH 7 0
BBX 5 11 1 0
BITMAP
2200
1800
0000
AA40
8000
8000
6800
0680
00C0
00C0
AA40
ENDCHAR
STARTCHAR uni0162
ENCODING 354
SWIDTH 420 0
DWIDTH 7 0
BBX 7 14 0 -4
BITMAP
ABA4
0200
0200
0200
0200
0200
0200
0200
0200
0200
0100
0200
0200
0100
ENDCHAR
STARTCHAR uni0163
ENCODING 355
SWIDTH 347 0
DWIDTH 6 0
BBX 5 14 0 -4
BITMAP
0400
1800
7E80
1800
1800
1800
1800
1800
0800
0680
0100
0200
0200
0100
ENDCHAR
STARTCHAR Tcaron
ENCODING 356
SWIDTH 420 0
DWIDTH 7 0
BBX 7 13 0 0
BITMAP
0880
0600
0000
ABA4
0200
0200
0200
0200
0200
0200
0200
0200
0200
ENDCHAR
STARTCHAR tcaron
ENCODING 357
SWIDTH 396 0
DWIDTH 6 0
BBX 7 10 0 0
BITMAP
0424
1824
7EA0
1810
1800
1800
1800
1800
0800
0680
ENDCHAR
STARTCHAR Tbar
ENCODING 358
SWIDTH 501 0
DWIDTH 8 0
BBX 7 10 0 0
BITMAP
6BA4
0200
0200
0200
2BA0
0200
0200
0200
0200
0200
ENDCHAR
STARTCHAR tbar
ENCODING 359
SWIDTH 350 0
DWIDTH 6 0
BBX 5 10 0 0
BITMAP
0400
1800
6E80
1800
1800
7E80
1800
1800
0800
0680
ENDCHAR
STARTCHAR Utilde
ENCODING 360
SWIDTH 552 0
DWIDTH 9 0
BBX 7 13 1 0
BITMAP
1680
0940
0000
8018
8018
8018
8018
8018
8018
8018
8018
9014
2AA0
ENDCHAR
STARTCHAR utilde
ENCODING 361
SWIDTH 507 0
DWIDTH 8 0
BBX 6 11 1 0
BITMAP
1280
1840
0000
8020
8020
8020
8020
8020
8020
8030
6AA0
ENDCHAR
STARTCHAR Umacron
ENCODING 362
SWIDTH 552 0
DWIDTH 9 0
BBX 7 13 1 0
BITMAP
1A80
0000
0000
8018
8018
8018
8018
8018
8018
8018
8018
9014
2AA0
ENDCHAR
STARTCHAR umacron
ENCODING 363
SWIDTH 507 0
DWIDTH 8 0
BBX 6 10 1 0
BITMAP
2A80
0000
8020
8020
8020
8020
8020
8020
8030
6AA0
ENDCHAR
STARTCHAR Ubreve
ENCODING 364
SWIDTH 552 0
DWIDTH 9 0
BBX 7 13 1 0
BITMAP
0480
0540
0000
8018
8018
8018
8018
8018
8018
8018
8018
9014
2AA0
ENDCHAR
STARTCHAR ubreve
ENCODING 365
SWIDTH 507 0
DWIDTH 8 0
BBX 6 11 1 0
BITMAP
2080
0A00
0000
8020
8020
8020
8020
8020
8020
8030
6AA0
ENDCHAR
STARTCHAR Uring
ENCODING 366
SWIDTH 552 0
DWIDTH 9 0
BBX 7 14 1 0
BITMAP
0640
0880
0880
0640
8018
8018
8018
8018
8018
8018
8018
8018
9014
2AA0
ENDCHAR
STARTCHAR uring
ENCODING 367
SWIDTH 507 0
DWIDTH 8 0
BBX 6 12 1 0
BITMAP
1A00
1100
1100
1A00
8020
8020
8020
8020
8020
8020
8030
6AA0
ENDCHAR
STARTCHAR Uhungarumlaut
ENCODING 368
SWIDTH 552 0
DWIDTH 9 0
BBX 7 13 1 0
BITMAP
0260
0880
0000
8018
8018
8018
8018
8018
8018
8018
8018
9014
2AA0
ENDCHAR
STARTCHAR uhungarumlaut
ENCODING 369
SWIDTH 507 0
DWIDTH 8 0
BBX 6 11 1 0
BITMAP
0550
0880
0000
8020
8020
8020
8020
8020
8020
8030
6AA0
ENDCHAR
STARTCHAR Uogonek
ENCODING 370
SWIDTH 552 0
DWIDTH 9 0
BBX 7 12 1 -2
BITMAP
8018
8018
8018
8018
8018
8018
8018
8018
9014
2AA0
0100
0600
ENDCHAR
STARTCHAR uogonek
ENCODING 371
SWIDTH 503 0
DWIDTH 8 0
BBX 6 10 1 -2
BITMAP
8020
8020
8020
8020
8020
8020
8030
6AA0
0040
0090
ENDCHAR
STARTCHAR Wcircumflex
ENCODING 372
SWIDTH 795 0
DWIDTH 13 0
BBX 12 13 0 0
BITMAP
001800
002200
000000
501C02
602903
302506
202205
245209
188148
088088
098098
0A40A4
070070
ENDCHAR
STARTCHAR wcircumflex
ENCODING 373
SWIDTH 682 0
DWIDTH 11 0
BBX 11 11 0 0
BITMAP
006400
008800
000000
903014
606424
209820
208860
148850
094580
0A0280
060240
ENDCHAR
STARTCHAR Ycircumflex
ENCODING 374
SWIDTH 493 0
DWIDTH 8 0
BBX 8 13 0 0
BITMAP
0280
0550
0000
5009
2008
1824
0820
0690
0280
0140
0140
0140
0140
ENDCHAR
STARTCHAR ycircumflex
ENCODING 375
SWIDTH 459 0
DWIDTH 7 0
BBX 7 13 0 -2
BITMAP
0240
0580
0000
5008
2014
2020
1820
0890
0980
0680
0240
0200
2800
ENDCHAR
STARTCHAR Ydieresis
ENCODING 376
SWIDTH 493 0
DWIDTH 8 0
BBX 8 13 0 0
BITMAP
0820
0820
0000
5009
2008
1824
0820
0690
0280
0140
0140
0140
0140
ENDCHAR
STARTCHAR Zacute
ENCODING 377
SWIDTH 482 0
DWIDTH 8 0
BBX 7 13 0 0
BITMAP
0060
0080
0000
2AAC
0024
0020
0090
0180
0200
0900
1800
2000
7AA8
ENDCHAR
STARTCHAR zacute
ENCODING 378
SWIDTH 405 0
DWIDTH 6 0
BBX 6 11 0 0
BITMAP
0080
0240
0000
6AA0
0090
0180
0200
0900
1800
2000
7AA0
ENDCHAR
STARTCHAR Zdotaccent
ENCODING 379
SWIDTH 482 0
DWIDTH 8 0
BBX 7 13 0 0
BITMAP
0180
0180
0000
2AAC
0024
0020
0090
0180
0200
0900
1800
2000
7AA8
ENDCHAR
STARTCHAR zdotaccent
ENCODING 380
SWIDTH 405 0
DWIDTH 6 0
BBX 6 11 0 0
BITMAP
0200
0200
0000
6AA0
0090
0180
0200
0900
1800
2000
7AA0
ENDCHAR
STARTCHAR Zcaron
ENCODING 381
SWIDTH 482 0
DWIDTH 8 0
BBX 7 13 0 0
BITMAP
0550
0280
0000
2AAC
0024
0020
0090
0180
0200
0900
1800
2000
7AA8
ENDCHAR
STARTCHAR zcaron
ENCODING 382
SWIDTH 405 0
DWIDTH 6 0
BBX 6 11 0 0
BITMAP
0880
0240
0000
6AA0
0090
0180
0200
0900
1800
2000
7AA0
ENDCHAR
STARTCHAR florin
ENCODING 402
SWIDTH 494 0
DWIDTH 8 0
BBX 8 13 0 -2
BITMAP
0029
0060
0090
0080
0AE4
0140
0240
0200
0200
0200
0500
0800
6400
ENDCHAR
STARTCHAR AEacute
ENCODING 508
SWIDTH 773 0
DWIDTH 12 0
BBX 12 13 0 0
BITMAP
000240
000500
000000
002EA9
006800
008800
014800
020EA8
080800
0EAC00
200800
600800
800EA9
ENDCHAR
STARTCHAR aeacute
ENCODING 509
SWIDTH 795 0
DWIDTH 13 0
BBX 11 11 1 0
BITMAP
000800
002400
000000
2A9AA0
007018
002008
2AA008
803AA8
802000
807000
6A9AA4
ENDCHAR
STARTCHAR Oslashacute
ENCODING 510
SWIDTH 558 0
DWIDTH 9 0
BBX 7 13 1 0
BITMAP
0080
0200
0000
2AA4
9018
8028
8098
8248
8508
8808
A008
9018
AAA0
ENDCHAR
STARTCHAR oslashacute
ENCODING 511
SWIDTH 521 0
DWIDTH 8 0
BBX 8 11 0 0
BITMAP
0060
0080
0000
0AA5
240D
202C
2098
2248
2808
340C
5AA4
ENDCHAR
STARTCHAR uni0218
ENCODING 536
SWIDTH 562 0
DWIDTH 9 0
BBX 7 14 1 -4
BITMAP
2AA0
9018
8008
9000
2900
01A0
0018
8008
9018
2AA0
0000
0200
0200
0100
ENDCHAR
STARTCHAR uni0219
ENCODING 537
SWIDTH 427 0
DWIDTH 7 0
BBX 5 12 1 -4
BITMAP
AA40
8000
8000
6800
0680
00C0
00C0
AA40
0400
0800
0800
0400
ENDCHAR
STARTCHAR circumflex
ENCODING 710
SWIDTH 326 0
DWIDTH 5 0
BBX 3 2 1 9
BITMAP
24
88
ENDCHAR
STARTCHAR caron
ENCODING 711
SWIDTH 326 0
DWIDTH 5 0
BBX 3 2 1 9
BITMAP
88
24
ENDCHAR
STARTCHAR uni02C9
ENCODING 713
SWIDTH 358 0
DWIDTH 6 0
BBX 4 1 1 9
BITMAP
A9
ENDCHAR
STARTCHAR breve
ENCODING 728
SWIDTH 332 0
DWIDTH 5 0
BBX 4 2 1 9
BITMAP
85
64
ENDCHAR
STARTCHAR dotaccent
ENCODING 729
SWIDTH 183 0
DWIDTH 3 0
BBX 1 2 1 9
BITMAP
80
80
ENDCHAR
STARTCHAR ring
ENCODING 730
SWIDTH 297 0
DWIDTH 5 0
BBX 4 3 0 8
BITMAP
29
51
29
ENDCHAR
STARTCHAR ogonek
ENCODING 731
SWIDTH 243 0
DWIDTH 4 0
BBX 2 2 1 -2
BITMAP
50
90
ENDCHAR
STARTCHAR tilde
ENCODING 732
SWIDTH 369 0
DWIDTH 6 0
BBX 4 3 1 8
BITMAP
49
A1
A1
ENDCHAR
STARTCHAR hungarumlaut
ENCODING 733
SWIDTH 377 0
DWIDTH 6 0
BBX 4 2 1 9
BITMAP
22
88
ENDCHAR
STARTCHAR Mu
ENCODING 924
SWIDTH 527 0
DWIDTH 8 0
BBX 6 11 1 -2
BITMAP
4010
8020
8020
8020
8020
8020
9020
A570
9550
8000
4000
ENDCHAR
STARTCHAR Pi
ENCODING 928
SWIDTH 605 0
DWIDTH 10 0
BBX 9 10 0 0
BITMAP
6EAF80
080500
080500
080500
080500
080500
080500
080500
080500
040400
ENDCHAR
STARTCHAR Sigma
ENCODING 931
SWIDTH 481 0
DWIDTH 8 0
BBX 6 10 1 0
BITMAP
EAA0
5000
2000
0800
0500
0900
1800
2000
9550
6A90
ENDCHAR
STARTCHAR uni0901
ENCODING 2305
SWIDTH 0 0
DWIDTH 0 0
BBX 6 3 -5 11
BITMAP
0100
6020
2A80
ENDCHAR
STARTCHAR uni0902
ENCODING 2306
SWIDTH 0 0
DWIDTH 0 0
BBX 2 1 -3 12
BITMAP
50
ENDCHAR
STARTCHAR uni0903
ENCODING 2307
SWIDTH 247 0
DWIDTH 4 0
BBX 2 6 1 1
BITMAP
50
00
00
00
00
50
ENDCHAR
STARTCHAR uni0905
ENCODING 2309
SWIDTH 598 0
DWIDTH 10 0
BBX 10 10 0 0
BITMAP
2A42A0
008200
008200
008200
1B4200
00EB00
008200
008200
6A4200
000100
ENDCHAR
STARTCHAR uni0906
ENCODING 2310
SWIDTH 828 0
DWIDTH 13 0
BBX 14 10 0 0
BITMAP
2A42AB90
00820200
00820200
00820200
1B420200
00EB0200
00820200
00820200
6A420200
00010100
ENDCHAR
STARTCHAR uni0907
ENCODING 2311
SWIDTH 478 0
DWIDTH 8 0
BBX 8 10 0 0
BITMAP
AABA
0024
1AA0
2000
2000
1AA0
0018
2008
3564
2550
ENDCHAR
STARTCHAR uni0908
ENCODING 2312
SWIDTH 478 0
DWIDTH 8 0
BBX 8 14 0 0
BITMAP
0068
0080
0080
0080
AABA
0024
1AA0
2000
2000
1AA0
0018
2008
3564
2550
ENDCHAR
STARTCHAR uni0909
ENCODING 2313
SWIDTH 471 0
DWIDTH 8 0
BBX 8 10 0 0
BITMAP
AABA
0024
0014
0024
02E0
0024
5014
6014
2560
0540
ENDCHAR
STARTCHAR uni090A
ENCODING 2314
SWIDTH 661 0
DWIDTH 11 0
BBX 11 10 0 0
BITMAP
AABAA8
002400
001400
002000
02FA90
002420
601420
601420
256060
054140
ENDCHAR
STARTCHAR uni090B
ENCODING 2315
SWIDTH 753 0
DWIDTH 12 0
BBX 12 10 0 0
BITMAP
AABEAA
001400
1AA428
202598
201A08
102868
00A480
025480
091494
100414
ENDCHAR
STARTCHAR uni090C
ENCODING 2316
SWIDTH 676 0
DWIDTH 11 0
BBX 11 13 0 -3
BITMAP
AAAAF8
000050
0A9A90
246090
202050
202050
200050
200050
1A4090
000680
000500
000504
0002A4
ENDCHAR
STARTCHAR uni090D
ENCODING 2317
SWIDTH 521 0
DWIDTH 8 0
BBX 9 13 0 1
BITMAP
080800
06A400
000000
000000
BAAF40
240500
240500
240900
24A400
240000
240000
140000
0AA800
ENDCHAR
STARTCHAR uni090E
ENCODING 2318
SWIDTH 522 0
DWIDTH 8 0
BBX 9 13 0 1
BITMAP
020000
018000
006400
000900
BAAF40
240500
240500
240900
24A400
240000
240000
140000
0AA800
ENDCHAR
STARTCHAR uni090F
ENCODING 2319
SWIDTH 526 0
DWIDTH 8 0
BBX 9 9 0 1
BITMAP
BAAF40
240500
240500
240900
24A400
240000
240000
140000
0AA800
ENDCHAR
STARTCHAR uni0910
ENCODING 2320
SWIDTH 526 0
DWIDTH 8 0
BBX 9 13 0 1
BITMAP
008000
006000
002400
000800
BAAF40
240500
240500
240900
24A400
240000
240000
140000
0AA800
ENDCHAR
STARTCHAR uni0911
ENCODING 2321
SWIDTH 829 0
DWIDTH 13 0
BBX 14 14 0 0
BITMAP
00020200
00020200
0000A900
00000000
2A42AB90
00820200
00820200
00820200
1B420200
00EB0200
00820200
00820200
6A420200
00010100
ENDCHAR
STARTCHAR uni0912
ENCODING 2322
SWIDTH 828 0
DWIDTH 13 0
BBX 14 14 0 0
BITMAP
00014000
00009000
00002800
00000600
2A42AB90
00820200
00820200
00820200
1B420200
00EB0200
00820200
00820200
6A420200
00010100
ENDCHAR
STARTCHAR uni0913
ENCODING 2323
SWIDTH 829 0
DWIDTH 13 0
BBX 14 14 0 0
BITMAP
00005000
00002000
00000800
00000500
2A42AB90
00820200
00820200
00820200
1B420200
00EB0200
00820200
00820200
6A420200
00010100
ENDCHAR
STARTCHAR uni0914
ENCODING 2324
SWIDTH 829 0
DWIDTH 13 0
BBX 14 14 0 0
BITMAP
00009200
00002200
00001A00
00000600
2A42AB90
00820200
00820200
00820200
1B420200
00EB0200
00820200
00820200
6A420200
00010100
ENDCHAR
STARTCHAR uni0915
ENCODING 2325
SWIDTH 725 0
DWIDTH 12 0
BBX 12 10 0 0
BITMAP
AABAAA
002400
1A2AA0
202414
202408
202408
202414
1AA5A0
002400
001000
ENDCHAR
STARTCHAR uni0916
ENCODING 2326
SWIDTH 696 0
DWIDTH 11 0
BBX 12 10 0 0
BITMAP
ABAAB9
020020
021A20
022020
692020
202060
181A60
090020
020020
010010
ENDCHAR
STARTCHAR uni0917
ENCODING 2327
SWIDTH 494 0
DWIDTH 8 0
BBX 8 10 0 0
BITMAP
AEBE
0814
0814
0814
0814
6414
0014
0014
0014
0004
ENDCHAR
STARTCHAR uni0918
ENCODING 2328
SWIDTH 559 0
DWIDTH 9 0
BBX 9 10 0 0
BITMAP
BEAF80
200500
200500
1E4500
200500
200500
240900
0AA900
000500
000100
ENDCHAR
STARTCHAR uni0919
ENCODING 2329
SWIDTH 505 0
DWIDTH 8 0
BBX 9 10 0 0
BITMAP
AABA40
002000
1AA000
200000
200500
1AA000
001800
201800
256400
055000
ENDCHAR
STARTCHAR uni091A
ENCODING 2330
SWIDTH 563 0
DWIDTH 9 0
BBX 9 10 0 0
BITMAP
AAAB80
000600
6A8600
080600
140600
140600
080A00
06AA00
000600
000100
ENDCHAR
STARTCHAR uni091B
ENCODING 2331
SWIDTH 581 0
DWIDTH 9 0
BBX 10 9 0 1
BITMAP
AEAB90
200200
200200
241A00
0E0200
240200
200200
200200
1AA900
ENDCHAR
STARTCHAR uni091C
ENCODING 2332
SWIDTH 547 0
DWIDTH 9 0
BBX 9 10 0 0
BITMAP
AAAE80
000500
000500
2BAD00
024500
014500
014500
024500
6A0500
000400
ENDCHAR
STARTCHAR uni091D
ENCODING 2333
SWIDTH 664 0
DWIDTH 11 0
BBX 11 10 0 0
BITMAP
AABAE8
002080
1A9080
200080
200080
1ABAC0
202080
302080
2AA080
200040
ENDCHAR
STARTCHAR uni091E
ENCODING 2334
SWIDTH 592 0
DWIDTH 9 0
BBX 10 10 0 0
BITMAP
AAAB90
000200
2A0200
018200
00EB00
008200
014200
6A0200
000200
000100
ENDCHAR
STARTCHAR uni091F
ENCODING 2335
SWIDTH 485 0
DWIDTH 8 0
BBX 8 9 0 1
BITMAP
AABA
0020
0AA0
2400
2000
2004
2008
2008
1AA4
ENDCHAR
STARTCHAR uni0920
ENCODING 2336
SWIDTH 512 0
DWIDTH 8 0
BBX 9 9 0 1
BITMAP
AABA40
002400
0AB000
241800
200800
200800
200800
200800
1AA400
ENDCHAR
STARTCHAR uni0921
ENCODING 2337
SWIDTH 475 0
DWIDTH 8 0
BBX 8 10 0 0
BITMAP
AABA
0020
1AA0
2000
2000
1AA0
0018
2018
2564
0550
ENDCHAR
STARTCHAR uni0922
ENCODING 2338
SWIDTH 485 0
DWIDTH 8 0
BBX 8 9 0 1
BITMAP
AABA
0020
0AA0
2400
2000
20A4
2088
2008
1AA4
ENDCHAR
STARTCHAR uni0923
ENCODING 2339
SWIDTH 681 0
DWIDTH 11 0
BBX 11 10 0 0
BITMAP
BABAF8
202050
202050
202050
202050
242050
0A9050
000050
000050
000010
ENDCHAR
STARTCHAR uni0924
ENCODING 2340
SWIDTH 496 0
DWIDTH 8 0
BBX 8 10 0 0
BITMAP
AABE
0014
0014
1AB4
2014
2014
2014
2014
2514
0504
ENDCHAR
STARTCHAR uni0925
ENCODING 2341
SWIDTH 593 0
DWIDTH 9 0
BBX 9 10 1 0
BITMAP
6A0A40
924800
024800
AA0800
800800
800800
901C00
2AA800
000800
000400
ENDCHAR
STARTCHAR uni0926
ENCODING 2342
SWIDTH 489 0
DWIDTH 8 0
BBX 8 10 0 0
BITMAP
AABE
0014
0AA4
2400
2000
2004
2018
0AA8
0008
0004
ENDCHAR
STARTCHAR uni0927
ENCODING 2343
SWIDTH 560 0
DWIDTH 9 0
BBX 9 10 0 0
BITMAP
BD2B80
200500
200500
1E4500
200500
200500
240900
0AA900
000500
000100
ENDCHAR
STARTCHAR uni0928
ENCODING 2344
SWIDTH 473 0
DWIDTH 8 0
BBX 8 10 0 0
BITMAP
AABA
0020
0020
2AB0
6020
2020
0020
0020
0020
0010
ENDCHAR
STARTCHAR uni0928093C
ENCODING 2345
SWIDTH 473 0
DWIDTH 8 0
BBX 8 10 0 0
BITMAP
AABA
0020
0020
2AB0
6020
2020
0020
0020
0020
0410
ENDCHAR
STARTCHAR uni092A
ENCODING 2346
SWIDTH 503 0
DWIDTH 8 0
BBX 9 10 0 0
BITMAP
BAAE40
201800
201800
201800
201800
241800
0AA800
001800
001800
000400
ENDCHAR
STARTCHAR uni092B
ENCODING 2347
SWIDTH 739 0
DWIDTH 12 0
BBX 12 10 0 0
BITMAP
BABEAA
201400
201AA0
201818
201408
242408
0AA418
0015A0
001400
001400
ENDCHAR
STARTCHAR uni092C
ENCODING 2348
SWIDTH 491 0
DWIDTH 8 0
BBX 8 10 0 0
BITMAP
AABE
0014
1A54
2814
2614
2094
2034
1AA4
0014
0014
ENDCHAR
STARTCHAR uni092D
ENCODING 2349
SWIDTH 491 0
DWIDTH 8 0
BBX 8 10 0 0
BITMAP
90BE
2014
2014
2014
2AB4
2014
2014
0014
0014
0014
ENDCHAR
STARTCHAR uni092E
ENCODING 2350
SWIDTH 490 0
DWIDTH 8 0
BBX 8 10 0 0
BITMAP
BABE
2014
2014
2014
2AB4
2014
2014
0014
0014
0014
ENDCHAR
STARTCHAR uni092F
ENCODING 2351
SWIDTH 564 0
DWIDTH 9 0
BBX 9 10 0 0
BITMAP
ABAB80
020600
024600
2A0600
200600
200600
240A00
0AA600
000600
000100
ENDCHAR
STARTCHAR uni0930
ENCODING 2352
SWIDTH 337 0
DWIDTH 5 0
BBX 6 10 0 0
BITMAP
AB90
0200
0200
0200
6900
2000
1800
0900
0200
0100
ENDCHAR
STARTCHAR uni0930093C
ENCODING 2353
SWIDTH 347 0
DWIDTH 6 0
BBX 6 10 0 0
BITMAP
ABA0
0240
0240
0200
7900
2000
1800
0900
0200
8140
ENDCHAR
STARTCHAR uni0932
ENCODING 2354
SWIDTH 676 0
DWIDTH 11 0
BBX 11 10 0 0
BITMAP
AAAAF8
000050
0A9A90
246090
202050
202050
200050
200050
1A4050
000040
ENDCHAR
STARTCHAR uni0933
ENCODING 2355
SWIDTH 672 0
DWIDTH 11 0
BBX 11 9 0 1
BITMAP
AAABA8
000200
0A8740
207050
202020
202020
202020
207050
1A9A80
ENDCHAR
STARTCHAR uni0933093C
ENCODING 2356
SWIDTH 672 0
DWIDTH 11 0
BBX 11 11 0 -1
BITMAP
AAABA8
000200
0A8740
207050
202020
202020
202020
207050
1A9A80
000000
020000
ENDCHAR
STARTCHAR uni0935
ENCODING 2357
SWIDTH 484 0
DWIDTH 8 0
BBX 8 10 0 0
BITMAP
AABA
0014
1A54
2014
2014
2014
2024
1AA4
0014
0010
ENDCHAR
STARTCHAR uni0936
ENCODING 2358
SWIDTH 614 0
DWIDTH 10 0
BBX 10 10 0 0
BITMAP
1A81E0
205140
105140
009140
7A8140
200140
180140
090140
020140
014100
ENDCHAR
STARTCHAR uni0937
ENCODING 2359
SWIDTH 505 0
DWIDTH 8 0
BBX 9 10 0 0
BITMAP
BAAE40
280800
260800
218800
206800
242800
0AA800
000800
000800
000400
ENDCHAR
STARTCHAR uni0938
ENCODING 2360
SWIDTH 575 0
DWIDTH 9 0
BBX 10 10 0 0
BITMAP
ABAB90
020200
020200
060200
6EAA00
200200
140200
080200
060200
010100
ENDCHAR
STARTCHAR uni0939
ENCODING 2361
SWIDTH 481 0
DWIDTH 8 0
BBX 8 11 0 -1
BITMAP
AABA
0024
0AA4
2400
2000
2400
0EA0
2414
2004
2400
0AA4
ENDCHAR
STARTCHAR uni093C
ENCODING 2364
SWIDTH 0 0
DWIDTH 0 0
BBX 2 1 -3 -2
BITMAP
50
ENDCHAR
STARTCHAR uni093D
ENCODING 2365
SWIDTH 529 0
DWIDTH 8 0
BBX 6 10 1 0
BITMAP
2A90
2000
2000
1800
0680
0060
0020
4020
2560
0540
ENDCHAR
STARTCHAR uni093E
ENCODING 2366
SWIDTH 231 0
DWIDTH 4 0
BBX 4 10 0 0
BITMAP
BA
24
24
24
24
24
24
24
24
10
ENDCHAR
STARTCHAR uni093F
ENCODING 2367
SWIDTH 231 0
DWIDTH 4 0
BBX 10 14 0 0
BITMAP
0AAA90
140020
240020
240000
BA0000
240000
240000
240000
240000
240000
240000
240000
240000
100000
ENDCHAR
STARTCHAR uni0940
ENCODING 2368
SWIDTH 231 0
DWIDTH 4 0
BBX 7 14 -3 0
BITMAP
2A80
6080
5090
0090
02E8
0090
0090
0090
0090
0090
0090
0090
0090
0040
ENDCHAR
STARTCHAR uni0941
ENCODING 2369
SWIDTH 0 0
DWIDTH 0 0
BBX 7 4 -6 -4
BITMAP
00A0
5014
2014
0AA0
ENDCHAR
STARTCHAR uni0942
ENCODING 2370
SWIDTH 0 0
DWIDTH 0 0
BBX 6 4 -4 -4
BITMAP
6A00
8180
8090
A460
ENDCHAR
STARTCHAR uni0943
ENCODING 2371
SWIDTH 0 0
DWIDTH 0 0
BBX 6 4 -5 -4
BITMAP
2900
6000
6050
2A80
ENDCHAR
STARTCHAR uni0945
ENCODING 2373
SWIDTH 0 0
DWIDTH 0 0
BBX 5 3 -4 11
BITMAP
4040
8180
6A00
ENDCHAR
STARTCHAR uni0946
ENCODING 2374
SWIDTH 0 0
DWIDTH 0 0
BBX 5 5 -6 9
BITMAP
8000
6000
1A00
0140
0180
ENDCHAR
STARTCHAR uni0947
ENCODING 2375
SWIDTH 0 0
DWIDTH 0 0
BBX 4 5 -5 9
BITMAP
90
20
18
09
02
ENDCHAR
STARTCHAR uni0948
ENCODING 2376
SWIDTH 0 0
DWIDTH 0 0
BBX 4 5 -5 9
BITMAP
86
66
26
0A
06
ENDCHAR
STARTCHAR uni0949
ENCODING 2377
SWIDTH 231 0
DWIDTH 4 0
BBX 6 14 -1 0
BITMAP
8050
5080
2A40
0000
2E80
0900
0900
0900
0900
0900
0900
0900
0900
0400
ENDCHAR
STARTCHAR uni094A
ENCODING 2378
SWIDTH 231 0
DWIDTH 4 0
BBX 6 14 -2 0
BITMAP
8000
9000
1900
0200
0BA0
0240
0240
0240
0240
0240
0240
0240
0240
0100
ENDCHAR
STARTCHAR uni094B
ENCODING 2379
SWIDTH 231 0
DWIDTH 4 0
BBX 5 14 -1 0
BITMAP
8000
6000
2400
0800
2E80
0900
0900
0900
0900
0900
0900
0900
0900
0400
ENDCHAR
STARTCHAR uni094C
ENCODING 2380
SWIDTH 231 0
DWIDTH 4 0
BBX 5 14 -1 0
BITMAP
8900
5900
2900
0900
2E80
0900
0900
0900
0900
0900
0900
0900
0900
0400
ENDCHAR
STARTCHAR uni094D
ENCODING 2381
SWIDTH 0 0
DWIDTH 0 0
BBX 2 3 -2 -3
BITMAP
40
90
20
ENDCHAR
STARTCHAR uni0950
ENCODING 2384
SWIDTH 847 0
DWIDTH 14 0
BBX 12 12 1 1
BITMAP
000200
000000
000008
2A42A4
008000
0082A4
008008
1B4009
00E909
808209
808209
6A42A8
ENDCHAR
STARTCHAR uni0951
ENCODING 2385
SWIDTH 0 0
DWIDTH 0 0
BBX 2 3 -3 11
BITMAP
60
60
60
ENDCHAR
STARTCHAR uni0952
ENCODING 2386
SWIDTH 0 0
DWIDTH 0 0
BBX 6 1 -7 -2
BITMAP
6A90
ENDCHAR
STARTCHAR uni0953
ENCODING 2387
SWIDTH 0 0
DWIDTH 0 0
BBX 3 3 -4 11
BITMAP
80
60
24
ENDCHAR
STARTCHAR uni0954
ENCODING 2388
SWIDTH 0 0
DWIDTH 0 0
BBX 2 3 -2 11
BITMAP
20
50
80
ENDCHAR
STARTCHAR uni0915093C
ENCODING 2392
SWIDTH 725 0
DWIDTH 12 0
BBX 12 10 0 0
BITMAP
AABAAA
002400
1A2AA0
202414
202408
202408
202414
1AA5A0
002400
041000
ENDCHAR
STARTCHAR uni0916093C
ENCODING 2393
SWIDTH 696 0
DWIDTH 11 0
BBX 12 10 0 0
BITMAP
ABAAB9
020020
021A20
022020
692020
202060
181A60
090020
020020
510010
ENDCHAR
STARTCHAR uni0917093C
ENCODING 2394
SWIDTH 494 0
DWIDTH 8 0
BBX 8 10 0 0
BITMAP
AEBE
0814
0814
0814
0814
6414
0014
0014
0014
1404
ENDCHAR
STARTCHAR uni091C093C
ENCODING 2395
SWIDTH 547 0
DWIDTH 9 0
BBX 9 10 0 0
BITMAP
AAAE80
000500
000500
2BAD00
024500
014500
014500
024500
6A0500
100400
ENDCHAR
STARTCHAR uni0921093C
ENCODING 2396
SWIDTH 475 0
DWIDTH 8 0
BBX 8 12 0 -2
BITMAP
AABA
0020
1AA0
2000
2000
1AA0
0018
2018
2564
0550
0000
0140
ENDCHAR
STARTCHAR uni0922093C
ENCODING 2397
SWIDTH 485 0
DWIDTH 8 0
BBX 8 11 0 -1
BITMAP
AABA
0020
0AA0
2400
2000
20A4
2088
2008
1AA4
0000
0140
ENDCHAR
STARTCHAR uni092B093C
ENCODING 2398
SWIDTH 739 0
DWIDTH 12 0
BBX 12 10 0 0
BITMAP
BABEAA
201400
201AA0
201818
201408
242408
0AA418
0015A0
001400
081400
ENDCHAR
STARTCHAR uni092F093C
ENCODING 2399
SWIDTH 564 0
DWIDTH 9 0
BBX 9 10 0 0
BITMAP
ABAB80
020600
024600
2A0600
200600
200600
240A00
0AA600
000600
140100
ENDCHAR
STARTCHAR uni0960
ENCODING 2400
SWIDTH 753 0
DWIDTH 12 0
BBX 12 12 0 -2
BITMAP
AABEAA
001400
0AA428
202498
201648
201D68
007480
019480
0914B8
100480
000080
000068
ENDCHAR
STARTCHAR uni0961
ENCODING 2401
SWIDTH 676 0
DWIDTH 11 0
BBX 11 14 0 -4
BITMAP
AAAAF8
000050
000050
0A9A90
206090
202050
201050
200290
1A4500
000500
000390
000500
000500
0002A0
ENDCHAR
STARTCHAR uni0964
ENCODING 2404
SWIDTH 286 0
DWIDTH 5 0
BBX 1 10 2 0
BITMAP
80
80
80
80
80
80
80
80
80
40
ENDCHAR
STARTCHAR uni0965
ENCODING 2405
SWIDTH 518 0
DWIDTH 8 0
BBX 5 10 2 0
BITMAP
8080
8080
8080
8080
8080
8080
8080
8080
8080
4040
ENDCHAR
STARTCHAR uni0966
ENCODING 2406
SWIDTH 519 0
DWIDTH 8 0
BBX 7 10 1 0
BITMAP
6A90
8020
8024
8024
8024
8024
8024
8020
A560
1540
ENDCHAR
STARTCHAR uni0967
ENCODING 2407
SWIDTH 288 0
DWIDTH 5 0
BBX 4 10 0 0
BITMAP
1D
A5
05
05
05
05
05
05
05
04
ENDCHAR
STARTCHAR uni0968
ENCODING 2408
SWIDTH 453 0
DWIDTH 7 0
BBX 7 10 0 0
BITMAP
1AA0
2014
6018
0014
0060
0240
1800
2000
2550
1AA4
ENDCHAR
STARTCHAR uni0969
ENCODING 2409
SWIDTH 489 0
DWIDTH 8 0
BBX 6 10 1 0
BITMAP
6A80
8060
4020
0060
0A80
0060
4020
8020
9590
1540
ENDCHAR
STARTCHAR uni096A
ENCODING 2410
SWIDTH 453 0
DWIDTH 7 0
BBX 8 10 0 0
BITMAP
00B0
01A0
0220
0520
0820
2020
5020
AAB9
0020
0010
ENDCHAR
STARTCHAR uni096B
ENCODING 2411
SWIDTH 480 0
DWIDTH 8 0
BBX 6 10 1 0
BITMAP
EA90
8000
8000
AA80
8060
0020
4020
8020
A590
1540
ENDCHAR
STARTCHAR uni096C
ENCODING 2412
SWIDTH 495 0
DWIDTH 8 0
BBX 6 10 1 0
BITMAP
6A90
8000
8000
AA90
D020
8020
8020
8020
A560
1540
ENDCHAR
STARTCHAR uni096D
ENCODING 2413
SWIDTH 380 0
DWIDTH 6 0
BBX 6 10 0 0
BITMAP
AAA0
0050
0080
0180
0240
0200
0500
0800
1800
1000
ENDCHAR
STARTCHAR uni096E
ENCODING 2414
SWIDTH 523 0
DWIDTH 8 0
BBX 7 10 1 0
BITMAP
6A90
8020
8024
8020
7AE0
9020
8024
8024
A560
1640
ENDCHAR
STARTCHAR uni096F
ENCODING 2415
SWIDTH 493 0
DWIDTH 8 0
BBX 7 10 0 0
BITMAP
1AA0
2018
6008
6008
2008
1AA8
0008
0008
0564
1A50
ENDCHAR
STARTCHAR uni0970
ENCODING 2416
SWIDTH 391 0
DWIDTH 6 0
BBX 6 5 0 2
BITMAP
1A80
6050
5060
6050
1A80
ENDCHAR
STARTCHAR uni0972
ENCODING 2418
SWIDTH 598 0
DWIDTH 10 0
BBX 10 14 0 0
BITMAP
002020
002420
000A90
000000
2A42A0
008200
008200
008200
1B4200
00EB00
008200
008200
6A4200
000100
ENDCHAR
STARTCHAR Wgrave
ENCODING 7808
SWIDTH 795 0
DWIDTH 13 0
BBX 12 13 0 0
BITMAP
006000
001400
000000
501C02
602903
302506
202205
245209
188148
088088
098098
0A40A4
070070
ENDCHAR
STARTCHAR wgrave
ENCODING 7809
SWIDTH 682 0
DWIDTH 11 0
BBX 11 11 0 0
BITMAP
018000
005000
000000
903014
606424
209820
208860
148850
094580
0A0280
060240
ENDCHAR
STARTCHAR Wacute
ENCODING 7810
SWIDTH 795 0
DWIDTH 13 0
BBX 12 13 0 0
BITMAP
000200
000900
000000
501C02
602903
302506
202205
245209
188148
088088
098098
0A40A4
070070
ENDCHAR
STARTCHAR wacute
ENCODING 7811
SWIDTH 682 0
DWIDTH 11 0
BBX 11 11 0 0
BITMAP
000800
002400
000000
903014
606424
209820
208860
148850
094580
0A0280
060240
ENDCHAR
STARTCHAR Wdieresis
ENCODING 7812
SWIDTH 795 0
DWIDTH 13 0
BBX 12 13 0 0
BITMAP
005200
005200
000000
501C02
602903
302506
202205
245209
188148
088088
098098
0A40A4
070070
ENDCHAR
STARTCHAR wdieresis
ENCODING 7813
SWIDTH 682 0
DWIDTH 11 0
BBX 11 11 0 0
BITMAP
018800
018800
000000
903014
606424
209820
208860
148850
094580
0A0280
060240
ENDCHAR
STARTCHAR uni1E9E
ENCODING 7838
SWIDTH 542 0
DWIDTH 9 0
BBX 7 10 1 0
BITMAP
2AB4
9020
8050
8080
81E0
8018
8008
8008
8018
82A0
ENDCHAR
STARTCHAR Ygrave
ENCODING 7922
SWIDTH 493 0
DWIDTH 8 0
BBX 8 13 0 0
BITMAP
0900
0200
0000
5009
2008
1824
0820
0690
0280
0140
0140
0140
0140
ENDCHAR
STARTCHAR ygrave
ENCODING 7923
SWIDTH 459 0
DWIDTH 7 0
BBX 7 13 0 -2
BITMAP
0900
0200
0000
5008
2014
2020
1820
0890
0980
0680
0240
0200
2800
ENDCHAR
STARTCHAR uni200B
ENCODING 8203
SWIDTH 0 0
DWIDTH 0 0
BBX 1 1 0 0
BITMAP
00
ENDCHAR
STARTCHAR uni200C
ENCODING 8204
SWIDTH 0 0
DWIDTH 0 0
BBX 2 17 -1 -4
BITMAP
50
50
50
50
50
50
50
50
50
50
50
50
50
50
50
50
50
ENDCHAR
STARTCHAR uni200D
ENCODING 8205
SWIDTH 0 0
DWIDTH 0 0
BBX 4 17 -2 -4
BITMAP
41
96
28
7D
55
14
14
14
14
14
14
14
14
14
14
14
14
ENDCHAR
STARTCHAR endash
ENCODING 8211
SWIDTH 408 0
DWIDTH 7 0
BBX 6 1 0 5
BITMAP
6AA0
ENDCHAR
STARTCHAR emdash
ENCODING 8212
SWIDTH 537 0
DWIDTH 9 0
BBX 8 1 0 5
BITMAP
6AAA
ENDCHAR
STARTCHAR quoteleft
ENCODING 8216
SWIDTH 179 0
DWIDTH 3 0
BBX 1 4 1 6
BITMAP
40
80
80
80
ENDCHAR
STARTCHAR quoteright
ENCODING 8217
SWIDTH 179 0
DWIDTH 3 0
BBX 1 4 1 6
BITMAP
80
80
80
40
ENDCHAR
STARTCHAR quotesinglbase
ENCODING 8218
SWIDTH 187 0
DWIDTH 3 0
BBX 1 4 1 -2
BITMAP
80
80
80
40
ENDCHAR
STARTCHAR quotedblleft
ENCODING 8220
SWIDTH 329 0
DWIDTH 5 0
BBX 4 4 1 6
BITMAP
41
85
89
89
ENDCHAR
STARTCHAR quotedblright
ENCODING 8221
SWIDTH 329 0
DWIDTH 5 0
BBX 4 4 1 6
BITMAP
89
89
88
44
ENDCHAR
STARTCHAR quotedblbase
ENCODING 8222
SWIDTH 337 0
DWIDTH 5 0
BBX 4 4 1 -2
BITMAP
89
89
88
44
ENDCHAR
STARTCHAR dagger
ENCODING 8224
SWIDTH 427 0
DWIDTH 7 0
BBX 5 10 1 0
BITMAP
0800
0800
AE80
0800
0800
0800
0800
0800
0800
0400
ENDCHAR
STARTCHAR daggerdbl
ENCODING 8225
SWIDTH 427 0
DWIDTH 7 0
BBX 6 10 0 0
BITMAP
0200
0200
2BA0
0200
0200
0200
6BA0
0200
0200
0200
ENDCHAR
STARTCHAR bullet
ENCODING 8226
SWIDTH 273 0
DWIDTH 4 0
BBX 2 3 1 4
BITMAP
60
B0
B0
ENDCHAR
STARTCHAR ellipsis
ENCODING 8230
SWIDTH 591 0
DWIDTH 9 0
BBX 8 2 1 0
BITMAP
C249
C249
ENDCHAR
STARTCHAR perthousand
ENCODING 8240
SWIDTH 1027 0
DWIDTH 16 0
BBX 16 10 0 0
BITMAP
2A420000
20820000
50850000
20880000
1A540000
0022A069
00550882
00850882
01850882
0202A4A9
ENDCHAR
STARTCHAR guilsinglleft
ENCODING 8249
SWIDTH 290 0
DWIDTH 5 0
BBX 3 6 1 1
BITMAP
04
20
80
90
24
04
ENDCHAR
STARTCHAR guilsinglright
ENCODING 8250
SWIDTH 290 0
DWIDTH 5 0
BBX 3 6 1 1
BITMAP
40
50
14
24
90
40
ENDCHAR
STARTCHAR fraction
ENCODING 8260
SWIDTH 117 0
DWIDTH 2 0
BBX 8 10 -3 0
BITMAP
0002
0008
0024
0050
0080
0200
0900
1400
2000
8000
ENDCHAR
STARTCHAR Euro
ENCODING 8364
SWIDTH 523 0
DWIDTH 8 0
BBX 8 10 0 0
BITMAP
06A4
0808
1809
1800
6E80
6E80
1800
1809
0808
06A4
ENDCHAR
STARTCHAR uni20B9
ENCODING 8377
SWIDTH 414 0
DWIDTH 7 0
BBX 6 10 0 0
BITMAP
6BA0
0240
6BE0
0240
6A00
2000
1800
0900
0200
0040
ENDCHAR
STARTCHAR trademark
ENCODING 8482
SWIDTH 591 0
DWIDTH 9 0
BBX 8 4 1 6
BITMAP
B985
2189
2165
1141
ENDCHAR
STARTCHAR uni2126
ENCODING 8486
SWIDTH 629 0
DWIDTH 10 0
BBX 9 10 1 0
BITMAP
2AA800
600500
500500
500600
500600
500600
500600
500500
641900
A96A40
ENDCHAR
STARTCHAR partialdiff
ENCODING 8706
SWIDTH 481 0
DWIDTH 8 0
BBX 6 11 1 0
BITMAP
2900
0680
0090
0060
6A60
8060
8020
8020
8020
9590
1540
ENDCHAR
STARTCHAR uni2206
ENCODING 8710
SWIDTH 594 0
DWIDTH 10 0
BBX 9 10 0 0
BITMAP
00D000
01A000
022400
021800
090800
080500
140200
200240
655580
6AAA40
ENDCHAR
STARTCHAR minus
ENCODING 8722
SWIDTH 523 0
DWIDTH 8 0
BBX 6 1 1 5
BITMAP
AAA0
ENDCHAR
STARTCHAR approxequal
ENCODING 8776
SWIDTH 523 0
DWIDTH 8 0
BBX 6 4 1 3
BITMAP
6AA0
0000
0000
6AA0
ENDCHAR
STARTCHAR notequal
ENCODING 8800
SWIDTH 523 0
DWIDTH 8 0
BBX 6 7 1 2
BITMAP
0040
0140
ABA0
0200
0500
AEA0
0800
ENDCHAR
STARTCHAR lessequal
ENCODING 8804
SWIDTH 523 0
DWIDTH 8 0
BBX 6 6 1 2
BITMAP
06A0
A900
6900
01A0
0000
AAA0
ENDCHAR
STARTCHAR greaterequal
ENCODING 8805
SWIDTH 523 0
DWIDTH 8 0
BBX 6 6 1 2
BITMAP
6900
01A0
05A0
A900
0000
AAA0
ENDCHAR
STARTCHAR uni25CC
ENCODING 9676
SWIDTH 701 0
DWIDTH 11 0
BBX 9 9 1 1
BITMAP
019800
080240
600000
0000C0
900000
0000C0
240000
000600
077000
ENDCHAR
STARTCHAR commaaccent
ENCODING 63171
SWIDTH 0 0
DWIDTH 0 0
BBX 1 3 3 -4
BITMAP
80
80
40
ENDCHAR
STARTCHAR .notdef
ENCODING -1
SWIDTH 600 0
DWIDTH 10 0
BBX 6 10 2 0
BITMAP
EAA0
8020
8020
8020
8020
8020
8020
8020
8020
EAA0
ENDCHAR
STARTCHAR .null
ENCODING -1
SWIDTH 0 0
DWIDTH 0 0
BBX 1 1 0 0
BITMAP
00
ENDCHAR
STARTCHAR nonmarkingreturn
ENCODING -1
SWIDTH 333 0
DWIDTH 5 0
BBX 1 1 0 0
BITMAP
00
ENDCHAR
STARTCHAR uni0915094D
ENCODING -1
SWIDTH 519 0
DWIDTH 8 0
BBX 11 10 0 0
BITMAP
AABAA4
002400
1A2AA0
202410
202400
202400
202400
1AA400
002400
001000
ENDCHAR
STARTCHAR uni0916094D
ENCODING -1
SWIDTH 468 0
DWIDTH 7 0
BBX 9 10 0 0
BITMAP
ABAA80
020000
021A00
022000
692000
202040
181A80
090000
020000
010000
ENDCHAR
STARTCHAR uni0917094D
ENCODING -1
SWIDTH 264 0
DWIDTH 4 0
BBX 5 7 0 3
BITMAP
AE40
0800
0800
0800
0800
0800
6000
ENDCHAR
STARTCHAR uni0918094D
ENCODING -1
SWIDTH 321 0
DWIDTH 5 0
BBX 7 9 0 1
BITMAP
BEA8
2000
2000
2000
0E40
2000
2000
2404
0AA4
ENDCHAR
STARTCHAR uni0919094D
ENCODING -1
SWIDTH 505 0
DWIDTH 8 0
BBX 9 13 0 -3
BITMAP
AABA40
002000
1AA000
200000
200500
1AA000
001800
201800
256400
055000
014000
008000
006000
ENDCHAR
STARTCHAR uni091A094D
ENCODING -1
SWIDTH 330 0
DWIDTH 5 0
BBX 7 9 0 1
BITMAP
AAA8
0000
0000
6A80
0800
1400
1400
0808
06A4
ENDCHAR
STARTCHAR uni091B094D
ENCODING -1
SWIDTH 581 0
DWIDTH 9 0
BBX 10 9 0 1
BITMAP
AEAA90
200000
201900
240200
0E0200
240200
200200
200200
1AA900
ENDCHAR
STARTCHAR uni091C094D
ENCODING -1
SWIDTH 309 0
DWIDTH 5 0
BBX 7 9 0 1
BITMAP
AAA4
0000
0000
2BA4
0240
0140
0140
0240
6A00
ENDCHAR
STARTCHAR uni091D094D
ENCODING -1
SWIDTH 432 0
DWIDTH 7 0
BBX 9 10 0 0
BITMAP
AABA40
002000
1A9000
200000
200000
1ABA40
202000
302000
2AA000
200000
ENDCHAR
STARTCHAR uni091E094D
ENCODING -1
SWIDTH 359 0
DWIDTH 6 0
BBX 8 9 0 1
BITMAP
AAA9
0000
2A00
0140
0080
00E9
0080
0140
6A00
ENDCHAR
STARTCHAR uni091F094D
ENCODING -1
SWIDTH 485 0
DWIDTH 8 0
BBX 8 13 0 -3
BITMAP
AABA
0020
0AA0
2400
2000
2004
2008
2008
1AA4
0000
0080
0090
0010
ENDCHAR
STARTCHAR uni0920094D
ENCODING -1
SWIDTH 512 0
DWIDTH 8 0
BBX 9 13 0 -3
BITMAP
AABA40
002400
0AB000
241800
200800
200800
200800
200800
1AA400
000000
018000
009000
001000
ENDCHAR
STARTCHAR uni0921094D
ENCODING -1
SWIDTH 475 0
DWIDTH 8 0
BBX 8 13 0 -3
BITMAP
AABA
0020
1AA0
2000
2000
1AA0
0018
2018
2564
0550
0140
0080
0060
ENDCHAR
STARTCHAR uni0922094D
ENCODING -1
SWIDTH 485 0
DWIDTH 8 0
BBX 8 13 0 -3
BITMAP
AABA
0020
0AA0
2400
2000
20A4
2088
2008
1AA4
0000
0180
0090
0010
ENDCHAR
STARTCHAR uni0923094D
ENCODING -1
SWIDTH 454 0
DWIDTH 7 0
BBX 8 7 0 3
BITMAP
BAB9
2020
2020
2020
2020
2420
0A90
ENDCHAR
STARTCHAR uni0924094D
ENCODING -1
SWIDTH 263 0
DWIDTH 4 0
BBX 6 10 0 0
BITMAP
AAA0
0000
0000
1AA0
2000
2000
2000
2000
2500
0500
ENDCHAR
STARTCHAR uni0925094D
ENCODING -1
SWIDTH 359 0
DWIDTH 6 0
BBX 7 9 1 1
BITMAP
2A00
9240
4140
0200
A900
8000
8000
9014
2AA0
ENDCHAR
STARTCHAR uni0926094D
ENCODING -1
SWIDTH 489 0
DWIDTH 8 0
BBX 8 12 0 -2
BITMAP
AABE
0014
0AA4
2400
2000
2004
2018
0AA8
0008
0144
0080
0060
ENDCHAR
STARTCHAR uni0927094D
ENCODING -1
SWIDTH 321 0
DWIDTH 5 0
BBX 7 9 0 1
BITMAP
BE28
2000
2000
2000
0E40
2000
2000
2404
0AA4
ENDCHAR
STARTCHAR uni0928094D
ENCODING -1
SWIDTH 233 0
DWIDTH 4 0
BBX 6 7 0 3
BITMAP
AA90
0000
0000
0000
2A90
5000
1000
ENDCHAR
STARTCHAR uni092A094D
ENCODING -1
SWIDTH 269 0
DWIDTH 4 0
BBX 7 7 0 3
BITMAP
BAA4
2000
2000
2000
2000
2414
0A90
ENDCHAR
STARTCHAR uni092B094D
ENCODING -1
SWIDTH 530 0
DWIDTH 8 0
BBX 11 10 0 0
BITMAP
BABEA4
201400
201AA0
201814
201400
242400
0AA400
001400
001400
001400
ENDCHAR
STARTCHAR uni092C094D
ENCODING -1
SWIDTH 265 0
DWIDTH 4 0
BBX 7 9 0 1
BITMAP
AAA0
0000
0A40
2800
2500
2140
20A4
2020
0A90
ENDCHAR
STARTCHAR uni092D094D
ENCODING -1
SWIDTH 261 0
DWIDTH 4 0
BBX 6 7 0 3
BITMAP
90A0
2000
2000
2000
2000
2AA0
2000
ENDCHAR
STARTCHAR uni092E094D
ENCODING -1
SWIDTH 261 0
DWIDTH 4 0
BBX 6 7 0 3
BITMAP
BAA0
2000
2000
2000
2000
2AA0
2000
ENDCHAR
STARTCHAR uni092F094D
ENCODING -1
SWIDTH 323 0
DWIDTH 5 0
BBX 7 9 0 1
BITMAP
ABA8
0200
0240
0200
2900
2000
2000
2408
0AA4
ENDCHAR
STARTCHAR uni0930094D
ENCODING -1
SWIDTH 337 0
DWIDTH 5 0
BBX 6 13 0 -3
BITMAP
AB90
0200
0200
0200
6900
2000
1800
0900
0200
0100
0800
0200
0140
ENDCHAR
STARTCHAR uni0932094D
ENCODING -1
SWIDTH 431 0
DWIDTH 7 0
BBX 9 9 0 1
BITMAP
AAAA80
000000
0A9A40
246040
202000
202000
200000
200000
1A4000
ENDCHAR
STARTCHAR uni0933094D
ENCODING -1
SWIDTH 677 0
DWIDTH 11 0
BBX 11 9 0 1
BITMAP
AAAAA8
000000
0A9A80
207050
202020
202020
202020
207050
1A9A80
ENDCHAR
STARTCHAR uni0935094D
ENCODING -1
SWIDTH 255 0
DWIDTH 4 0
BBX 7 9 0 1
BITMAP
AAA0
0000
0A40
2000
2000
2000
2014
2020
0A90
ENDCHAR
STARTCHAR uni0936094D
ENCODING -1
SWIDTH 378 0
DWIDTH 6 0
BBX 6 10 0 0
BITMAP
1A80
2050
1050
0090
7A80
2000
1800
0900
0200
0140
ENDCHAR
STARTCHAR uni0937094D
ENCODING -1
SWIDTH 282 0
DWIDTH 5 0
BBX 7 7 0 3
BITMAP
BAA4
2800
2600
2180
2060
2424
0A90
ENDCHAR
STARTCHAR uni0938094D
ENCODING -1
SWIDTH 338 0
DWIDTH 5 0
BBX 7 10 0 0
BITMAP
ABA8
0200
0200
0600
6EA8
2000
1400
0800
0600
0100
ENDCHAR
STARTCHAR uni0939094D
ENCODING -1
SWIDTH 457 0
DWIDTH 7 0
BBX 9 11 0 -1
BITMAP
AABA00
002400
0AA400
240000
200000
240000
0EAA80
240000
200000
240000
0AA400
ENDCHAR
STARTCHAR uni0915093C094D
ENCODING -1
SWIDTH 519 0
DWIDTH 8 0
BBX 11 10 0 0
BITMAP
AABAA4
002400
1A2AA0
202410
202400
202400
202400
1AA400
002400
041000
ENDCHAR
STARTCHAR uni0916093C094D
ENCODING -1
SWIDTH 463 0
DWIDTH 7 0
BBX 9 10 0 0
BITMAP
ABAA80
020000
021A00
022000
692000
202040
181A80
090000
020000
210000
ENDCHAR
STARTCHAR uni0917093C094D
ENCODING -1
SWIDTH 264 0
DWIDTH 4 0
BBX 5 10 0 0
BITMAP
AE40
0800
0800
0800
0800
6400
0000
0000
0000
1400
ENDCHAR
STARTCHAR uni091C093C094D
ENCODING -1
SWIDTH 314 0
DWIDTH 5 0
BBX 7 11 0 -1
BITMAP
AAA4
0000
0000
2BA4
0240
0140
0140
0240
6A00
0000
1400
ENDCHAR
STARTCHAR uni0928093C094D
ENCODING -1
SWIDTH 241 0
DWIDTH 4 0
BBX 6 11 0 -1
BITMAP
AA90
0000
0000
0000
2A90
6000
2000
1000
0000
0000
0800
ENDCHAR
STARTCHAR uni092B093C094D
ENCODING -1
SWIDTH 530 0
DWIDTH 8 0
BBX 11 10 0 0
BITMAP
BABEA4
201400
201AA0
201814
201400
242400
0AA400
001400
001400
081400
ENDCHAR
STARTCHAR uni092F093C094D
ENCODING -1
SWIDTH 325 0
DWIDTH 5 0
BBX 7 11 0 -1
BITMAP
ABA8
0200
0240
0200
2900
2000
2000
2408
0AA4
0000
0400
ENDCHAR
STARTCHAR uni09080902
ENCODING -1
SWIDTH 478 0
DWIDTH 8 0
BBX 8 14 0 0
BITMAP
0068
0080
0088
0080
AABA
0024
1AA0
2000
2000
1AA0
0018
2008
3564
2550
ENDCHAR
STARTCHAR uni09300941
ENCODING -1
SWIDTH 533 0
DWIDTH 9 0
BBX 9 10 0 0
BITMAP
ABAA80
020000
02A800
020500
690500
200500
181800
091000
020000
010000
ENDCHAR
STARTCHAR uni09300942
ENCODING -1
SWIDTH 645 0
DWIDTH 10 0
BBX 11 10 0 0
BITMAP
ABAAA4
020000
021A80
022090
692050
200080
180280
090900
020000
010000
ENDCHAR
STARTCHAR uni09390941
ENCODING -1
SWIDTH 495 0
DWIDTH 8 0
BBX 8 14 0 -4
BITMAP
AABA
0024
1AA4
2400
2400
0EA0
2414
2018
2000
2400
0AA4
1008
2408
0AA4
ENDCHAR
STARTCHAR uni09390942
ENCODING -1
SWIDTH 492 0
DWIDTH 8 0
BBX 8 14 0 -4
BITMAP
AABE
0024
0024
1AA4
2400
2400
1EA0
2014
2500
0AA0
1424
1408
1408
0A05
ENDCHAR
STARTCHAR uni09260943
ENCODING -1
SWIDTH 390 0
DWIDTH 6 0
BBX 7 9 0 1
BITMAP
AAE4
0080
1A80
2000
2000
1E40
2000
2000
1A90
ENDCHAR
STARTCHAR uni09390943
ENCODING -1
SWIDTH 519 0
DWIDTH 8 0
BBX 9 12 0 -2
BITMAP
AABA40
002400
1AA400
200000
200000
1EE800
214600
214000
219400
205800
240000
0AA400
ENDCHAR
STARTCHAR uni094D0930
ENCODING -1
SWIDTH 0 0
DWIDTH 0 0
BBX 6 3 -7 -3
BITMAP
0A00
2540
6090
ENDCHAR
STARTCHAR uni0930094D.1
ENCODING -1
SWIDTH 192 0
DWIDTH 3 0
BBX 6 5 -1 5
BITMAP
2A40
0000
0000
8010
6A80
ENDCHAR
STARTCHAR uni0930094D.2
ENCODING -1
SWIDTH 0 0
DWIDTH 0 0
BBX 4 4 -3 10
BITMAP
29
60
60
60
ENDCHAR
STARTCHAR uni0930094D0902
ENCODING -1
SWIDTH 0 0
DWIDTH 0 0
BBX 4 5 -3 9
BITMAP
29
20
64
60
50
ENDCHAR
STARTCHAR uni093E0930094D
ENCODING -1
SWIDTH 231 0
DWIDTH 4 0
BBX 4 14 0 0
BITMAP
0A
14
24
24
BA
24
24
24
24
24
24
24
24
10
ENDCHAR
STARTCHAR uni093E0930094D0902
ENCODING -1
SWIDTH 231 0
DWIDTH 4 0
BBX 4 14 0 0
BITMAP
0A
15
24
24
BA
24
24
24
24
24
24
24
24
10
ENDCHAR
STARTCHAR uni0930094D.aMatraI
ENCODING -1
SWIDTH 0 0
DWIDTH 0 0
BBX 3 3 -1 10
BITMAP
68
80
80
ENDCHAR
STARTCHAR uni0902.aMatraI
ENCODING -1
SWIDTH 0 0
DWIDTH 0 0
BBX 2 1 0 12
BITMAP
50
ENDCHAR
STARTCHAR uni0930094D0902.aMatraI
ENCODING -1
SWIDTH 0 0
DWIDTH 0 0
BBX 3 3 -1 10
BITMAP
68
94
80
ENDCHAR
STARTCHAR uni09400930094D
ENCODING -1
SWIDTH 231 0
DWIDTH 4 0
BBX 7 14 -3 0
BITMAP
2A68
6090
5090
0090
02E8
0090
0090
0090
0090
0090
0090
0090
0090
0040
ENDCHAR
STARTCHAR uni09400902
ENCODING -1
SWIDTH 231 0
DWIDTH 4 0
BBX 7 14 -3 0
BITMAP
2A80
6088
1090
0090
02E8
0090
0090
0090
0090
0090
0090
0090
0090
0040
ENDCHAR
STARTCHAR uni09400930094D0902
ENCODING -1
SWIDTH 231 0
DWIDTH 4 0
BBX 7 14 -3 0
BITMAP
2AA8
6094
0090
0090
02E8
0090
0090
0090
0090
0090
0090
0090
0090
0040
ENDCHAR
STARTCHAR uni0940.aLong
ENCODING -1
SWIDTH 231 0
DWIDTH 4 0
BBX 10 14 -6 0
BITMAP
6AAA00
800200
800240
000240
000BA0
000240
000240
000240
000240
000240
000240
000240
000240
000100
ENDCHAR
STARTCHAR uni09400930094D.aLong
ENCODING -1
SWIDTH 231 0
DWIDTH 4 0
BBX 10 14 -6 0
BITMAP
6AA9A0
800240
800240
000240
000BA0
000240
000240
000240
000240
000240
000240
000240
000240
000100
ENDCHAR
STARTCHAR uni09400902.aLong
ENCODING -1
SWIDTH 231 0
DWIDTH 4 0
BBX 10 14 -6 0
BITMAP
AAAA00
800210
400240
000240
000BA0
000240
000240
000240
000240
000240
000240
000240
000240
000100
ENDCHAR
STARTCHAR uni09400930094D0902.aLong
ENCODING -1
SWIDTH 231 0
DWIDTH 4 0
BBX 10 14 -6 0
BITMAP
AAAAA0
800250
000240
000240
000BA0
000240
000240
000240
000240
000240
000240
000240
000240
000100
ENDCHAR
STARTCHAR uni09470930094D
ENCODING -1
SWIDTH 0 0
DWIDTH 0 0
BBX 6 4 -5 10
BITMAP
9290
2600
1A00
0600
ENDCHAR
STARTCHAR uni09470902
ENCODING -1
SWIDTH 0 0
DWIDTH 0 0
BBX 5 5 -5 9
BITMAP
9000
6000
2880
0900
0200
ENDCHAR
STARTCHAR uni09470901
ENCODING -1
SWIDTH 0 0
DWIDTH 0 0
BBX 8 5 -5 9
BITMAP
9020
2202
1A02
09A9
0200
ENDCHAR
STARTCHAR uni09470930094D0902
ENCODING -1
SWIDTH 0 0
DWIDTH 0 0
BBX 6 4 -5 10
BITMAP
9290
2200
1A40
0600
ENDCHAR
STARTCHAR uni09480930094D
ENCODING -1
SWIDTH 0 0
DWIDTH 0 0
BBX 6 4 -5 10
BITMAP
8990
6A00
1900
0A00
ENDCHAR
STARTCHAR uni09480902
ENCODING -1
SWIDTH 0 0
DWIDTH 0 0
BBX 6 4 -5 10
BITMAP
8600
2650
1A00
0600
ENDCHAR
STARTCHAR uni09480901
ENCODING -1
SWIDTH 0 0
DWIDTH 0 0
BBX 10 4 -5 10
BITMAP
860400
668050
1A2A80
060000
ENDCHAR
STARTCHAR uni09480930094D0902
ENCODING -1
SWIDTH 0 0
DWIDTH 0 0
BBX 6 4 -5 10
BITMAP
8990
6A40
1900
0A00
ENDCHAR
STARTCHAR uni094B0930094D
ENCODING -1
SWIDTH 231 0
DWIDTH 4 0
BBX 5 14 -1 0
BITMAP
8280
6500
2900
0900
2E80
0900
0900
0900
0900
0900
0900
0900
0900
0400
ENDCHAR
STARTCHAR uni094B0902
ENCODING -1
SWIDTH 231 0
DWIDTH 4 0
BBX 5 14 -1 0
BITMAP
8000
6140
2400
0800
2E80
0900
0900
0900
0900
0900
0900
0900
0900
0400
ENDCHAR
STARTCHAR uni094B0930094D0902
ENCODING -1
SWIDTH 231 0
DWIDTH 4 0
BBX 5 14 -1 0
BITMAP
C280
7940
2D00
0900
2E80
0900
0900
0900
0900
0900
0900
0900
0900
0400
ENDCHAR
STARTCHAR uni094C0930094D
ENCODING -1
SWIDTH 231 0
DWIDTH 4 0
BBX 6 14 -2 0
BITMAP
6260
2680
0A40
0740
0BA0
0240
0240
0240
0240
0240
0240
0240
0240
0100
ENDCHAR
STARTCHAR uni094C0902
ENCODING -1
SWIDTH 231 0
DWIDTH 4 0
BBX 5 14 -1 0
BITMAP
8900
5980
2900
0900
2E80
0900
0900
0900
0900
0900
0900
0900
0900
0400
ENDCHAR
STARTCHAR uni094C0930094D0902
ENCODING -1
SWIDTH 231 0
DWIDTH 4 0
BBX 6 14 -2 0
BITMAP
6260
2690
0A40
0740
0BA0
0240
0240
0240
0240
0240
0240
0240
0240
0100
ENDCHAR
STARTCHAR uni0915094D0937
ENCODING -1
SWIDTH 656 0
DWIDTH 11 0
BBX 10 10 1 0
BITMAP
2A8290
208200
208200
6AEB00
800200
804200
809200
6A9200
009200
004100
ENDCHAR
STARTCHAR uni0915094D0937094D
ENCODING -1
SWIDTH 429 0
DWIDTH 7 0
BBX 8 10 1 0
BITMAP
2A80
2080
2080
6AE9
8000
8040
8090
6A90
0090
0040
ENDCHAR
STARTCHAR uni0915094D0937094D092E
ENCODING -1
SWIDTH 933 0
DWIDTH 15 0
BBX 14 10 1 0
BITMAP
2A87ABE0
20820140
20820140
6AEB0140
8002AB40
80420140
80910140
6A900140
00900140
00400040
ENDCHAR
STARTCHAR uni0915094D0937094D092E094D
ENCODING -1
SWIDTH 717 0
DWIDTH 11 0
BBX 12 10 1 0
BITMAP
2A87AA
208200
208200
6AEB00
8002AA
804200
809100
6A9000
009000
004000
ENDCHAR
STARTCHAR uni0915094D0937094D092E094D092F
ENCODING -1
SWIDTH 1283 0
DWIDTH 21 0
BBX 20 10 1 0
BITMAP
2A87AABABA
2082000820
2082001820
6AEB01A420
8002AB4020
8042014020
8091008070
6AD0006AA0
0090000020
0040000010
ENDCHAR
STARTCHAR uni0915094D0937094D092F
ENCODING -1
SWIDTH 989 0
DWIDTH 16 0
BBX 15 10 1 0
BITMAP
2A86FAF8
20802050
20802050
6AEB9050
80020050
80420050
80920090
6AD0AA90
00900050
00400050
ENDCHAR
STARTCHAR uni0915094D0937094D0935
ENCODING -1
SWIDTH 936 0
DWIDTH 15 0
BBX 14 10 1 0
BITMAP
2A86AAE0
2080A580
20814180
6AEB0180
80020180
80420180
80924280
6A90AA80
00900180
00400040
ENDCHAR
STARTCHAR uni091C094D091E
ENCODING -1
SWIDTH 629 0
DWIDTH 10 0
BBX 10 10 0 0
BITMAP
AAAAE0
000180
1AAA80
200180
200180
1AA180
201580
301580
2AA180
200040
ENDCHAR
STARTCHAR uni091C094D091E094D
ENCODING -1
SWIDTH 398 0
DWIDTH 6 0
BBX 8 10 0 0
BITMAP
AAAA
0000
1AAA
2000
2000
1AA0
2014
3014
2AA0
2000
ENDCHAR
STARTCHAR uni091C094D091E094D092F
ENCODING -1
SWIDTH 975 0
DWIDTH 16 0
BBX 16 10 0 0
BITMAP
AAAABABA
00000820
1AAA0820
2002E420
20014020
1AA14020
20148030
30146AA0
2AA00020
20000010
ENDCHAR
STARTCHAR uni0915094D0928
ENCODING -1
SWIDTH 1003 0
DWIDTH 16 0
BBX 16 10 0 0
BITMAP
AABAAAAE
00240018
1A2AA018
20241EA8
20242018
20242018
20240018
1AA40018
00240018
00100004
ENDCHAR
STARTCHAR uni0916094D0928
ENCODING -1
SWIDTH 958 0
DWIDTH 15 0
BBX 16 10 0 0
BITMAP
ABAAAAB9
02000020
020A8020
02205020
69207AB0
20205020
180AD020
09001020
02000020
01000010
ENDCHAR
STARTCHAR uni0917094D0928
ENCODING -1
SWIDTH 736 0
DWIDTH 12 0
BBX 12 10 0 0
BITMAP
AEAABE
080014
080014
081AB4
082014
642014
000014
000014
000014
000010
ENDCHAR
STARTCHAR uni0918094D0928
ENCODING -1
SWIDTH 814 0
DWIDTH 13 0
BBX 13 10 0 0
BITMAP
BEAAAB80
20000600
20000600
1E46AA00
20080600
200C0600
0AA90600
00000600
00000600
00000100
ENDCHAR
STARTCHAR uni091A094D0928
ENCODING -1
SWIDTH 829 0
DWIDTH 13 0
BBX 14 10 0 0
BITMAP
AAAAAB90
00000200
6A800200
0802AA00
14090200
08090200
06A50200
00000200
00000200
00000100
ENDCHAR
STARTCHAR uni091B094D0928
ENCODING -1
SWIDTH 977 0
DWIDTH 16 0
BBX 16 10 0 0
BITMAP
AEAAAABA
20000020
20190020
14022AB0
1E026020
24026020
20021020
20020020
0AA90020
00000010
ENDCHAR
STARTCHAR uni091C094D0928
ENCODING -1
SWIDTH 831 0
DWIDTH 13 0
BBX 14 10 0 0
BITMAP
AAAAAB90
00000200
00000200
2BABAA00
02450200
01450200
01400200
02400200
6A000200
00000100
ENDCHAR
STARTCHAR uni091D094D0928
ENCODING -1
SWIDTH 935 0
DWIDTH 15 0
BBX 15 10 0 0
BITMAP
AABAAAB8
00200050
1A900050
20006AD0
1ABAC050
00208050
20204050
30200050
2A900050
20000010
ENDCHAR
STARTCHAR uni091F094D0928
ENCODING -1
SWIDTH 494 0
DWIDTH 8 0
BBX 8 14 0 -4
BITMAP
AABA
0024
0024
0AA0
2400
2004
2008
2408
0AB4
0024
1AB4
2024
2024
0024
ENDCHAR
STARTCHAR uni0920094D0928
ENCODING -1
SWIDTH 516 0
DWIDTH 8 0
BBX 9 14 0 -4
BITMAP
AABE40
001400
002400
0AB000
240800
200800
200800
240800
0AB400
002400
1AB400
202400
202400
002400
ENDCHAR
STARTCHAR uni0921094D0928
ENCODING -1
SWIDTH 481 0
DWIDTH 8 0
BBX 8 14 0 -4
BITMAP
AABA
0024
1AA0
2000
2000
1AA0
1018
2018
1AB4
0024
1AB4
2024
2024
0024
ENDCHAR
STARTCHAR uni0924094D0928
ENCODING -1
SWIDTH 756 0
DWIDTH 12 0
BBX 13 10 0 0
BITMAP
AAAAAE40
00000800
00000800
101AA800
20200800
20200800
20000800
20000800
29000800
05000400
ENDCHAR
STARTCHAR uni0925094D0928
ENCODING -1
SWIDTH 855 0
DWIDTH 14 0
BBX 13 10 1 0
BITMAP
6A2AAE80
92400900
02400900
AA0AAD00
80080900
80180900
2AA40900
00000900
00000900
00000400
ENDCHAR
STARTCHAR uni0926094D0928
ENCODING -1
SWIDTH 955 0
DWIDTH 15 0
BBX 16 13 0 -3
BITMAP
AABEAAB9
00140020
0AA40020
24002AA0
20009020
20045020
20180020
0AA80020
00080020
00040010
00080000
00090000
00020000
ENDCHAR
STARTCHAR uni0927094D0928
ENCODING -1
SWIDTH 814 0
DWIDTH 13 0
BBX 13 10 0 0
BITMAP
BE0AAB80
20000600
20000600
1E46AA00
20080600
200C0600
0AA40600
00000600
00000600
00000100
ENDCHAR
STARTCHAR uni0928094D0928
ENCODING -1
SWIDTH 738 0
DWIDTH 12 0
BBX 12 10 0 0
BITMAP
AAAABE
000014
000014
2ABAB4
602014
202014
000014
000014
000014
000010
ENDCHAR
STARTCHAR uni092A094D0928
ENCODING -1
SWIDTH 782 0
DWIDTH 13 0
BBX 13 10 0 0
BITMAP
BAAAAE80
20000800
20000800
200AAC00
24180800
0AA80800
00000800
00000800
00000800
00000400
ENDCHAR
STARTCHAR uni092B094D0928
ENCODING -1
SWIDTH 1013 0
DWIDTH 16 0
BBX 17 10 0 0
BITMAP
BABEAAAE40
2014000800
201AA00800
20181EA800
2014240800
2424240800
0AA4140800
0014000800
0014000800
0014000400
ENDCHAR
STARTCHAR uni092C094D0928
ENCODING -1
SWIDTH 810 0
DWIDTH 13 0
BBX 13 10 0 0
BITMAP
AAAAAB80
00000500
1A400500
2406AD00
21080500
20880500
20200500
1A900500
00000500
00000100
ENDCHAR
STARTCHAR uni092D094D0928
ENCODING -1
SWIDTH 757 0
DWIDTH 12 0
BBX 13 10 0 0
BITMAP
90AAAE40
20000800
20000800
200AA800
2AB00800
20200800
20100800
00000800
00000800
00000400
ENDCHAR
STARTCHAR uni092E094D0928
ENCODING -1
SWIDTH 757 0
DWIDTH 12 0
BBX 13 10 0 0
BITMAP
BAAAAE40
20000800
20000800
200AA800
2AB00800
20200800
20100800
00000800
00000800
00000400
ENDCHAR
STARTCHAR uni092F094D0928
ENCODING -1
SWIDTH 829 0
DWIDTH 13 0
BBX 14 10 0 0
BITMAP
ABAAAB90
02000200
02400200
2A02AA00
20090200
24090200
0AA50200
00000200
00000200
00000100
ENDCHAR
STARTCHAR uni0935094D0928
ENCODING -1
SWIDTH 798 0
DWIDTH 13 0
BBX 13 10 0 0
BITMAP
AAAAAF80
00000500
1A400500
200AAD00
20080500
20080500
20200500
1A900500
00000500
00000400
ENDCHAR
STARTCHAR uni0936094D0928
ENCODING -1
SWIDTH 845 0
DWIDTH 14 0
BBX 14 10 0 0
BITMAP
1A86ABA0
20500200
10500200
0092AB00
7A860200
20060200
18000200
09000200
02000200
01400100
ENDCHAR
STARTCHAR uni0938094D0928
ENCODING -1
SWIDTH 831 0
DWIDTH 13 0
BBX 14 10 0 0
BITMAP
ABAAAB90
02000200
02000200
0602AB00
6EAD0200
20050200
14000200
08000200
06000200
01000100
ENDCHAR
STARTCHAR uni0939094D0928
ENCODING -1
SWIDTH 500 0
DWIDTH 8 0
BBX 8 11 0 -1
BITMAP
AAAE
0008
1AA8
2400
2400
0EAC
2429
2089
2088
2440
0AA4
ENDCHAR
STARTCHAR uni0915094D0930
ENCODING -1
SWIDTH 725 0
DWIDTH 12 0
BBX 12 10 0 0
BITMAP
AABAAA
002400
1A2AA0
202414
202408
202408
202414
1AE5A0
026400
081000
ENDCHAR
STARTCHAR uni0916094D0930
ENCODING -1
SWIDTH 698 0
DWIDTH 11 0
BBX 12 10 0 0
BITMAP
ABAAB9
020020
020A20
022020
692020
202060
181AA0
090220
020920
011410
ENDCHAR
STARTCHAR uni0917094D0930
ENCODING -1
SWIDTH 494 0
DWIDTH 8 0
BBX 8 10 0 0
BITMAP
AEBE
0814
0814
0814
0814
6474
0094
0214
0914
1404
ENDCHAR
STARTCHAR uni0918094D0930
ENCODING -1
SWIDTH 559 0
DWIDTH 9 0
BBX 9 11 0 -1
BITMAP
BEAF80
200500
200500
1E4500
200500
200500
240900
0AB900
009500
024100
050000
ENDCHAR
STARTCHAR uni0919094D0930
ENCODING -1
SWIDTH 505 0
DWIDTH 8 0
BBX 9 12 0 -2
BITMAP
AABA40
002000
1AA000
200000
200500
1AA000
001800
201800
256400
07D000
099000
182000
ENDCHAR
STARTCHAR uni091A094D0930
ENCODING -1
SWIDTH 563 0
DWIDTH 9 0
BBX 9 10 0 0
BITMAP
AAAB80
000600
6A8600
080600
140600
140600
080A00
06BA00
009600
060100
ENDCHAR
STARTCHAR uni091B094D0930
ENCODING -1
SWIDTH 581 0
DWIDTH 9 0
BBX 10 12 0 -2
BITMAP
AEAB90
200200
200200
241A00
0E0200
240200
200200
200200
1AA900
026000
061800
040400
ENDCHAR
STARTCHAR uni091C094D0930
ENCODING -1
SWIDTH 547 0
DWIDTH 9 0
BBX 9 10 0 0
BITMAP
AAAE80
000500
000500
2BAD00
024500
014500
024900
6A2900
009500
014400
ENDCHAR
STARTCHAR uni091D094D0930
ENCODING -1
SWIDTH 684 0
DWIDTH 11 0
BBX 11 10 0 0
BITMAP
AABAB8
1AA050
200050
200050
1ABAD0
002050
202090
302190
2A9650
201810
ENDCHAR
STARTCHAR uni091E094D0930
ENCODING -1
SWIDTH 598 0
DWIDTH 10 0
BBX 10 10 0 0
BITMAP
AAABA0
000200
2A0200
018200
00EB00
008200
014700
6A1A00
006200
004100
ENDCHAR
STARTCHAR uni091F094D0930
ENCODING -1
SWIDTH 485 0
DWIDTH 8 0
BBX 8 11 0 -1
BITMAP
AABA
0020
0AA0
2400
2000
2000
2008
2008
1AA4
0650
0824
ENDCHAR
STARTCHAR uni0920094D0930
ENCODING -1
SWIDTH 512 0
DWIDTH 8 0
BBX 9 12 0 -2
BITMAP
AABA40
002400
0AB000
241800
200800
200800
200800
200800
1AA400
029000
092000
040400
ENDCHAR
STARTCHAR uni0921094D0930
ENCODING -1
SWIDTH 475 0
DWIDTH 8 0
BBX 8 12 0 -2
BITMAP
AABA
0020
1AA0
2000
2000
1AA0
0018
2018
2564
07D0
0960
1824
ENDCHAR
STARTCHAR uni0922094D0930
ENCODING -1
SWIDTH 485 0
DWIDTH 8 0
BBX 8 12 0 -2
BITMAP
AABA
0020
0AA0
2400
2000
20A4
2088
2008
1AA4
0290
0920
0404
ENDCHAR
STARTCHAR uni0923094D0930
ENCODING -1
SWIDTH 681 0
DWIDTH 11 0
BBX 11 10 0 0
BITMAP
BABAF8
202050
202050
202050
202050
242090
0A9290
000950
002450
001010
ENDCHAR
STARTCHAR uni0924094D0930
ENCODING -1
SWIDTH 493 0
DWIDTH 8 0
BBX 8 10 0 0
BITMAP
AABE
0014
1AA4
2024
2014
1014
00B4
0254
0914
1004
ENDCHAR
STARTCHAR uni0925094D0930
ENCODING -1
SWIDTH 593 0
DWIDTH 9 0
BBX 9 10 1 0
BITMAP
6A0A40
924800
024800
AA0800
800800
800800
901C00
2AE800
024800
090400
ENDCHAR
STARTCHAR uni0926094D0930
ENCODING -1
SWIDTH 489 0
DWIDTH 8 0
BBX 8 10 0 0
BITMAP
AABE
0014
0AA4
2400
2000
2004
2018
0AE8
0188
0204
ENDCHAR
STARTCHAR uni0927094D0930
ENCODING -1
SWIDTH 560 0
DWIDTH 9 0
BBX 9 10 0 0
BITMAP
BD2B80
200500
200500
1E4500
200500
200500
240900
0AB900
009500
024100
ENDCHAR
STARTCHAR uni0928094D0930
ENCODING -1
SWIDTH 473 0
DWIDTH 8 0
BBX 8 10 0 0
BITMAP
AABA
0020
0020
2AB0
6020
20B0
0160
0620
1820
1010
ENDCHAR
STARTCHAR uni092A094D0930
ENCODING -1
SWIDTH 503 0
DWIDTH 8 0
BBX 9 10 0 0
BITMAP
BAAE40
201800
201800
201800
241800
0AE800
009800
021800
081800
140400
ENDCHAR
STARTCHAR uni092B094D0930
ENCODING -1
SWIDTH 741 0
DWIDTH 12 0
BBX 12 10 0 0
BITMAP
BABEAA
201AA0
201818
201408
242408
0AE408
019418
0615A0
081400
100400
ENDCHAR
STARTCHAR uni092C094D0930
ENCODING -1
SWIDTH 491 0
DWIDTH 8 0
BBX 8 10 0 0
BITMAP
AABE
0014
1A54
2814
2614
2094
2034
1AE4
0254
0914
ENDCHAR
STARTCHAR uni092D094D0930
ENCODING -1
SWIDTH 491 0
DWIDTH 8 0
BBX 8 10 0 0
BITMAP
90BE
2014
2014
2014
2AB4
2024
20A4
0254
0914
0414
ENDCHAR
STARTCHAR uni092E094D0930
ENCODING -1
SWIDTH 490 0
DWIDTH 8 0
BBX 8 10 0 0
BITMAP
BABE
2014
2014
2014
2AB4
2034
20A4
0254
0914
1414
ENDCHAR
STARTCHAR uni092F094D0930
ENCODING -1
SWIDTH 564 0
DWIDTH 9 0
BBX 9 10 0 0
BITMAP
ABAB80
020600
024600
2A0600
200600
200600
240A00
0ABA00
018600
060100
ENDCHAR
STARTCHAR uni0935094D0930
ENCODING -1
SWIDTH 484 0
DWIDTH 8 0
BBX 8 10 0 0
BITMAP
AABA
0014
1A54
2014
2014
2014
2024
1AE4
0254
0910
ENDCHAR
STARTCHAR uni0936094D0930
ENCODING -1
SWIDTH 558 0
DWIDTH 9 0
BBX 9 10 0 0
BITMAP
1A8780
209500
205500
248500
0B4500
299500
503900
019500
060500
000100
ENDCHAR
STARTCHAR uni0938094D0930
ENCODING -1
SWIDTH 604 0
DWIDTH 10 0
BBX 10 10 0 0
BITMAP
ABABA0
020240
020240
060240
6EAB40
200A40
142640
085240
060240
010100
ENDCHAR
STARTCHAR uni0939094D0930
ENCODING -1
SWIDTH 505 0
DWIDTH 8 0
BBX 9 11 0 -1
BITMAP
AAAE40
001400
1AA400
200000
200000
1EA800
202800
209800
224800
200000
0AA400
ENDCHAR
STARTCHAR uni0915093C094D0930
ENCODING -1
SWIDTH 725 0
DWIDTH 12 0
BBX 12 11 0 -1
BITMAP
AABAAA
002400
1A2AA0
202414
202408
202408
202414
1AE5A0
026400
081000
010000
ENDCHAR
STARTCHAR uni0916093C094D0930
ENCODING -1
SWIDTH 698 0
DWIDTH 11 0
BBX 12 11 0 -1
BITMAP
ABAAB9
020020
020A20
022020
692020
202060
181AA0
090220
020920
011410
000200
ENDCHAR
STARTCHAR uni0917093C094D0930
ENCODING -1
SWIDTH 494 0
DWIDTH 8 0
BBX 8 11 0 -1
BITMAP
AEBE
0814
0814
0814
0814
6474
0094
0214
0914
1404
0100
ENDCHAR
STARTCHAR uni091C093C094D0930
ENCODING -1
SWIDTH 547 0
DWIDTH 9 0
BBX 9 10 0 0
BITMAP
AAAE80
000500
000500
2BAD00
024500
014500
024900
6A2900
009500
514400
ENDCHAR
STARTCHAR uni0921093C094D0930
ENCODING -1
SWIDTH 475 0
DWIDTH 8 0
BBX 8 12 0 -2
BITMAP
AABA
0020
1AA0
2000
2000
1AA0
0018
2018
2564
07D0
8960
1824
ENDCHAR
STARTCHAR uni0922093C094D0930
ENCODING -1
SWIDTH 485 0
DWIDTH 8 0
BBX 8 12 0 -2
BITMAP
AABA
0020
0AA0
2400
2000
20A4
2088
2008
1AA4
8290
0920
0404
ENDCHAR
STARTCHAR uni0928093C094D0930
ENCODING -1
SWIDTH 473 0
DWIDTH 8 0
BBX 8 11 0 -1
BITMAP
AABA
0020
0020
2AB0
6020
20B0
0160
0620
1820
1010
0500
ENDCHAR
STARTCHAR uni092B093C094D0930
ENCODING -1
SWIDTH 741 0
DWIDTH 12 0
BBX 12 11 0 -1
BITMAP
BABEAA
201AA0
201818
201408
242408
0AE408
019418
0615A0
081400
100400
020000
ENDCHAR
STARTCHAR uni092F093C094D0930
ENCODING -1
SWIDTH 564 0
DWIDTH 9 0
BBX 9 11 0 -1
BITMAP
ABAB80
020600
024600
2A0600
200600
200600
240A00
0ABA00
019600
060100
004000
ENDCHAR
STARTCHAR uni0915094D0930094D
ENCODING -1
SWIDTH 518 0
DWIDTH 8 0
BBX 11 10 0 0
BITMAP
AABAA4
002400
1A2AA0
202410
202400
202400
202400
1AE400
022400
081000
ENDCHAR
STARTCHAR uni0916094D0930094D
ENCODING -1
SWIDTH 469 0
DWIDTH 8 0
BBX 10 10 0 0
BITMAP
ABAA80
020000
020A00
022000
692000
202050
181B80
090200
020900
011400
ENDCHAR
STARTCHAR uni0917094D0930094D
ENCODING -1
SWIDTH 264 0
DWIDTH 4 0
BBX 6 10 0 0
BITMAP
AE40
0800
0800
0800
0810
6460
0080
0200
0900
1400
ENDCHAR
STARTCHAR uni0918094D0930094D
ENCODING -1
SWIDTH 319 0
DWIDTH 5 0
BBX 7 11 0 -1
BITMAP
BEA8
2000
2000
2000
0E40
2000
2000
2408
0AB4
0180
0500
ENDCHAR
STARTCHAR uni091A094D0930094D
ENCODING -1
SWIDTH 331 0
DWIDTH 5 0
BBX 7 10 0 0
BITMAP
AAA4
0000
0000
6A80
0800
1400
1400
0804
06B4
0140
ENDCHAR
STARTCHAR uni091C094D0930094D
ENCODING -1
SWIDTH 312 0
DWIDTH 5 0
BBX 7 10 0 0
BITMAP
AAA4
0000
0000
2BA4
0240
0140
0144
0258
6A60
0180
ENDCHAR
STARTCHAR uni091D094D0930094D
ENCODING -1
SWIDTH 441 0
DWIDTH 7 0
BBX 9 10 0 0
BITMAP
AABA80
002000
1A9000
200000
200000
1ABA80
202080
302180
2AA600
201800
ENDCHAR
STARTCHAR uni091E094D0930094D
ENCODING -1
SWIDTH 374 0
DWIDTH 6 0
BBX 8 10 0 0
BITMAP
AAA9
0000
2A00
0180
00EA
0082
0146
6A18
0060
0040
ENDCHAR
STARTCHAR uni091F094D0930094D
ENCODING -1
SWIDTH 485 0
DWIDTH 8 0
BBX 8 14 0 -4
BITMAP
AABA
0020
0020
0AA0
2000
2000
2008
2008
1AA4
0650
0824
0080
0090
0020
ENDCHAR
STARTCHAR uni0920094D0930094D
ENCODING -1
SWIDTH 512 0
DWIDTH 8 0
BBX 9 14 0 -4
BITMAP
AABA40
002400
002000
1AB000
200800
200800
200800
200800
1AA400
029000
082400
044400
009000
002000
ENDCHAR
STARTCHAR uni0921094D0930094D
ENCODING -1
SWIDTH 475 0
DWIDTH 8 0
BBX 8 15 0 -5
BITMAP
AABA
0020
1AA0
2000
2000
1AA0
0018
2018
2564
07D0
0950
1824
0180
0090
0010
ENDCHAR
STARTCHAR uni0922094D0930094D
ENCODING -1
SWIDTH 485 0
DWIDTH 8 0
BBX 8 14 0 -4
BITMAP
AABA
0020
0AA0
2400
2000
20A4
2088
2008
1AA4
0290
0924
0444
0090
0020
ENDCHAR
STARTCHAR uni0923094D0930094D
ENCODING -1
SWIDTH 457 0
DWIDTH 7 0
BBX 9 10 0 0
BITMAP
BAB900
202000
202000
202000
202000
242080
0A9240
000900
002400
001000
ENDCHAR
STARTCHAR uni0924094D0930094D
ENCODING -1
SWIDTH 268 0
DWIDTH 4 0
BBX 7 10 0 0
BITMAP
AAA4
0000
1A90
2020
2014
1014
00A0
0240
0900
1000
ENDCHAR
STARTCHAR uni0925094D0930094D
ENCODING -1
SWIDTH 358 0
DWIDTH 6 0
BBX 7 11 1 -1
BITMAP
2A00
9240
4140
0200
A900
8000
8000
9014
2AE0
0240
0800
ENDCHAR
STARTCHAR uni0926094D0930094D
ENCODING -1
SWIDTH 489 0
DWIDTH 8 0
BBX 8 13 0 -3
BITMAP
AABE
0014
0AA4
2400
2000
2004
2018
0AE8
0188
0204
0050
0024
0004
ENDCHAR
STARTCHAR uni0927094D0930094D
ENCODING -1
SWIDTH 322 0
DWIDTH 5 0
BBX 7 11 0 -1
BITMAP
BD28
2000
2000
2000
0E40
2000
2000
2408
0AB4
0090
0200
ENDCHAR
STARTCHAR uni0928094D0930094D
ENCODING -1
SWIDTH 247 0
DWIDTH 4 0
BBX 6 10 0 0
BITMAP
AAA0
0000
0000
2AA0
6020
2050
0180
0600
0800
1000
ENDCHAR
STARTCHAR uni092A094D0930094D
ENCODING -1
SWIDTH 270 0
DWIDTH 4 0
BBX 7 10 0 0
BITMAP
BA90
2000
2000
2000
2414
0AE0
0180
0200
0900
1400
ENDCHAR
STARTCHAR uni092B094D0930094D
ENCODING -1
SWIDTH 523 0
DWIDTH 8 0
BBX 12 10 -1 0
BITMAP
6EAEA9
080AA8
080A05
080900
080900
06B900
005900
018900
020900
040400
ENDCHAR
STARTCHAR uni092C094D0930094D
ENCODING -1
SWIDTH 267 0
DWIDTH 4 0
BBX 7 11 0 -1
BITMAP
AAA0
0000
0A40
2800
2500
2140
2094
2020
0AD0
0240
0800
ENDCHAR
STARTCHAR uni092D094D0930094D
ENCODING -1
SWIDTH 257 0
DWIDTH 4 0
BBX 6 10 0 0
BITMAP
90A0
2000
2000
2000
2AA0
2020
1080
0200
0900
0400
ENDCHAR
STARTCHAR uni092E094D0930094D
ENCODING -1
SWIDTH 261 0
DWIDTH 4 0
BBX 6 10 0 0
BITMAP
BAA0
2000
2000
2000
2AA0
2020
1080
0200
0900
0400
ENDCHAR
STARTCHAR uni092F094D0930094D
ENCODING -1
SWIDTH 323 0
DWIDTH 5 0
BBX 7 11 0 -1
BITMAP
ABA0
0200
0240
0200
2900
2000
2000
2408
0AB4
0180
0500
ENDCHAR
STARTCHAR uni0935094D0930094D
ENCODING -1
SWIDTH 255 0
DWIDTH 4 0
BBX 6 11 0 -1
BITMAP
AA80
0000
0A40
2000
2000
2000
2000
2020
0AD0
0200
0800
ENDCHAR
STARTCHAR uni0938094D0930094D
ENCODING -1
SWIDTH 347 0
DWIDTH 6 0
BBX 8 10 0 0
BITMAP
ABA8
0200
0200
0600
6EA9
2008
1424
0890
0600
0100
ENDCHAR
STARTCHAR uni0915093C094D0930094D
ENCODING -1
SWIDTH 518 0
DWIDTH 8 0
BBX 11 11 0 -1
BITMAP
AABAA4
002400
1A2AA0
202410
202400
202400
202400
1AE400
026400
091000
010000
ENDCHAR
STARTCHAR uni0916093C094D0930094D
ENCODING -1
SWIDTH 466 0
DWIDTH 7 0
BBX 10 11 0 -1
BITMAP
ABAA80
020000
020A00
022000
692000
202050
181B80
090200
020900
011400
000200
ENDCHAR
STARTCHAR uni0917093C094D0930094D
ENCODING -1
SWIDTH 264 0
DWIDTH 4 0
BBX 6 11 0 -1
BITMAP
AE40
0800
0800
0800
0810
6460
0080
0200
0900
1400
0140
ENDCHAR
STARTCHAR uni091C093C094D0930094D
ENCODING -1
SWIDTH 320 0
DWIDTH 5 0
BBX 7 11 0 -1
BITMAP
AAA4
0000
0000
2BA4
0240
0140
0144
0258
6A60
0180
5000
ENDCHAR
STARTCHAR uni0928093C094D0930094D
ENCODING -1
SWIDTH 247 0
DWIDTH 4 0
BBX 6 11 0 -1
BITMAP
AAA0
0000
0000
2AA0
6020
2050
0180
0600
0800
1000
0200
ENDCHAR
STARTCHAR uni092B093C094D0930094D
ENCODING -1
SWIDTH 523 0
DWIDTH 8 0
BBX 12 11 -1 -1
BITMAP
6EAEA9
080AA8
080A05
080900
080900
06B900
005900
018900
020900
040400
008000
ENDCHAR
STARTCHAR uni092F093C094D0930094D
ENCODING -1
SWIDTH 323 0
DWIDTH 5 0
BBX 7 12 0 -2
BITMAP
ABA0
0200
0240
0200
2900
2000
2000
2408
0AB4
0180
0600
0040
ENDCHAR
STARTCHAR uni0915094D0915
ENCODING -1
SWIDTH 1255 0
DWIDTH 20 0
BBX 21 10 0 0
BITMAP
AABAAAAEAA40
002400080000
1A2AAA8AA400
2024280C0800
202424080800
202424080800
202418180800
1AA40A98A400
002400080000
001000040000
ENDCHAR
STARTCHAR uni0915094D0916
ENCODING -1
SWIDTH 1256 0
DWIDTH 20 0
BBX 21 10 0 0
BITMAP
AABAAAEAAE40
002400800800
1A2A90864800
202420880800
20241E480800
202408081800
202406069800
1AA402400800
002400800800
001000400400
ENDCHAR
STARTCHAR uni0915094D091A
ENCODING -1
SWIDTH 1086 0
DWIDTH 17 0
BBX 18 10 0 0
BITMAP
AABAAAAB90
0024000200
10286B9200
2024090200
2024080200
2024080200
2024090700
1AA402AA00
0024000200
0010000100
ENDCHAR
STARTCHAR uni0915094D091C
ENCODING -1
SWIDTH 1071 0
DWIDTH 17 0
BBX 18 10 0 0
BITMAP
AABAAAAB90
0024000200
102A8BAA00
2024018200
2024008200
2024008200
2024008200
1AA4018200
00242A0200
0010000100
ENDCHAR
STARTCHAR uni0915094D091F
ENCODING -1
SWIDTH 984 0
DWIDTH 16 0
BBX 16 10 0 0
BITMAP
AABAAABA
00240020
1A2AA6A0
20242400
20242000
20242004
20242008
1AA42008
00241AA4
00100000
ENDCHAR
STARTCHAR uni0915094D0923
ENCODING -1
SWIDTH 1183 0
DWIDTH 19 0
BBX 19 10 0 0
BITMAP
AABABABAB8
0024202050
1A2AB02050
2024202050
2024202050
2024142050
20240A9050
1AA4000050
0024000050
0010000010
ENDCHAR
STARTCHAR uni0915094D0924
ENCODING -1
SWIDTH 761 0
DWIDTH 12 0
BBX 13 10 0 0
BITMAP
AAAEAA40
00080000
2EAAA400
080C0800
18080800
18080900
08080800
08080800
0688A400
00040000
ENDCHAR
STARTCHAR uni0915094D0925
ENCODING -1
SWIDTH 1118 0
DWIDTH 18 0
BBX 18 10 0 0
BITMAP
AABA4A91E0
0024082140
1A24046140
202AAA8140
2024200140
2024240140
2024180240
1AA406AA40
0024000140
0010000040
ENDCHAR
STARTCHAR uni0915094D0926
ENCODING -1
SWIDTH 1009 0
DWIDTH 16 0
BBX 17 10 0 0
BITMAP
AABAAAAE40
0024000800
1A2AA6A800
2024140000
2024240000
2024240400
2024140C00
1AA40AA800
0024000800
0010000400
ENDCHAR
STARTCHAR uni0915094D092A
ENCODING -1
SWIDTH 1007 0
DWIDTH 16 0
BBX 17 10 0 0
BITMAP
AABABAAE40
0024200800
1A2AB00800
2024200800
2024200800
2024141800
20240AA800
1AA4000800
0024000800
0010000400
ENDCHAR
STARTCHAR uni0915094D092B
ENCODING -1
SWIDTH 1242 0
DWIDTH 20 0
BBX 20 10 0 0
BITMAP
AABABABEAA
0024201400
1A2AB01AA0
2024201818
2024201408
2024142408
20240AA418
1AA40015A0
0024001400
0010000400
ENDCHAR
STARTCHAR uni0915094D092E
ENCODING -1
SWIDTH 994 0
DWIDTH 16 0
BBX 16 10 0 0
BITMAP
AABABABE
00242014
1A2AB014
20242014
20242AB4
20242014
20241014
1AA40014
00240014
00100004
ENDCHAR
STARTCHAR uni0915094D092F
ENCODING -1
SWIDTH 1076 0
DWIDTH 17 0
BBX 18 10 0 0
BITMAP
AABAABAB90
0024014200
1A24014200
202ABA0200
2024200200
2024200200
2024140600
1AA40AA600
0024000200
0010000100
ENDCHAR
STARTCHAR uni0915094D0932
ENCODING -1
SWIDTH 1178 0
DWIDTH 19 0
BBX 19 10 0 0
BITMAP
AABAAAAAF8
0024000050
1A2AA69A90
2024246090
2024202050
2024202050
2024200050
1AA4200050
00240A4050
0010000050
ENDCHAR
STARTCHAR uni0915094D0935
ENCODING -1
SWIDTH 1013 0
DWIDTH 16 0
BBX 17 10 0 0
BITMAP
AABAAAAE40
0024000800
1A2AA68800
2024280800
2024240800
2024240800
2024181800
1AA40A9800
0024000800
0010000400
ENDCHAR
STARTCHAR uni0915094D0936
ENCODING -1
SWIDTH 1194 0
DWIDTH 19 0
BBX 20 10 0 0
BITMAP
AABA82A439
0024051820
1A2AA00820
2024241820
20241EA020
2024080020
2024020020
1AA4014020
0024009020
0010001010
ENDCHAR
STARTCHAR uni0915094D0938
ENCODING -1
SWIDTH 1143 0
DWIDTH 18 0
BBX 19 10 0 0
BITMAP
AABAAAEAE4
0024008080
1A2AA08080
2024248080
20241FAA80
2024080080
2024050080
1AA4020080
0024018080
0010004040
ENDCHAR
STARTCHAR uni0916094D0916
ENCODING -1
SWIDTH 1223 0
DWIDTH 20 0
BBX 20 10 0 0
BITMAP
ABAAAAEABA
0200018020
021A018A20
0220015820
69203A1420
2020241830
181A880AA0
0900060020
0200024020
0100004010
ENDCHAR
STARTCHAR uni0916094D0924
ENCODING -1
SWIDTH 984 0
DWIDTH 16 0
BBX 16 10 0 0
BITMAP
ABAAAABA
02000024
021A0024
02201AB4
69202024
20202024
181AA024
09002024
02002424
01000510
ENDCHAR
STARTCHAR uni0916094D092E
ENCODING -1
SWIDTH 965 0
DWIDTH 15 0
BBX 16 10 0 0
BITMAP
ABAABAB9
02002020
021A2020
02202020
69203AB0
20206020
180A8020
09000020
02000020
01000010
ENDCHAR
STARTCHAR uni0916094D092F
ENCODING -1
SWIDTH 1047 0
DWIDTH 17 0
BBX 17 10 0 0
BITMAP
ABAAAFAF80
0200020500
021A020500
0220290500
6920600500
2020600500
181AA00900
09000AA900
0200000500
0100000400
ENDCHAR
STARTCHAR uni0916094D0935
ENCODING -1
SWIDTH 975 0
DWIDTH 16 0
BBX 16 10 0 0
BITMAP
ABAAAABA
02000020
020A1A20
02242020
69202020
20202020
18247030
090A9AA0
02000020
01000010
ENDCHAR
STARTCHAR uni0916094D0936
ENCODING -1
SWIDTH 1123 0
DWIDTH 18 0
BBX 18 10 0 0
BITMAP
ABAA1A81E0
0200205180
021A105180
0220005180
6920AA8180
2020600180
181AA40180
0900080180
0200060180
0100010040
ENDCHAR
STARTCHAR uni0917094D0917
ENCODING -1
SWIDTH 744 0
DWIDTH 12 0
BBX 12 10 0 0
BITMAP
AEAEBE
080814
080814
080814
080814
646414
000014
000014
000014
000004
ENDCHAR
STARTCHAR uni0917094D0918
ENCODING -1
SWIDTH 823 0
DWIDTH 13 0
BBX 14 10 0 0
BITMAP
AEAEAB90
08240200
08240200
080E4200
08140200
64200200
00140600
000AA600
00000200
00000100
ENDCHAR
STARTCHAR uni0917094D091C
ENCODING -1
SWIDTH 801 0
DWIDTH 13 0
BBX 13 10 0 0
BITMAP
AEAAAF80
08000500
08000500
082BAD00
08024500
64018500
00018500
00024500
006A0500
00000400
ENDCHAR
STARTCHAR uni0917094D0923
ENCODING -1
SWIDTH 945 0
DWIDTH 15 0
BBX 16 10 0 0
BITMAP
AEBABAB9
08142020
08142020
08142020
08142020
64142020
000A9020
00000020
00000020
00000010
ENDCHAR
STARTCHAR uni0917094D0926
ENCODING -1
SWIDTH 748 0
DWIDTH 12 0
BBX 12 10 0 0
BITMAP
AEAAAE
080018
080AA4
082400
082000
642004
002408
000AA8
000008
000004
ENDCHAR
STARTCHAR uni0917094D0927
ENCODING -1
SWIDTH 823 0
DWIDTH 13 0
BBX 14 10 0 0
BITMAP
AEAE1B90
08240200
08240200
080E4200
08140200
64200200
00140600
000AA600
00000200
00000100
ENDCHAR
STARTCHAR uni0917094D092C
ENCODING -1
SWIDTH 755 0
DWIDTH 12 0
BBX 13 10 0 0
BITMAP
AEAAAE40
08000800
080A4800
08280800
08220800
64209800
00242800
000AA800
00000800
00000400
ENDCHAR
STARTCHAR uni0917094D092D
ENCODING -1
SWIDTH 755 0
DWIDTH 12 0
BBX 13 10 0 0
BITMAP
AEA0AE40
08240800
08240800
08240800
082EA800
64240800
00100800
00000800
00000800
00000400
ENDCHAR
STARTCHAR uni0917094D092E
ENCODING -1
SWIDTH 754 0
DWIDTH 12 0
BBX 13 10 0 0
BITMAP
AEBAAE40
08241800
08241800
08241800
082EA800
64241800
00101800
00001800
00001800
00000400
ENDCHAR
STARTCHAR uni0917094D092F
ENCODING -1
SWIDTH 828 0
DWIDTH 13 0
BBX 14 10 0 0
BITMAP
AEABAB90
08014200
08014200
082A0200
08200200
64200200
00180600
0006A600
00000200
00000100
ENDCHAR
STARTCHAR uni0917094D0932
ENCODING -1
SWIDTH 924 0
DWIDTH 15 0
BBX 15 10 0 0
BITMAP
AEAAAAF8
08000050
080A9A90
08246090
08206050
64206050
00200050
00200050
001A4050
00000040
ENDCHAR
STARTCHAR uni0917094D0935
ENCODING -1
SWIDTH 747 0
DWIDTH 12 0
BBX 12 10 0 0
BITMAP
AEAAAE
080018
080A58
082418
082018
642018
002428
000AA8
000018
000004
ENDCHAR
STARTCHAR uni0917094D0938
ENCODING -1
SWIDTH 839 0
DWIDTH 13 0
BBX 14 10 0 0
BITMAP
AEABAB90
08020200
08020200
08020200
087EAB00
64200200
00180200
00090200
00020200
00010100
ENDCHAR
STARTCHAR uni0918094D092E
ENCODING -1
SWIDTH 818 0
DWIDTH 13 0
BBX 14 10 0 0
BITMAP
BEAEAB90
20050200
20050200
1E450200
2007AA00
20050200
24090200
1AA40200
00000200
00000100
ENDCHAR
STARTCHAR uni0918094D092F
ENCODING -1
SWIDTH 867 0
DWIDTH 14 0
BBX 14 10 0 0
BITMAP
BEABEBE0
20008140
20008140
1E4A4140
20080140
20080140
24090240
1AA6AA40
00000140
00000140
ENDCHAR
STARTCHAR uni091A094D091A
ENCODING -1
SWIDTH 868 0
DWIDTH 14 0
BBX 14 10 0 0
BITMAP
AAAAABE0
00000140
6A5BA140
08060140
14050140
14050140
080A0240
06A5AA40
00000140
00000140
ENDCHAR
STARTCHAR uni091A094D091B
ENCODING -1
SWIDTH 922 0
DWIDTH 15 0
BBX 15 9 0 1
BITMAP
AAABAAE8
00060080
00050080
6A8602C0
0802D050
14060060
18090060
06AA0050
0002AA80
ENDCHAR
STARTCHAR uni091A094D092E
ENCODING -1
SWIDTH 830 0
DWIDTH 13 0
BBX 14 10 0 0
BITMAP
AAAFAB90
00050200
6A850200
08050200
1407AA00
14050200
08090200
06A80200
00000200
00000100
ENDCHAR
STARTCHAR uni091A094D092F
ENCODING -1
SWIDTH 904 0
DWIDTH 14 0
BBX 15 10 0 0
BITMAP
AAAAEAE4
00006080
6A806080
08068080
14050080
14050080
080A01C0
06A5AA80
00000080
00000040
ENDCHAR
STARTCHAR uni091B094D092F
ENCODING -1
SWIDTH 1068 0
DWIDTH 17 0
BBX 18 10 0 0
BITMAP
AEAAAAAB90
2000000200
201BAA4200
2402008200
0E02008200
24021A4600
2002180A00
200206A600
1AA9000200
0000000100
ENDCHAR
STARTCHAR uni091B094D0935
ENCODING -1
SWIDTH 581 0
DWIDTH 9 0
BBX 10 12 0 -2
BITMAP
AEAB90
200200
201A00
240200
0E0200
200200
200200
1EAA00
180200
140200
080900
06A800
ENDCHAR
STARTCHAR uni091C094D0915
ENCODING -1
SWIDTH 1054 0
DWIDTH 17 0
BBX 17 10 0 0
BITMAP
AAAAAFAA80
0000050000
000296A800
2BAD060600
0248050200
0148050200
0149090600
0242A96800
6A00050000
0000010000
ENDCHAR
STARTCHAR uni091C094D091C
ENCODING -1
SWIDTH 903 0
DWIDTH 14 0
BBX 15 10 0 0
BITMAP
AAAAAAE4
00000080
00000080
2BA2AAC0
02402080
01402080
01402080
02402080
6A0A9080
00000040
ENDCHAR
STARTCHAR uni091C094D091D
ENCODING -1
SWIDTH 990 0
DWIDTH 16 0
BBX 16 10 0 0
BITMAP
AAAAAEBE
00000814
0002A814
2BAD0014
02490014
0142AEB4
01480914
02490914
6A0AA814
00080014
ENDCHAR
STARTCHAR uni091C094D091F
ENCODING -1
SWIDTH 815 0
DWIDTH 13 0
BBX 13 9 0 1
BITMAP
AAAAAF80
00000500
0002A900
2BAD0000
02080000
01480000
01480140
02490200
6A02A900
ENDCHAR
STARTCHAR uni091C094D0921
ENCODING -1
SWIDTH 797 0
DWIDTH 13 0
BBX 13 10 0 0
BITMAP
AAAAAE80
00000500
0002A900
2BAD0000
02490000
0146A900
02400600
6A080200
00065A00
00015400
ENDCHAR
STARTCHAR uni091C094D0924
ENCODING -1
SWIDTH 830 0
DWIDTH 13 0
BBX 14 10 0 0
BITMAP
AAAAAB90
00000200
00000200
2BAAAA00
02090200
01480200
01480200
02490200
69064200
00014100
ENDCHAR
STARTCHAR uni091C094D0926
ENCODING -1
SWIDTH 817 0
DWIDTH 13 0
BBX 14 10 0 0
BITMAP
AAAAAB90
00000200
0001AA00
2BA90000
02480000
01480100
01490200
0242AA00
6A000200
00000100
ENDCHAR
STARTCHAR uni091C094D092C
ENCODING -1
SWIDTH 820 0
DWIDTH 13 0
BBX 14 10 0 0
BITMAP
AAAAAB90
00000200
00029200
2BAE0200
02488200
01482600
01490A00
0242AA00
6A000200
00000100
ENDCHAR
STARTCHAR uni091C094D092E
ENCODING -1
SWIDTH 813 0
DWIDTH 13 0
BBX 13 10 0 0
BITMAP
AAAEAB80
00090600
00090600
2BAD0600
024AAA00
01490600
01490600
02400600
6A000600
00000100
ENDCHAR
STARTCHAR uni091C094D092F
ENCODING -1
SWIDTH 893 0
DWIDTH 14 0
BBX 15 10 0 0
BITMAP
AAAAEAE4
00005080
2BA85080
020A8080
01480080
01490080
01460180
0241A980
69000080
00000040
ENDCHAR
STARTCHAR uni091C094D0935
ENCODING -1
SWIDTH 813 0
DWIDTH 13 0
BBX 13 10 0 0
BITMAP
AAAAAB80
00000600
00029600
2BAD0600
02480600
01480600
01490600
0242AA00
6A000600
00000100
ENDCHAR
STARTCHAR uni091D094D092E
ENCODING -1
SWIDTH 936 0
DWIDTH 15 0
BBX 15 10 0 0
BITMAP
AABAEAB8
00209060
1A909060
20009060
1ABAEAE0
00209060
20204060
30200060
2A900060
20000010
ENDCHAR
STARTCHAR uni091D094D092F
ENCODING -1
SWIDTH 1000 0
DWIDTH 16 0
BBX 16 10 0 0
BITMAP
AABAAEAE
00200818
1A900918
2000A818
1ABA8018
00208018
20209028
30202A98
2A900018
20000004
ENDCHAR
STARTCHAR uni091E094D091B
ENCODING -1
SWIDTH 913 0
DWIDTH 15 0
BBX 15 9 0 1
BITMAP
AAABAAE8
00050080
2A050080
018506C0
00EB9050
00860050
01450050
6A050090
0002AA80
ENDCHAR
STARTCHAR uni091E094D091C
ENCODING -1
SWIDTH 932 0
DWIDTH 15 0
BBX 15 10 0 0
BITMAP
AAAAAAF8
00000050
00000050
2A01BAD0
01801450
00E40850
01800850
6A001450
0006A050
00000010
ENDCHAR
STARTCHAR uni091E094D0936
ENCODING -1
SWIDTH 975 0
DWIDTH 16 0
BBX 16 10 0 0
BITMAP
AAA1A82A
00020820
2A020820
01800820
00EAA420
00820020
01414020
6A008020
00002020
00001010
ENDCHAR
STARTCHAR uni091F094D091F
ENCODING -1
SWIDTH 494 0
DWIDTH 8 0
BBX 8 14 0 -4
BITMAP
AABA
0020
0AA0
2000
2000
2008
2008
0AB0
0160
1A90
2000
2004
2008
1AA0
ENDCHAR
STARTCHAR uni091F094D0920
ENCODING -1
SWIDTH 495 0
DWIDTH 8 0
BBX 8 14 0 -4
BITMAP
AABA
0020
0AA0
2000
2000
2008
2008
0AB4
0160
1AA4
2008
2008
2008
0AA4
ENDCHAR
STARTCHAR uni091F094D092F
ENCODING -1
SWIDTH 990 0
DWIDTH 16 0
BBX 16 10 0 0
BITMAP
AABAAABE
00200014
0ABAA814
24000614
20000514
20046814
20085014
20086024
1AA42AA4
00000004
ENDCHAR
STARTCHAR uni091F094D0935
ENCODING -1
SWIDTH 501 0
DWIDTH 8 0
BBX 8 12 0 -2
BITMAP
AABA
0024
0024
0AA0
2400
2000
2008
2408
1EA8
2008
2418
0AA0
ENDCHAR
STARTCHAR uni0920094D092F
ENCODING -1
SWIDTH 998 0
DWIDTH 16 0
BBX 16 10 0 0
BITMAP
AABAAAAE
00240018
0AB2A818
241D0618
20080618
20086818
20085018
20086028
1AA41AA8
00000004
ENDCHAR
STARTCHAR uni0921094D0921
ENCODING -1
SWIDTH 493 0
DWIDTH 8 0
BBX 8 15 0 -5
BITMAP
AABA
0024
1AA0
2000
2000
1AA4
1018
2018
1EA0
2000
2000
1AA4
1018
2018
1AA0
ENDCHAR
STARTCHAR uni0921094D0922
ENCODING -1
SWIDTH 493 0
DWIDTH 8 0
BBX 8 14 0 -4
BITMAP
AABA
0024
1AA0
2000
2000
1AA4
1018
2018
1EA0
20A8
2088
2048
2008
0AA4
ENDCHAR
STARTCHAR uni0921094D092F
ENCODING -1
SWIDTH 973 0
DWIDTH 16 0
BBX 16 10 0 0
BITMAP
AABAAABA
00200020
1ABAA820
20000920
20000820
1AA0A420
00188030
20182AA0
25640020
05500010
ENDCHAR
STARTCHAR uni0921094D0935
ENCODING -1
SWIDTH 493 0
DWIDTH 8 0
BBX 8 12 0 -2
BITMAP
AABA
0024
1AA0
2000
2000
1AA4
1018
2018
1EA8
2408
2418
0AA0
ENDCHAR
STARTCHAR uni0922094D092F
ENCODING -1
SWIDTH 981 0
DWIDTH 16 0
BBX 16 10 0 0
BITMAP
AABAAABA
00200024
0ABAA824
24000924
20000924
20A4A824
20888024
20085034
1AA42AA4
00000010
ENDCHAR
STARTCHAR uni0923094D091F
ENCODING -1
SWIDTH 908 0
DWIDTH 15 0
BBX 15 9 0 1
BITMAP
BABAAAE8
20200080
20206A80
20208000
20208000
24208000
0A908020
00008060
00006A80
ENDCHAR
STARTCHAR uni0923094D0920
ENCODING -1
SWIDTH 936 0
DWIDTH 15 0
BBX 15 9 0 1
BITMAP
BABAAAE8
20200080
20206A80
20208060
20208020
24208020
0A908020
00008060
00006A80
ENDCHAR
STARTCHAR uni0923094D0921
ENCODING -1
SWIDTH 892 0
DWIDTH 14 0
BBX 15 10 0 0
BITMAP
BABAAAE4
20200080
20206A80
20208000
20208000
24206A80
0A900090
00004090
00009580
00005940
ENDCHAR
STARTCHAR uni0923094D0922
ENCODING -1
SWIDTH 908 0
DWIDTH 15 0
BBX 15 9 0 1
BITMAP
BABAAAE8
20200080
20206A80
20208000
20208000
24208290
0A908520
00008020
00006A90
ENDCHAR
STARTCHAR uni0923094D0923
ENCODING -1
SWIDTH 1127 0
DWIDTH 18 0
BBX 18 10 0 0
BITMAP
BABAEAEAE0
2020908180
2020908180
2020908180
2020908180
2420508180
0A902A4180
0000000180
0000000180
0000000040
ENDCHAR
STARTCHAR uni0923094D092E
ENCODING -1
SWIDTH 932 0
DWIDTH 15 0
BBX 15 10 0 0
BITMAP
BABAEAF8
20208050
20208050
20208050
2020AAD0
24208050
0A908050
00000050
00000050
00000010
ENDCHAR
STARTCHAR uni0923094D092F
ENCODING -1
SWIDTH 998 0
DWIDTH 16 0
BBX 16 10 0 0
BITMAP
BABAAEAE
20200818
20200818
2020A418
20208018
24208018
0A909028
00002AA8
00000018
00000004
ENDCHAR
STARTCHAR uni0923094D0935
ENCODING -1
SWIDTH 923 0
DWIDTH 15 0
BBX 15 10 0 0
BITMAP
BABAAAF8
20200050
20206950
20208050
20208050
24208050
0A908090
00006A90
00000050
00000040
ENDCHAR
STARTCHAR uni0924094D0915
ENCODING -1
SWIDTH 992 0
DWIDTH 16 0
BBX 16 10 0 0
BITMAP
AAAABEAA
00001400
000A5AA0
1AB41818
20201408
20201408
20242418
200AA5A0
25001400
05000400
ENDCHAR
STARTCHAR uni0924094D0916
ENCODING -1
SWIDTH 1014 0
DWIDTH 16 0
BBX 17 10 0 0
BITMAP
AAAAEAAE40
0000900800
1AA0928800
2020890800
201E480800
2008091800
2006029800
2002400800
2900800800
0500500400
ENDCHAR
STARTCHAR uni0924094D0924
ENCODING -1
SWIDTH 542 0
DWIDTH 9 0
BBX 9 10 0 0
BITMAP
AAAE80
000900
000900
6EAD00
080900
180900
180900
180900
090900
014400
ENDCHAR
STARTCHAR uni0924094D0925
ENCODING -1
SWIDTH 869 0
DWIDTH 14 0
BBX 14 10 0 0
BITMAP
AA4A91E0
00082140
00006140
1AAA8140
20200140
20240140
20180240
2006AA40
25000140
05000040
ENDCHAR
STARTCHAR uni0924094D092A
ENCODING -1
SWIDTH 757 0
DWIDTH 12 0
BBX 13 10 0 0
BITMAP
AABAAE40
00200800
00200800
1AB00800
20200800
20141800
200AA800
20000800
25000800
05000400
ENDCHAR
STARTCHAR uni0924094D092B
ENCODING -1
SWIDTH 992 0
DWIDTH 16 0
BBX 16 10 0 0
BITMAP
AABABEAA
00201400
00201AA0
1AB01818
20201408
20142408
200AA418
200015A0
25001400
05000400
ENDCHAR
STARTCHAR uni0924094D092E
ENCODING -1
SWIDTH 764 0
DWIDTH 12 0
BBX 13 10 0 0
BITMAP
AABEAE40
00140800
00140800
1AB40800
201EA800
20140800
20140800
20000800
25000800
05000400
ENDCHAR
STARTCHAR uni0924094D092F
ENCODING -1
SWIDTH 830 0
DWIDTH 13 0
BBX 14 10 0 0
BITMAP
AAABAB90
00014200
00014200
1ABA0200
20200200
20200200
20180600
2006A600
25000200
05000100
ENDCHAR
STARTCHAR uni0924094D0932
ENCODING -1
SWIDTH 957 0
DWIDTH 15 0
BBX 16 10 0 0
BITMAP
AAAAAAB9
00000020
1A969AA0
20282470
20142020
20142020
20140020
20180020
290A8020
05000010
ENDCHAR
STARTCHAR uni0924094D0935
ENCODING -1
SWIDTH 751 0
DWIDTH 12 0
BBX 12 10 0 0
BITMAP
AAAAAE
000018
000A58
1AB418
202018
202018
202418
200AA8
250018
050004
ENDCHAR
STARTCHAR uni0924094D0938
ENCODING -1
SWIDTH 876 0
DWIDTH 14 0
BBX 14 10 0 0
BITMAP
AAAAEAE0
00018180
1A918180
20214180
202BAA80
20180180
20090180
20020180
29024180
05004040
ENDCHAR
STARTCHAR uni0925094D092F
ENCODING -1
SWIDTH 931 0
DWIDTH 15 0
BBX 14 10 1 0
BITMAP
6A1BEBE0
92408140
42408140
AA0A4140
80080140
80080140
901D0240
2AA2AA40
00000140
00000040
ENDCHAR
STARTCHAR uni0925094D0935
ENCODING -1
SWIDTH 862 0
DWIDTH 14 0
BBX 13 10 1 0
BITMAP
2A1AAF80
92400500
42429500
AA080500
80080500
80080500
901C0900
2AA6A900
00000500
00000400
ENDCHAR
STARTCHAR uni0926094D0917
ENCODING -1
SWIDTH 489 0
DWIDTH 8 0
BBX 8 11 0 -1
BITMAP
AABE
0014
0AA4
2400
2004
2008
2418
0BA8
0208
0604
2800
ENDCHAR
STARTCHAR uni0926094D0918
ENCODING -1
SWIDTH 686 0
DWIDTH 11 0
BBX 11 10 0 0
BITMAP
AAAAB8
000060
002A90
1AD000
208000
208010
2D9020
202AA0
202020
1A9010
ENDCHAR
STARTCHAR uni0926094D0926
ENCODING -1
SWIDTH 506 0
DWIDTH 8 0
BBX 9 10 0 0
BITMAP
AAAE40
001800
1AA400
200000
200000
1E8000
200800
200C00
1AAC00
000800
ENDCHAR
STARTCHAR uni0926094D0927
ENCODING -1
SWIDTH 686 0
DWIDTH 11 0
BBX 11 10 0 0
BITMAP
AAAAB8
000060
002A90
189000
208000
208010
2D9020
202AA0
202020
1A9010
ENDCHAR
STARTCHAR uni0926094D092C
ENCODING -1
SWIDTH 481 0
DWIDTH 8 0
BBX 8 12 0 -2
BITMAP
AABE
0014
0AA4
2400
2000
2000
2008
2418
1EA8
2608
20A4
1AA0
ENDCHAR
STARTCHAR uni0926094D092D
ENCODING -1
SWIDTH 499 0
DWIDTH 8 0
BBX 8 13 0 -3
BITMAP
AAAE
0014
0AA4
2400
2000
2014
2424
0AA4
6414
0814
0EA4
0814
0014
ENDCHAR
STARTCHAR uni0926094D092E
ENCODING -1
SWIDTH 706 0
DWIDTH 11 0
BBX 12 10 0 0
BITMAP
AABAB9
1AA020
300020
200020
202020
103020
002AA0
002020
002020
000010
ENDCHAR
STARTCHAR uni0926094D092F
ENCODING -1
SWIDTH 583 0
DWIDTH 9 0
BBX 10 10 0 0
BITMAP
AAEB90
1A8200
200200
200200
1E4200
200200
200200
200300
1AAA00
000100
ENDCHAR
STARTCHAR uni0926094D0935
ENCODING -1
SWIDTH 483 0
DWIDTH 8 0
BBX 8 12 0 -2
BITMAP
AABE
0014
0AA4
2400
2000
2000
2008
2418
0EA8
2408
2414
0AA0
ENDCHAR
STARTCHAR uni0927094D092E
ENCODING -1
SWIDTH 817 0
DWIDTH 13 0
BBX 14 10 0 0
BITMAP
BE1FAB90
20050200
20050200
1E450200
2007AA00
20050200
24090200
0AA80200
00000200
00000100
ENDCHAR
STARTCHAR uni0927094D092F
ENCODING -1
SWIDTH 886 0
DWIDTH 14 0
BBX 15 10 0 0
BITMAP
BE1AEAE4
20005080
20009080
1E4A8080
20080080
20080080
24090180
1AA5A980
00000080
00000040
ENDCHAR
STARTCHAR uni0927094D0935
ENCODING -1
SWIDTH 810 0
DWIDTH 13 0
BBX 13 10 0 0
BITMAP
BE1AAB80
20000500
20029500
1E490500
20080500
20080500
24090900
0AA6A900
00000500
00000100
ENDCHAR
STARTCHAR uni0928094D0915
ENCODING -1
SWIDTH 973 0
DWIDTH 16 0
BBX 16 10 0 0
BITMAP
AAAABAAA
00002000
001A2AA0
2AB02414
50202018
50202018
00203014
001AA1A0
00002000
00001000
ENDCHAR
STARTCHAR uni0928094D091A
ENCODING -1
SWIDTH 820 0
DWIDTH 13 0
BBX 14 10 0 0
BITMAP
AAAAAB90
00000200
002B8200
00080200
2A980200
60180200
50080600
0006A600
00000200
00000100
ENDCHAR
STARTCHAR uni0928094D091B
ENCODING -1
SWIDTH 781 0
DWIDTH 13 0
BBX 13 9 0 1
BITMAP
AABAAE80
00500800
00900800
00506800
2AB90900
60500500
10900500
00500900
002AA800
ENDCHAR
STARTCHAR uni0928094D091F
ENCODING -1
SWIDTH 715 0
DWIDTH 11 0
BBX 12 9 0 1
BITMAP
AAAAB9
000020
001AA0
2AA000
506000
506004
006008
002014
001AA0
ENDCHAR
STARTCHAR uni0928094D0921
ENCODING -1
SWIDTH 705 0
DWIDTH 11 0
BBX 12 10 0 0
BITMAP
AAAAB9
000020
002AA0
2AA000
502000
501AA0
100024
001024
002560
000650
ENDCHAR
STARTCHAR uni0928094D0924
ENCODING -1
SWIDTH 717 0
DWIDTH 11 0
BBX 12 10 0 0
BITMAP
AAAAB9
000020
000020
2ABAB0
506020
505020
005020
005020
002420
000410
ENDCHAR
STARTCHAR uni0928094D0925
ENCODING -1
SWIDTH 804 0
DWIDTH 13 0
BBX 13 10 0 0
BITMAP
A92A4780
00608500
00018500
2AEA0500
50800500
50900500
10600900
001AA900
00000500
00000500
ENDCHAR
STARTCHAR uni0928094D0926
ENCODING -1
SWIDTH 724 0
DWIDTH 12 0
BBX 12 10 0 0
BITMAP
AAAABA
000020
001AA0
2AB000
502000
502004
002024
001AA4
000014
000004
ENDCHAR
STARTCHAR uni0928094D0927
ENCODING -1
SWIDTH 753 0
DWIDTH 12 0
BBX 13 10 0 0
BITMAP
AAB8AE40
00801800
00801800
2AF91800
50901800
50801800
00901800
002AA800
00001800
00000400
ENDCHAR
STARTCHAR uni0928094D092A
ENCODING -1
SWIDTH 742 0
DWIDTH 12 0
BBX 12 10 0 0
BITMAP
AABABE
002014
002014
002014
2AB014
602424
200AA4
000014
000014
000004
ENDCHAR
STARTCHAR uni0928094D092B
ENCODING -1
SWIDTH 970 0
DWIDTH 16 0
BBX 16 10 0 0
BITMAP
AABABAAA
00202000
00202AA0
2AA02424
50202018
50203018
100AA024
000022A0
00002000
00001000
ENDCHAR
STARTCHAR uni0928094D092D
ENCODING -1
SWIDTH 739 0
DWIDTH 12 0
BBX 12 10 0 0
BITMAP
AA90BE
002014
002014
002014
2ABAB4
602014
102014
000014
000014
000010
ENDCHAR
STARTCHAR uni0928094D092E
ENCODING -1
SWIDTH 735 0
DWIDTH 12 0
BBX 12 10 0 0
BITMAP
AABABE
002014
002014
002014
2ABAB4
602014
102014
000014
000014
000010
ENDCHAR
STARTCHAR uni0928094D092F
ENCODING -1
SWIDTH 801 0
DWIDTH 13 0
BBX 13 10 0 0
BITMAP
AAAFAF80
00020500
00020500
2AA90500
50200500
50200500
00200900
000AA900
00000500
00000400
ENDCHAR
STARTCHAR uni0928094D0935
ENCODING -1
SWIDTH 732 0
DWIDTH 12 0
BBX 12 10 0 0
BITMAP
AAAABA
000024
001A64
2AB024
502024
502024
002024
001AA4
000024
000010
ENDCHAR
STARTCHAR uni0928094D0938
ENCODING -1
SWIDTH 867 0
DWIDTH 14 0
BBX 14 10 0 0
BITMAP
AAABEBE0
00014140
00014140
2A924140
502BAB40
50140140
00080140
00060140
00024140
00004140
ENDCHAR
STARTCHAR uni0928094D0939
ENCODING -1
SWIDTH 714 0
DWIDTH 11 0
BBX 12 11 0 -1
BITMAP
AAAAB9
000020
001AA0
002000
2AA000
602000
601EA0
102024
002010
002000
001AA0
ENDCHAR
STARTCHAR uni092A094D091F
ENCODING -1
SWIDTH 489 0
DWIDTH 8 0
BBX 8 10 0 0
BITMAP
BAAE
2008
2008
2408
1EA4
2000
2004
2008
2968
0550
ENDCHAR
STARTCHAR uni092A094D0920
ENCODING -1
SWIDTH 506 0
DWIDTH 8 0
BBX 9 10 0 0
BITMAP
BAAE40
200800
200800
241800
0EB400
200800
200800
200800
295800
055000
ENDCHAR
STARTCHAR uni092A094D0924
ENCODING -1
SWIDTH 495 0
DWIDTH 8 0
BBX 8 10 0 0
BITMAP
BABE
2014
2014
2414
1EB4
2014
2014
2014
2514
0504
ENDCHAR
STARTCHAR uni092A094D092A
ENCODING -1
SWIDTH 770 0
DWIDTH 12 0
BBX 13 10 0 0
BITMAP
BABEAE40
20140800
20140800
20140800
20140800
24281C00
0A96A800
00000800
00000800
00000400
ENDCHAR
STARTCHAR uni092A094D092B
ENCODING -1
SWIDTH 1003 0
DWIDTH 16 0
BBX 16 10 0 0
BITMAP
BABEAEAA
20140800
20140AA4
20140C08
20140808
24281808
0A969808
000008A4
00000800
00000400
ENDCHAR
STARTCHAR uni092A094D092E
ENCODING -1
SWIDTH 774 0
DWIDTH 12 0
BBX 13 10 0 0
BITMAP
BAAEAE40
20180800
20180800
20180800
241EAC00
0AA80800
00040800
00000800
00000800
00000400
ENDCHAR
STARTCHAR uni092A094D092F
ENCODING -1
SWIDTH 855 0
DWIDTH 14 0
BBX 14 10 0 0
BITMAP
BAABEBA0
20008240
20008240
201A4240
20180240
24280240
0AA80340
0006AA40
00000240
00000100
ENDCHAR
STARTCHAR uni092A094D0932
ENCODING -1
SWIDTH 960 0
DWIDTH 15 0
BBX 16 10 0 0
BITMAP
BAAAAAB9
20000020
20069AA0
20082430
20142420
24242020
0AA41020
00180020
000A8020
00000010
ENDCHAR
STARTCHAR uni092A094D0935
ENCODING -1
SWIDTH 780 0
DWIDTH 12 0
BBX 13 10 0 0
BITMAP
BAAAAE40
20000800
20068800
20080800
20180800
24180800
0AA80C00
0006A800
00000800
00000400
ENDCHAR
STARTCHAR uni092A094D0938
ENCODING -1
SWIDTH 880 0
DWIDTH 14 0
BBX 15 10 0 0
BITMAP
BAAAEAE4
20008180
20008180
20014180
201BAA80
24280180
0A990180
00020180
00024180
00004040
ENDCHAR
STARTCHAR uni092B094D091C
ENCODING -1
SWIDTH 1100 0
DWIDTH 18 0
BBX 18 10 0 0
BITMAP
BABEAAABA0
2014000200
201A96AB00
2018008200
2014005200
2424005200
0AA4005200
0014008200
00142A4200
0014000100
ENDCHAR
STARTCHAR uni092B094D091F
ENCODING -1
SWIDTH 1006 0
DWIDTH 16 0
BBX 17 10 0 0
BITMAP
BABEAABE40
2014001400
201AA6A400
2018180000
2014240000
2424240000
0AA4240500
0014140900
00140AA800
0014000000
ENDCHAR
STARTCHAR uni092B094D0924
ENCODING -1
SWIDTH 1034 0
DWIDTH 17 0
BBX 17 10 0 0
BITMAP
BABEAAAE80
2014000800
201AA00800
20181AAC00
2014180800
2424140800
0AA4140800
0014140800
0014090800
0014014400
ENDCHAR
STARTCHAR uni092B094D092A
ENCODING -1
SWIDTH 1021 0
DWIDTH 16 0
BBX 17 10 0 0
BITMAP
BABEBEAE40
2014140800
201AB40800
2018140800
2014140800
2424181C00
0AA406A800
0014000800
0014000800
0014000400
ENDCHAR
STARTCHAR uni092B094D092B
ENCODING -1
SWIDTH 1256 0
DWIDTH 20 0
BBX 21 10 0 0
BITMAP
BABEBEAEAA40
201414080000
201AB40AA400
2018140C0800
201414080800
242418180800
0AA406980800
00140008A400
001400080000
001400040000
ENDCHAR
STARTCHAR uni092B094D092F
ENCODING -1
SWIDTH 1120 0
DWIDTH 18 0
BBX 18 10 0 0
BITMAP
BABEABAB90
2014008200
2014018200
201AAA0200
2018140200
2424140200
0AA4180700
001406AA00
0014000200
0014000100
ENDCHAR
STARTCHAR uni092B094D0932
ENCODING -1
SWIDTH 1202 0
DWIDTH 19 0
BBX 20 10 0 0
BITMAP
BABEAAAAB9
2014000020
201AA69AA0
2018183460
2014142020
2424142020
0AA4141020
0014180020
00140A8020
0014000010
ENDCHAR
STARTCHAR uni092B094D0936
ENCODING -1
SWIDTH 1211 0
DWIDTH 19 0
BBX 20 10 0 0
BITMAP
BABEA2A429
2014060820
201A910820
2018240820
20141EA420
2424080020
0AA4060020
0014024020
0014008020
0014004010
ENDCHAR
STARTCHAR uni092C094D091C
ENCODING -1
SWIDTH 883 0
DWIDTH 14 0
BBX 15 10 0 0
BITMAP
AAAAAAE4
00000080
0A400080
2806EA80
29006080
22002080
20802080
20206080
0AAA8080
00000040
ENDCHAR
STARTCHAR uni092C094D091D
ENCODING -1
SWIDTH 962 0
DWIDTH 15 0
BBX 16 11 0 -1
BITMAP
AAAABEB9
0A4AA420
24180020
29140020
22180020
209AAAB0
20240820
0AA00820
00095820
00095010
00080000
ENDCHAR
STARTCHAR uni092C094D0924
ENCODING -1
SWIDTH 786 0
DWIDTH 13 0
BBX 13 10 0 0
BITMAP
AAAAAE80
00000800
1A400800
2806AC00
22180800
20940800
20340800
1AA80800
00090800
00014400
ENDCHAR
STARTCHAR uni092C094D0926
ENCODING -1
SWIDTH 775 0
DWIDTH 12 0
BBX 13 10 0 0
BITMAP
AAAAAE40
00000800
1A46A800
28080000
22140000
20940400
20280900
1A96A900
00000900
00000400
ENDCHAR
STARTCHAR uni092C094D0927
ENCODING -1
SWIDTH 844 0
DWIDTH 14 0
BBX 14 10 0 0
BITMAP
AAAE1B90
00180200
1A580200
240B8200
21080200
20940200
20380300
1A96AA00
00000200
00000100
ENDCHAR
STARTCHAR uni092C094D092C
ENCODING -1
SWIDTH 783 0
DWIDTH 13 0
BBX 13 10 0 0
BITMAP
AAAAAE80
00000800
1A468800
280D0800
26154800
20946800
20381C00
1A96A800
00000800
00000400
ENDCHAR
STARTCHAR uni092C094D092D
ENCODING -1
SWIDTH 764 0
DWIDTH 12 0
BBX 13 10 0 0
BITMAP
AAA06E40
00140800
1A540800
28140800
221EA800
20940800
20340800
1AA00800
00000800
00000400
ENDCHAR
STARTCHAR uni092C094D092F
ENCODING -1
SWIDTH 852 0
DWIDTH 14 0
BBX 14 10 0 0
BITMAP
AAABEBA0
00008200
1A408200
241A4200
22140200
20980200
20280300
1A96AA00
00000200
00000100
ENDCHAR
STARTCHAR uni092C094D0932
ENCODING -1
SWIDTH 961 0
DWIDTH 15 0
BBX 16 10 0 0
BITMAP
AAAAAAB9
00000020
14069AA0
29082430
22542420
20A42020
20340020
1A980020
00068020
00000010
ENDCHAR
STARTCHAR uni092C094D0935
ENCODING -1
SWIDTH 776 0
DWIDTH 12 0
BBX 13 10 0 0
BITMAP
AAAAAE40
00000800
1A468800
28080800
26140800
20940800
20280C00
1A96A800
00000800
00000400
ENDCHAR
STARTCHAR uni092C094D0936
ENCODING -1
SWIDTH 926 0
DWIDTH 15 0
BBX 15 10 0 0
BITMAP
AA86A078
00081450
1A481450
28002450
221EA050
209C0050
20360050
1A924050
00008050
00005040
ENDCHAR
STARTCHAR uni092C094D0938
ENCODING -1
SWIDTH 897 0
DWIDTH 14 0
BBX 15 10 0 0
BITMAP
AAAAEAE4
00008080
1A408080
28008080
221FAAC0
209C0080
20360080
1A920080
00018080
00004040
ENDCHAR
STARTCHAR uni092D094D092F
ENCODING -1
SWIDTH 827 0
DWIDTH 13 0
BBX 14 10 0 0
BITMAP
90ABAB90
20014200
20014200
202A0200
2AB00200
20200200
10180600
000AA600
00000200
00000100
ENDCHAR
STARTCHAR uni092D094D0932
ENCODING -1
SWIDTH 941 0
DWIDTH 15 0
BBX 15 10 0 0
BITMAP
90AAAAB8
20000060
200A8AA0
20147060
2AB02060
20202060
20201060
00240060
000A4060
00000010
ENDCHAR
STARTCHAR uni092D094D0935
ENCODING -1
SWIDTH 755 0
DWIDTH 12 0
BBX 13 10 0 0
BITMAP
90AAAE40
20000800
200A4800
20240800
2AB00800
20200800
10241800
000AA800
00000800
00000400
ENDCHAR
STARTCHAR uni092E094D0924
ENCODING -1
SWIDTH 765 0
DWIDTH 12 0
BBX 13 10 0 0
BITMAP
BAAAAE40
20000800
20000800
200AA800
2AB40800
20200800
10200800
00200800
00190800
00050400
ENDCHAR
STARTCHAR uni092E094D0926
ENCODING -1
SWIDTH 766 0
DWIDTH 12 0
BBX 13 10 0 0
BITMAP
BAAAAE40
20000800
200AA800
20180000
2AB40000
20140400
10180800
000AA800
00000800
00000400
ENDCHAR
STARTCHAR uni092E094D092A
ENCODING -1
SWIDTH 762 0
DWIDTH 12 0
BBX 13 10 0 0
BITMAP
BABAAE40
20240800
20240800
20240800
2AB40800
20141800
200A9800
00000800
00000800
00000400
ENDCHAR
STARTCHAR uni092E094D092C
ENCODING -1
SWIDTH 768 0
DWIDTH 12 0
BBX 13 10 0 0
BITMAP
BAAAAE40
20000800
200A8800
20190800
2AB54800
20245800
10141800
000AA800
00000800
00000400
ENDCHAR
STARTCHAR uni092E094D092D
ENCODING -1
SWIDTH 768 0
DWIDTH 12 0
BBX 13 10 0 0
BITMAP
BAA06E40
20140800
20140800
20140800
2AAEA800
20140800
20140800
00000800
00000800
00000400
ENDCHAR
STARTCHAR uni092E094D092E
ENCODING -1
SWIDTH 759 0
DWIDTH 12 0
BBX 13 10 0 0
BITMAP
BABEAE40
20140800
20140800
20140800
2ABEA800
20140800
20140800
00000800
00000800
00000400
ENDCHAR
STARTCHAR uni092E094D092F
ENCODING -1
SWIDTH 834 0
DWIDTH 13 0
BBX 14 10 0 0
BITMAP
BAABAB90
20014200
20014200
202A0200
2AB40200
20240200
20180700
0006A600
00000200
00000100
ENDCHAR
STARTCHAR uni092E094D0932
ENCODING -1
SWIDTH 945 0
DWIDTH 15 0
BBX 16 10 0 0
BITMAP
BAAAAAB9
20000020
200A8AA0
20143460
2AB42020
20242020
20241020
00140020
000A8020
00000010
ENDCHAR
STARTCHAR uni092E094D0935
ENCODING -1
SWIDTH 761 0
DWIDTH 12 0
BBX 13 10 0 0
BITMAP
BAAAAE40
20000800
200A8800
20140800
2AB40800
20240800
10141800
000A9800
00000800
00000400
ENDCHAR
STARTCHAR uni092E094D0936
ENCODING -1
SWIDTH 884 0
DWIDTH 14 0
BBX 15 10 0 0
BITMAP
BA4A90E4
20146080
20102080
20006080
2ABA8080
20240080
20080080
00060080
00024080
00004040
ENDCHAR
STARTCHAR uni092E094D0938
ENCODING -1
SWIDTH 816 0
DWIDTH 13 0
BBX 14 10 0 0
BITMAP
BAABAB90
20060600
20060600
20050600
2AAEAA00
20600600
20240600
00080600
00050600
00010100
ENDCHAR
STARTCHAR uni092E094D0939
ENCODING -1
SWIDTH 758 0
DWIDTH 12 0
BBX 13 11 0 -1
BITMAP
BAAAAE40
20000800
2006A800
20080000
20140000
2AA80000
200BA400
10180800
00140400
00180000
0006A800
ENDCHAR
STARTCHAR uni092F094D092F
ENCODING -1
SWIDTH 897 0
DWIDTH 14 0
BBX 15 10 0 0
BITMAP
ABAAEAE4
02005080
02405080
2A068080
20090080
20090080
240A01C0
0AA5A980
00000080
00000040
ENDCHAR
STARTCHAR uni0930094D092F
ENCODING -1
SWIDTH 713 0
DWIDTH 11 0
BBX 12 10 0 0
BITMAP
AABAB9
001820
401820
6AA020
024020
014020
018070
006AA0
000020
000010
ENDCHAR
STARTCHAR uni0930094D0939
ENCODING -1
SWIDTH 619 0
DWIDTH 10 0
BBX 10 11 0 -1
BITMAP
AAAAE0
000140
40AA40
914000
2B4000
014000
00EA40
014180
024040
014000
00AA40
ENDCHAR
STARTCHAR uni0932094D0915
ENCODING -1
SWIDTH 1182 0
DWIDTH 19 0
BBX 19 10 0 0
BITMAP
AAAAAABAA8
0000005000
0A9A696A80
2460906020
2020805020
2020805020
2000909020
20002A9690
1A40005000
0000001000
ENDCHAR
STARTCHAR uni0932094D0916
ENCODING -1
SWIDTH 1195 0
DWIDTH 19 0
BBX 20 10 0 0
BITMAP
AAAAABAAB9
0000020020
0A9A421A20
2460822020
2020692020
2020202060
2000181A60
2000090020
1A40020020
0000010010
ENDCHAR
STARTCHAR uni0932094D0917
ENCODING -1
SWIDTH 950 0
DWIDTH 15 0
BBX 16 10 0 0
BITMAP
AAAABAB9
00002420
0A9A2420
24602420
20202020
20219020
20000020
20000020
1A400020
00000010
ENDCHAR
STARTCHAR uni0932094D091C
ENCODING -1
SWIDTH 1035 0
DWIDTH 17 0
BBX 17 10 0 0
BITMAP
AAAAAAAE80
0000000800
0A9A2AAC00
2460020800
2020024800
2020024800
2010024800
2000020800
1A40A90800
0000000400
ENDCHAR
STARTCHAR uni0932094D091F
ENCODING -1
SWIDTH 929 0
DWIDTH 15 0
BBX 15 9 0 1
BITMAP
AAAAAAE8
00000090
0A9A6A80
24609000
20208000
20208010
20008020
20009020
1A402A90
ENDCHAR
STARTCHAR uni0932094D0920
ENCODING -1
SWIDTH 953 0
DWIDTH 15 0
BBX 16 9 0 1
BITMAP
AAAAAAF9
00000050
0A9A6AC0
24609020
20208020
20208020
20008020
20008020
1A402A90
ENDCHAR
STARTCHAR uni0932094D0921
ENCODING -1
SWIDTH 916 0
DWIDTH 15 0
BBX 15 10 0 0
BITMAP
AAAAAAE8
00000090
0A9A6A80
24608000
20208000
20206A80
20000060
20008020
1A409590
00001540
ENDCHAR
STARTCHAR uni0932094D0922
ENCODING -1
SWIDTH 924 0
DWIDTH 15 0
BBX 15 9 0 1
BITMAP
AAAAAAE8
00000090
0A9A6A80
2460D000
20208000
20208290
20108220
20008020
1A406A90
ENDCHAR
STARTCHAR uni0932094D0924
ENCODING -1
SWIDTH 929 0
DWIDTH 15 0
BBX 15 10 0 0
BITMAP
AAAAAAF8
00000050
0A4A4050
2460FAD0
20208050
20208050
20108050
20008050
1A409050
00001450
ENDCHAR
STARTCHAR uni0932094D0925
ENCODING -1
SWIDTH 1061 0
DWIDTH 17 0
BBX 17 10 0 0
BITMAP
AAA92A4780
0000208600
0A9A408600
2460818600
2020AA0600
2020900600
2000600A00
20001AA600
1A40000600
0000000100
ENDCHAR
STARTCHAR uni0932094D0926
ENCODING -1
SWIDTH 939 0
DWIDTH 15 0
BBX 15 10 0 0
BITMAP
AAAAAAB8
00000060
0A9A6A90
24609000
20208000
20208010
20009020
20002AA0
1A400020
00000010
ENDCHAR
STARTCHAR uni0932094D092A
ENCODING -1
SWIDTH 939 0
DWIDTH 15 0
BBX 15 10 0 0
BITMAP
AAAAEAB8
00008060
0A9AC060
24608060
20208060
20205060
20102AA0
20000060
1A400060
00000010
ENDCHAR
STARTCHAR uni0932094D092B
ENCODING -1
SWIDTH 1176 0
DWIDTH 19 0
BBX 19 10 0 0
BITMAP
AAAAEAFAA8
0000805000
0A9AC06A80
2460806060
2020805020
2020509020
20102A9060
2000005680
1A40005000
0000001000
ENDCHAR
STARTCHAR uni0932094D092C
ENCODING -1
SWIDTH 949 0
DWIDTH 15 0
BBX 16 10 0 0
BITMAP
AAAAAAB9
00000020
0A9A6020
24609820
20208620
202081A0
200050A0
20002A60
1A400020
00000010
ENDCHAR
STARTCHAR uni0932094D092D
ENCODING -1
SWIDTH 931 0
DWIDTH 15 0
BBX 15 10 0 0
BITMAP
AAAA82F8
00008050
0A9AC050
24608050
2020AAD0
20208050
20108050
20000050
1A400050
00000010
ENDCHAR
STARTCHAR uni0932094D092E
ENCODING -1
SWIDTH 931 0
DWIDTH 15 0
BBX 15 10 0 0
BITMAP
AAAAEAF8
00008050
0A9AC050
24608050
2020AAD0
20208050
20108050
20000050
1A400050
00000010
ENDCHAR
STARTCHAR uni0932094D092F
ENCODING -1
SWIDTH 1033 0
DWIDTH 17 0
BBX 17 10 0 0
BITMAP
AAAAAEAE80
0000020800
0A9A820800
2460A90800
2020500800
2010500800
2000201C00
20001AA800
1A40000800
0000000400
ENDCHAR
STARTCHAR uni0932094D0932
ENCODING -1
SWIDTH 1112 0
DWIDTH 18 0
BBX 18 10 0 0
BITMAP
AAAAAAABE0
0000000140
0A9A6A6A40
2460918240
2020818140
2020808140
2000800140
2000800140
1A40690140
0000000100
ENDCHAR
STARTCHAR uni0932094D0935
ENCODING -1
SWIDTH 940 0
DWIDTH 15 0
BBX 16 10 0 0
BITMAP
AAAAAAB9
00000060
0A9A6960
24609060
20208060
20208060
20005060
20002AA0
1A400060
00000010
ENDCHAR
STARTCHAR uni0932094D0938
ENCODING -1
SWIDTH 1068 0
DWIDTH 17 0
BBX 18 10 0 0
BITMAP
AAAAABAB90
0000020200
0A9A420200
2460850200
2020AEAA00
2020600200
2000240200
2000080200
1A40050200
0000010100
ENDCHAR
STARTCHAR uni0932094D0939
ENCODING -1
SWIDTH 922 0
DWIDTH 15 0
BBX 15 10 0 0
BITMAP
AAAAAAF8
00000050
0A9A6A90
24609000
20209000
20203A80
20109050
20008010
1A409000
00002A90
ENDCHAR
STARTCHAR uni0933094D092F
ENCODING -1
SWIDTH 1050 0
DWIDTH 17 0
BBX 17 10 0 0
BITMAP
AAAAAFAF80
0000020500
1A9A820500
2070790500
2020200500
2020200500
2070700900
1A9A9AA900
0000000500
0000000400
ENDCHAR
STARTCHAR uni0935094D092F
ENCODING -1
SWIDTH 852 0
DWIDTH 14 0
BBX 14 10 0 0
BITMAP
AAABEBA0
00008240
1A408240
201A4240
20140240
20180240
20280340
1A96AA40
00000240
00000100
ENDCHAR
STARTCHAR uni0935094D0932
ENCODING -1
SWIDTH 961 0
DWIDTH 15 0
BBX 16 10 0 0
BITMAP
AAAAAAB9
00000020
1A469AA0
20082430
20142420
20141020
20240020
1A980020
00068020
00000010
ENDCHAR
STARTCHAR uni0935094D0935
ENCODING -1
SWIDTH 776 0
DWIDTH 12 0
BBX 13 10 0 0
BITMAP
AAAAAE40
00000800
1A468800
20080800
20140800
20140800
20280C00
1A96A800
00000800
00000400
ENDCHAR
STARTCHAR uni0935094D0939
ENCODING -1
SWIDTH 754 0
DWIDTH 12 0
BBX 12 11 0 -1
BITMAP
AAAAAE
000008
0A4AA8
201800
201400
201800
200BA4
201808
0AA404
001800
0006A4
ENDCHAR
STARTCHAR uni0936094D0915
ENCODING -1
SWIDTH 1093 0
DWIDTH 17 0
BBX 18 10 0 0
BITMAP
1A86ABAA90
2050020000
2051A2AA00
0092024240
7A82020140
2002020140
1802030240
0901AA2A00
0200020000
0140010000
ENDCHAR
STARTCHAR uni0936094D091A
ENCODING -1
SWIDTH 950 0
DWIDTH 15 0
BBX 16 10 0 0
BITMAP
1A86AAB9
20500020
0056B920
00908020
7A808020
20008020
18008060
09006A60
02000020
01400010
ENDCHAR
STARTCHAR uni0936094D091B
ENCODING -1
SWIDTH 968 0
DWIDTH 15 0
BBX 16 10 0 0
BITMAP
1A86EAB9
20914020
005241A0
00914024
6A40E414
20024014
18024014
09014020
0200AA90
01400000
ENDCHAR
STARTCHAR uni0936094D091F
ENCODING -1
SWIDTH 854 0
DWIDTH 14 0
BBX 14 10 0 0
BITMAP
1A86ABA0
20500200
0050AA00
00920000
7A820000
20020040
18020080
09020080
0201AA00
01400000
ENDCHAR
STARTCHAR uni0936094D0924
ENCODING -1
SWIDTH 864 0
DWIDTH 14 0
BBX 14 10 0 0
BITMAP
1A86ABE0
20500140
20500140
0091AB40
7A820140
20020140
18020140
09020140
02024140
01405140
ENDCHAR
STARTCHAR uni0936094D092E
ENCODING -1
SWIDTH 885 0
DWIDTH 14 0
BBX 15 10 0 0
BITMAP
1A87EAE4
20514080
20514080
00914080
7A81EA80
20014080
18014080
09000080
02000080
01400040
ENDCHAR
STARTCHAR uni0936094D092F
ENCODING -1
SWIDTH 940 0
DWIDTH 15 0
BBX 15 10 0 0
BITMAP
1A86BAB8
20502060
10502460
0092A060
7A820060
20020060
180240A0
0900AA60
02000060
01400010
ENDCHAR
STARTCHAR uni0936094D0932
ENCODING -1
SWIDTH 1039 0
DWIDTH 17 0
BBX 17 10 0 0
BITMAP
1A86AAAE80
2050000800
1051A5A800
00920A0C00
7A82050800
2002050800
1802000800
0902000800
0201A00800
0140000400
ENDCHAR
STARTCHAR uni0936094D0935
ENCODING -1
SWIDTH 850 0
DWIDTH 14 0
BBX 14 10 0 0
BITMAP
1A86ABA0
20500200
2051A200
00920200
7A820200
20020200
18020300
0901AA00
02000200
01400100
ENDCHAR
STARTCHAR uni0936094D0936
ENCODING -1
SWIDTH 1009 0
DWIDTH 16 0
BBX 17 10 0 0
BITMAP
1A80A90E40
2051460800
1051020800
0090060800
7A82A80800
2002400800
1800800800
0900600800
0200240800
0140040400
ENDCHAR
STARTCHAR uni0937094D0915
ENCODING -1
SWIDTH 1039 0
DWIDTH 17 0
BBX 17 10 0 0
BITMAP
BAAAAEAA80
2800090000
26068AA800
2088090500
2068090200
2428090200
0A98090500
0006A96800
0000090000
0000040000
ENDCHAR
STARTCHAR uni0937094D091F
ENCODING -1
SWIDTH 493 0
DWIDTH 8 0
BBX 8 10 0 0
BITMAP
BAAE
2908
2148
2468
1EA4
2000
2004
2008
2958
0550
ENDCHAR
STARTCHAR uni0937094D0920
ENCODING -1
SWIDTH 511 0
DWIDTH 8 0
BBX 9 10 0 0
BITMAP
BFFE40
2FFC00
2FFC00
2FF800
0FF400
240800
200800
200800
295800
055000
ENDCHAR
STARTCHAR uni0937094D0923
ENCODING -1
SWIDTH 980 0
DWIDTH 16 0
BBX 16 10 0 0
BITMAP
BAAEAEBA
28080824
26080824
21880824
20680824
242C1824
0A96A024
00000024
00000024
00000010
ENDCHAR
STARTCHAR uni0937094D092A
ENCODING -1
SWIDTH 980 0
DWIDTH 16 0
BBX 16 10 0 0
BITMAP
BAAEAEBA
28080824
26080824
21880824
20680824
242C1824
0A96A024
00000024
00000024
00000010
ENDCHAR
STARTCHAR uni0937094D092B
ENCODING -1
SWIDTH 1036 0
DWIDTH 17 0
BBX 17 10 0 0
BITMAP
BAAEAEAA80
2808080000
26080AA800
2188090500
2058080600
242C0C0600
0AA6A80500
0000086800
0000080000
0000040000
ENDCHAR
STARTCHAR uni0937094D092E
ENCODING -1
SWIDTH 791 0
DWIDTH 13 0
BBX 13 10 0 0
BITMAP
BAAEAE80
28080900
26080900
20880900
206EAD00
242C0900
0A980900
00000900
00000900
00000400
ENDCHAR
STARTCHAR uni0937094D092F
ENCODING -1
SWIDTH 877 0
DWIDTH 14 0
BBX 14 10 0 0
BITMAP
BAAAEAE0
28008180
26009180
208A8180
20280180
242C0180
0A990280
0002A980
00000180
00000040
ENDCHAR
STARTCHAR uni0937094D0935
ENCODING -1
SWIDTH 802 0
DWIDTH 13 0
BBX 13 10 0 0
BITMAP
BAAAAF80
28000500
26029500
20890500
20680500
242C0500
0A980900
0006A900
00000500
00000400
ENDCHAR
STARTCHAR uni0937094D0937
ENCODING -1
SWIDTH 804 0
DWIDTH 13 0
BBX 13 10 0 0
BITMAP
BAAEAF80
280D0500
26094500
21885500
20681900
242C0900
0A92A900
00000500
00000500
00000100
ENDCHAR
STARTCHAR uni0938094D0915
ENCODING -1
SWIDTH 1089 0
DWIDTH 17 0
BBX 18 10 0 0
BITMAP
ABAAABAA90
0200020000
0201A26900
0602024240
6EAA020140
2006020140
1402030240
0801AA2A00
0600020000
0100010000
ENDCHAR
STARTCHAR uni0938094D0916
ENCODING -1
SWIDTH 990 0
DWIDTH 16 0
BBX 16 10 0 0
BITMAP
ABAAEABE
02008014
02008654
06008814
6EBA5814
20180824
140906A4
08020014
06018014
01004014
ENDCHAR
STARTCHAR uni0938094D091C
ENCODING -1
SWIDTH 970 0
DWIDTH 16 0
BBX 16 10 0 0
BITMAP
ABAAAABA
02000020
02000020
0600AAB0
6EA80820
20000920
14000920
08000820
0602A420
01000010
ENDCHAR
STARTCHAR uni0938094D091F
ENCODING -1
SWIDTH 844 0
DWIDTH 14 0
BBX 14 10 0 0
BITMAP
ABAAABA0
02000200
0201AA00
06020000
6EAA0000
20060040
14060080
08020180
0601AA00
01000000
ENDCHAR
STARTCHAR uni0938094D0924
ENCODING -1
SWIDTH 852 0
DWIDTH 14 0
BBX 14 10 0 0
BITMAP
ABAAABA0
02000200
02000200
0602AB00
6EAA0200
20060200
14060200
08060200
06024200
01005100
ENDCHAR
STARTCHAR uni0938094D0925
ENCODING -1
SWIDTH 960 0
DWIDTH 15 0
BBX 16 10 0 0
BITMAP
ABA1A829
02020820
02020820
06000820
6EAAA420
20020020
14020070
0801AA60
06000020
01000010
ENDCHAR
STARTCHAR uni0938094D0926
ENCODING -1
SWIDTH 851 0
DWIDTH 14 0
BBX 14 10 0 0
BITMAP
ABAAABA0
02000240
0201AA00
06020000
6EAA0000
20020040
14020140
0801AA40
06000140
01000040
ENDCHAR
STARTCHAR uni0938094D092A
ENCODING -1
SWIDTH 857 0
DWIDTH 14 0
BBX 14 10 0 0
BITMAP
ABABABA0
02020240
02020240
06020240
6EAA0240
20020240
1400AA40
08000240
06000240
01000100
ENDCHAR
STARTCHAR uni0938094D092B
ENCODING -1
SWIDTH 1092 0
DWIDTH 17 0
BBX 18 10 0 0
BITMAP
ABABABAA90
0202020000
0202026A00
0602024240
6EAA020140
2002030140
1400AA0240
0800022A00
0600020000
0100010000
ENDCHAR
STARTCHAR uni0938094D092C
ENCODING -1
SWIDTH 857 0
DWIDTH 14 0
BBX 14 10 0 0
BITMAP
ABAAABA0
02000240
0201A240
06034240
6EAA2240
20020A40
14020340
0801AA40
06000240
01000100
ENDCHAR
STARTCHAR uni0938094D092E
ENCODING -1
SWIDTH 850 0
DWIDTH 14 0
BBX 14 10 0 0
BITMAP
ABABABA0
02020200
02020200
06020200
6EABAB00
20020200
14020200
08000200
06000200
01000100
ENDCHAR
STARTCHAR uni0938094D092F
ENCODING -1
SWIDTH 920 0
DWIDTH 15 0
BBX 15 10 0 0
BITMAP
ABAAFAE8
02002090
02002090
06069090
6EAA0090
20060090
140200D0
0801AA90
06000090
01000040
ENDCHAR
STARTCHAR uni0938094D0932
ENCODING -1
SWIDTH 1027 0
DWIDTH 16 0
BBX 17 10 0 0
BITMAP
ABAAAAAE40
0200000800
0201A6A800
06020A0C00
6EAA090800
2006090800
1406000800
0802000800
0601A00800
0100000400
ENDCHAR
STARTCHAR uni0938094D0935
ENCODING -1
SWIDTH 842 0
DWIDTH 13 0
BBX 14 10 0 0
BITMAP
ABAAAB90
02000200
0201A200
06020200
6EAA0200
20060200
14020300
0801AA00
06000200
01000100
ENDCHAR
STARTCHAR uni0938094D0938
ENCODING -1
SWIDTH 871 0
DWIDTH 14 0
BBX 14 10 0 0
BITMAP
ABAAEBE0
02018140
02014140
06014140
6EBBAB40
20180140
14080140
08020140
06024140
01004040
ENDCHAR
STARTCHAR uni0939094D0923
ENCODING -1
SWIDTH 1136 0
DWIDTH 18 0
BBX 19 14 0 -4
BITMAP
AABAFAEAE4
0024509080
1AA4509080
2400509080
2400509080
0EA0608080
24142A4080
2018000080
2000000080
2400000040
0AA4000000
0040000000
0090000000
0020000000
ENDCHAR
STARTCHAR uni0939094D092E
ENCODING -1
SWIDTH 746 0
DWIDTH 12 0
BBX 12 11 0 -1
BITMAP
AABEBE
001414
1AA414
200014
200014
1EA414
201414
201EB4
201414
241014
0AA004
ENDCHAR
STARTCHAR uni0939094D092F
ENCODING -1
SWIDTH 785 0
DWIDTH 13 0
BBX 13 12 0 -2
BITMAP
AABEAE80
00140800
1AA40800
20000800
20000800
1EAA0800
20024800
20024800
202A0800
20201C00
240AA800
0A800800
ENDCHAR
STARTCHAR uni0939094D0932
ENCODING -1
SWIDTH 1110 0
DWIDTH 18 0
BBX 18 14 0 -4
BITMAP
AABAAAABE0
0024000140
1AA4000140
24006A6A40
2400818240
0EA0818140
2414804140
2004800140
2000690140
2400000100
0AA4000000
0000000000
0080000000
0020000000
ENDCHAR
STARTCHAR uni0939094D0935
ENCODING -1
SWIDTH 920 0
DWIDTH 15 0
BBX 15 14 0 -4
BITMAP
AABAAAE8
00240050
1AA42950
24009050
24008050
0EA08050
24148050
20188090
20042A90
24000040
0AA40000
00400000
00900000
00200000
ENDCHAR
STARTCHAR uni0915093C094D0915093C
ENCODING -1
SWIDTH 1275 0
DWIDTH 20 0
BBX 21 10 0 0
BITMAP
AABAAAAEAA40
002400080000
1A2AA689A400
202418090900
202418080500
202418080500
2024080C0900
1AA406A8A400
002400080000
081002040000
ENDCHAR
STARTCHAR uni0915093C094D0924
ENCODING -1
SWIDTH 1016 0
DWIDTH 16 0
BBX 17 10 0 0
BITMAP
AABAAAAE40
0024000800
1A2AA00800
20241AA800
2024140800
2024200800
2024200800
1AA4240800
0024190800
0810050400
ENDCHAR
STARTCHAR uni0915093C094D092B
ENCODING -1
SWIDTH 1246 0
DWIDTH 20 0
BBX 20 10 0 0
BITMAP
AABABAAEAA
0024241800
1A2AB41AA4
2024241808
2024241808
2024142808
20240AA808
1AA40019A4
0024001800
0810000400
ENDCHAR
STARTCHAR uni0915093C094D092B093C
ENCODING -1
SWIDTH 1247 0
DWIDTH 20 0
BBX 20 10 0 0
BITMAP
AABABAAEAA
0024241800
1A2AB41AA4
2024241808
2024241808
2024142808
20240AA808
1AA40019A4
0024001800
0810050400
ENDCHAR
STARTCHAR uni0915093C094D092C
ENCODING -1
SWIDTH 1043 0
DWIDTH 17 0
BBX 17 10 0 0
BITMAP
AABAAAAE80
0024000900
1A2AA68900
20241D0900
2024098900
2024086900
2024080D00
1AA406A900
0024000900
0810000400
ENDCHAR
STARTCHAR uni0915093C094D092E
ENCODING -1
SWIDTH 998 0
DWIDTH 16 0
BBX 16 10 0 0
BITMAP
AABABAAE
00242018
1A2AB018
20242018
20242AB8
20242018
20241018
1AA40018
00240018
08100004
ENDCHAR
STARTCHAR uni0916093C094D0924
ENCODING -1
SWIDTH 984 0
DWIDTH 16 0
BBX 16 10 0 0
BITMAP
ABAAAABA
02000024
021A0024
02201AB4
69202024
20202024
181AA024
09002024
02002424
01020510
ENDCHAR
STARTCHAR uni0916093C094D092E
ENCODING -1
SWIDTH 965 0
DWIDTH 15 0
BBX 16 10 0 0
BITMAP
ABAABAB9
02002020
021A2020
02202020
69203AB0
20206020
180A8020
09000020
02000020
01020010
ENDCHAR
STARTCHAR uni0916093C094D092F
ENCODING -1
SWIDTH 1045 0
DWIDTH 17 0
BBX 17 10 0 0
BITMAP
ABAAAFAE80
0200020900
021A020900
0220690900
6920600900
2020600900
181AA00900
09000AA900
0200000900
0101000400
ENDCHAR
STARTCHAR uni0916093C094D0935
ENCODING -1
SWIDTH 972 0
DWIDTH 16 0
BBX 16 10 0 0
BITMAP
ABAAAABA
02000020
021A1A20
02202020
69206020
20206020
181AA030
09001AA0
02000020
01010010
ENDCHAR
STARTCHAR uni0916093C094D0936
ENCODING -1
SWIDTH 1123 0
DWIDTH 18 0
BBX 18 10 0 0
BITMAP
ABAA1A81E0
0200205180
021A105180
0220005180
6920AA8180
2020600180
181AA40180
0900080180
0200060180
0101010040
ENDCHAR
STARTCHAR uni0916093C094D0938
ENCODING -1
SWIDTH 1066 0
DWIDTH 17 0
BBX 18 10 0 0
BITMAP
ABAAABAB90
0200060600
021A060600
0220050600
69206EAA00
2020600600
181A940600
0900080600
0200050600
0101010100
ENDCHAR
STARTCHAR uni091C093C094D091C093C
ENCODING -1
SWIDTH 934 0
DWIDTH 15 0
BBX 15 10 0 0
BITMAP
AAAAAAE4
00000080
00000080
2BA2AAC0
02402080
01402080
01402080
02402080
6A0A9080
10014040
ENDCHAR
STARTCHAR uni091C093C094D092F
ENCODING -1
SWIDTH 893 0
DWIDTH 14 0
BBX 15 10 0 0
BITMAP
AAAAEAE4
00005080
2BA85080
020A8080
01480080
01480080
01460180
0241A980
69000080
10000040
ENDCHAR
STARTCHAR uni092B093C094D091C093C
ENCODING -1
SWIDTH 1100 0
DWIDTH 18 0
BBX 18 10 0 0
BITMAP
BABEAAABA0
2014000200
201A96AB00
2018008200
2014005200
2424005200
0AA4005200
0014008200
00142A4200
0814050100
ENDCHAR
STARTCHAR uni092B093C094D0924
ENCODING -1
SWIDTH 1036 0
DWIDTH 17 0
BBX 17 10 0 0
BITMAP
BABEAAAE80
2014000800
201AA00800
20181AAC00
2014080800
2424140800
0AA4140800
0014180800
0014090800
0414014400
ENDCHAR
STARTCHAR uni092B093C094D092B093C
ENCODING -1
SWIDTH 1256 0
DWIDTH 20 0
BBX 21 10 0 0
BITMAP
BABEBEAEAA40
201414080000
201AB40AA400
2018140C0800
201414080800
242418180800
0AA406A80800
00140008A400
001400080000
081405040000
ENDCHAR
STARTCHAR uni092B093C094D0938
ENCODING -1
SWIDTH 1141 0
DWIDTH 18 0
BBX 19 10 0 0
BITMAP
BABEAAEAE4
2014008080
201A908080
2018258080
20141FAA80
2424080080
0AA4050080
0014020080
0014018080
0814004040
ENDCHAR
STARTCHAR uni092C094D091C093C
ENCODING -1
SWIDTH 883 0
DWIDTH 14 0
BBX 15 10 0 0
BITMAP
AAAAAAE4
00000080
0A400080
2806EA80
29006080
22002080
20802080
20206080
0AAA8080
00050040
ENDCHAR
STARTCHAR uni0932094D091C093C
ENCODING -1
SWIDTH 1062 0
DWIDTH 17 0
BBX 17 11 0 -1
BITMAP
AAAAAAAE80
0000000800
0A9A2AAC00
2460020800
2020024800
2020024800
2010024800
2000020800
1A40A90800
0000000400
0000200000
ENDCHAR
STARTCHAR uni0936094D0915093C
ENCODING -1
SWIDTH 1093 0
DWIDTH 17 0
BBX 18 10 0 0
BITMAP
1A86ABAA90
2050020000
2051A26A00
0092024240
7A82020140
2002020140
1802030240
0901AA2A00
0200020000
0140810000
ENDCHAR
STARTCHAR uni0924094D0924094D
ENCODING -1
SWIDTH 309 0
DWIDTH 5 0
BBX 7 10 0 0
BITMAP
AAA4
0000
0000
6EA4
0800
1800
1800
1800
0900
0140
ENDCHAR
STARTCHAR uni0928094D092D094D
ENCODING -1
SWIDTH 505 0
DWIDTH 8 0
BBX 10 7 0 3
BITMAP
AA90A0
002000
002000
002000
2AB000
503AA0
502000
ENDCHAR
STARTCHAR uni0928094D0938094D
ENCODING -1
SWIDTH 635 0
DWIDTH 10 0
BBX 12 10 0 0
BITMAP
AAAAEA
000180
000180
2AA140
602BAA
201800
000900
000200
000240
000040
ENDCHAR
STARTCHAR uni092E094D092D094D
ENCODING -1
SWIDTH 533 0
DWIDTH 9 0
BBX 10 7 0 3
BITMAP
BAA060
202400
201400
201400
201400
2ABEA0
201400
ENDCHAR
STARTCHAR uni0932094D092D094D
ENCODING -1
SWIDTH 694 0
DWIDTH 11 0
BBX 13 9 0 1
BITMAP
AAAA8280
00008000
0A9AC000
24608000
2020AA80
20208000
20108000
20000000
1A400000
ENDCHAR
STARTCHAR uni0938094D0924094D0930094D
ENCODING -1
SWIDTH 575 0
DWIDTH 9 0
BBX 12 10 0 0
BITMAP
ABAAA0
020000
0206A4
060808
6EA805
200005
140018
080090
060240
010400
ENDCHAR
STARTCHAR uni0915094D0924094D092F
ENCODING -1
SWIDTH 1356 0
DWIDTH 22 0
BBX 22 10 0 0
BITMAP
AABAAAABEBA0
002400008240
1A2AA0008240
20241AAA4240
202414180240
202424180240
202424080340
1AA42406AA40
002419000240
001005000100
ENDCHAR
STARTCHAR uni0915094D0924094D0930
ENCODING -1
SWIDTH 997 0
DWIDTH 16 0
BBX 16 10 0 0
BITMAP
AABAAAAE
00240014
10281AA4
20242024
20242014
20241014
202400A4
1AA40254
00240914
00101004
ENDCHAR
STARTCHAR uni0915094D0924094D0935
ENCODING -1
SWIDTH 1242 0
DWIDTH 20 0
BBX 20 10 0 0
BITMAP
AABAAAAABE
0024000014
1A2AA00A54
20242AB414
2024202014
2024202014
2024202424
1AA4200AA4
0024240014
0010050004
ENDCHAR
STARTCHAR uni0915094D092A094D0930
ENCODING -1
SWIDTH 1007 0
DWIDTH 16 0
BBX 17 10 0 0
BITMAP
AABABAAE40
0A24200800
202AB00800
2024200800
2024241800
20240AE800
2024008800
0AA4020800
0024090800
0010040400
ENDCHAR
STARTCHAR uni0915094D0935094D092F
ENCODING -1
SWIDTH 1384 0
DWIDTH 22 0
BBX 23 10 0 0
BITMAP
AABAAAAAEAE4
002400005080
1A2AAA809080
2024180A8080
202414080080
202414080080
2024180D0180
1AA40AA6A980
002400000080
001000000040
ENDCHAR
STARTCHAR uni0915094D0938094D091F
ENCODING -1
SWIDTH 1376 0
DWIDTH 22 0
BBX 22 10 0 0
BITMAP
AABAAAEAABE0
002400800140
1A2AA080AA40
202414814000
20241EAB0000
202408020040
202406020090
1AA402414080
00240080AA40
001000400000
ENDCHAR
STARTCHAR uni0915094D0938094D0921
ENCODING -1
SWIDTH 1388 0
DWIDTH 22 0
BBX 23 10 0 0
BITMAP
AABAAAEAAAE4
002400800080
1A2AA080AA80
202414808000
20241EAA8000
202408006A80
202406000080
1AA402414090
002400809580
001000405940
ENDCHAR
STARTCHAR uni0915094D0938094D0924
ENCODING -1
SWIDTH 1423 0
DWIDTH 23 0
BBX 23 10 0 0
BITMAP
AABAAAEAAAF8
002400800050
1A2AA0800050
202414806AD0
20241EAAC050
202408008050
202406008050
1AA402408050
002400809050
001000401440
ENDCHAR
STARTCHAR uni0915094D0938094D092A094D0930
ENCODING -1
SWIDTH 1437 0
DWIDTH 23 0
BBX 23 10 0 0
BITMAP
AABAAAEAEAB8
0A2A90808060
202424808060
202414808060
20241EAAD060
202408006BA0
202406000660
0AA402400860
002400802060
001000405010
ENDCHAR
STARTCHAR uni0915094D0938094D092A094D0932
ENCODING -1
SWIDTH 1866 0
DWIDTH 30 0
BBX 30 10 0 0
BITMAP
AABAAAEAEAAAABE0
0024008080000140
1A2AA080802A6A40
202414808091C240
20241EAAC0808140
2024080050808140
202406002AC04140
1AA4024000800140
0024008000690140
0010004000000140
ENDCHAR
STARTCHAR uni0917094D0927094D092F
ENCODING -1
SWIDTH 1156 0
DWIDTH 19 0
BBX 19 10 0 0
BITMAP
AEAE1AEAE8
0814002080
0824006080
080E469080
0814050080
6424050080
00140601C0
000AA9AA80
0000000080
0000000040
ENDCHAR
STARTCHAR uni0917094D0927094D0935
ENCODING -1
SWIDTH 1084 0
DWIDTH 17 0
BBX 18 10 0 0
BITMAP
AEAE1AAB90
0824000200
081401A200
080E460200
0814050200
6424050200
0014060700
000AA9AA00
0000000200
0000000100
ENDCHAR
STARTCHAR uni0917094D0928094D092F
ENCODING -1
SWIDTH 1069 0
DWIDTH 17 0
BBX 18 10 0 0
BITMAP
AEAAABAB90
0800024200
0800024200
082ABA0200
0820200200
6420200200
0000240A00
00000AA600
0000000200
0000000100
ENDCHAR
STARTCHAR uni0917094D092D094D092F
ENCODING -1
SWIDTH 1102 0
DWIDTH 18 0
BBX 18 10 0 0
BITMAP
AEA06BEBA0
0814008200
0814008200
08141A4200
081EA40200
6414140200
0014080300
000006AA00
0000000200
0000000100
ENDCHAR
STARTCHAR uni0917094D0930094D092F
ENCODING -1
SWIDTH 817 0
DWIDTH 13 0
BBX 14 10 0 0
BITMAP
AEABAB90
08024600
08024600
082A0600
08200600
64200600
00240A00
000ABA00
00009600
00060100
ENDCHAR
STARTCHAR uni091A094D091B094D0935
ENCODING -1
SWIDTH 913 0
DWIDTH 15 0
BBX 15 12 0 -2
BITMAP
AAABAAE8
00060080
000506C0
6A860050
08029050
14060060
14050050
080A0090
06A6EAC0
00020080
00020080
0001AA40
ENDCHAR
STARTCHAR uni091C094D091C094D091E
ENCODING -1
SWIDTH 945 0
DWIDTH 15 0
BBX 16 10 0 0
BITMAP
AAAAAAB9
00000020
0002AAA0
2BAD0020
02490020
0146A820
01480520
02490620
6A0BA820
00080010
ENDCHAR
STARTCHAR uni091C094D091C094D092F
ENCODING -1
SWIDTH 1252 0
DWIDTH 20 0
BBX 20 10 0 0
BITMAP
AAAAAAAEAE
0000000818
0000000918
2BA1EAE818
0240208018
0140208018
0140209028
0240202A98
6A0A900018
0000000004
ENDCHAR
STARTCHAR uni091C094D091C094D0935
ENCODING -1
SWIDTH 1243 0
DWIDTH 20 0
BBX 19 10 0 0
BITMAP
AAAAAAAAF8
0000000050
0000002950
2BA1EAC050
0240208050
0140208050
0140208090
0240206A90
6A0A900050
0000000040
ENDCHAR
STARTCHAR uni0924094D0915094D092F
ENCODING -1
SWIDTH 1346 0
DWIDTH 22 0
BBX 22 10 0 0
BITMAP
AAAAAEABABA0
000018008200
000A58008200
1AB41AAA4200
202018140200
202018140200
202428080700
200AA806AA00
250018000200
050004000100
ENDCHAR
STARTCHAR uni0924094D0915094D0930
ENCODING -1
SWIDTH 995 0
DWIDTH 16 0
BBX 16 10 0 0
BITMAP
AAAAAEAA
00001800
000A5AA0
1AB41808
20201808
20201808
20242808
200AE9A4
25025800
05090400
ENDCHAR
STARTCHAR uni0924094D0915094D0935
ENCODING -1
SWIDTH 1282 0
DWIDTH 21 0
BBX 21 10 0 0
BITMAP
AAAAAEAAAE80
000018000800
000A5AA68800
1AB418180800
202018180800
202018180800
202428080C00
200AA806A800
250018000800
050004000400
ENDCHAR
STARTCHAR uni0924094D0915094D0937
ENCODING -1
SWIDTH 943 0
DWIDTH 15 0
BBX 16 10 0 0
BITMAP
AAA2A439
00050820
00050820
1AA7BAA0
20180020
20140420
20180820
200AA820
25000820
05000410
ENDCHAR
STARTCHAR uni0924094D0916094D0930
ENCODING -1
SWIDTH 1008 0
DWIDTH 16 0
BBX 17 10 0 0
BITMAP
AAAAEAAE40
0000800800
1A90868800
2020880800
202A480800
2008081800
200606A800
2002408800
2900824800
0500450400
ENDCHAR
STARTCHAR uni0924094D0924094D092F
ENCODING -1
SWIDTH 888 0
DWIDTH 14 0
BBX 15 10 0 0
BITMAP
AAAAEAE4
00005080
6EA45080
080E8080
18080080
18080080
18060180
1801A980
09000080
01400040
ENDCHAR
STARTCHAR uni0924094D0924094D0935
ENCODING -1
SWIDTH 788 0
DWIDTH 13 0
BBX 13 10 0 0
BITMAP
AAAAAE80
00000800
00068800
6EAC0800
08080800
18080800
18080C00
1806A800
09000800
01400400
ENDCHAR
STARTCHAR uni0924094D0928094D092F
ENCODING -1
SWIDTH 1098 0
DWIDTH 18 0
BBX 18 10 0 0
BITMAP
AAAAABABA0
0000008200
1AA0008200
201EAA4200
2024140200
2014140200
2000080300
200006AA00
2900000200
0500000100
ENDCHAR
STARTCHAR uni0924094D092A094D0930
ENCODING -1
SWIDTH 763 0
DWIDTH 12 0
BBX 13 10 0 0
BITMAP
AABAAE40
00240800
1AB40800
20240800
20141800
200AA800
20008800
20020800
29090800
05040400
ENDCHAR
STARTCHAR uni0924094D092A094D0932
ENCODING -1
SWIDTH 1219 0
DWIDTH 20 0
BBX 20 10 0 0
BITMAP
AABAAAAABA
0024000020
00240696A0
1AB4082830
2024081420
2014181420
200AA81020
2000080020
2500068020
0500000010
ENDCHAR
STARTCHAR uni0924094D092E094D092F
ENCODING -1
SWIDTH 1096 0
DWIDTH 18 0
BBX 18 10 0 0
BITMAP
AABAABABA0
0024008200
0024008200
1AB41A4200
202AB40200
2024140200
2010080700
200006AA00
2500000200
0500000100
ENDCHAR
STARTCHAR uni0924094D0930094D092F
ENCODING -1
SWIDTH 848 0
DWIDTH 14 0
BBX 14 10 0 0
BITMAP
AAABABA0
00008200
1AA08200
202A4200
20140200
10140200
00680300
0246AA00
09000200
10000100
ENDCHAR
STARTCHAR uni0924094D0938094D092F
ENCODING -1
SWIDTH 1234 0
DWIDTH 20 0
BBX 20 10 0 0
BITMAP
AAAAEABEBA
0000800824
1AA0800824
201480A424
201FAA8024
2008008024
2006008024
2002406AA4
2900800024
0500400010
ENDCHAR
STARTCHAR uni0924094D0938094D0935
ENCODING -1
SWIDTH 1155 0
DWIDTH 18 0
BBX 19 10 0 0
BITMAP
AAAAEAAAE4
0000800080
1AA0804080
2014808080
201FAA8080
2008018080
20060080C0
2002406A80
2900800080
0500400040
ENDCHAR
STARTCHAR uni0926094D0917094D0930
ENCODING -1
SWIDTH 493 0
DWIDTH 8 0
BBX 8 13 0 -3
BITMAP
AABE
0014
0AA4
2400
2000
2000
2008
2418
0BA8
0208
0628
2898
0248
ENDCHAR
STARTCHAR uni0926094D092C094D0930
ENCODING -1
SWIDTH 483 0
DWIDTH 8 0
BBX 8 14 0 -4
BITMAP
AABE
0014
0014
0AA4
2400
2000
2004
2018
1EA8
2608
2468
0AF4
00D0
0240
ENDCHAR
STARTCHAR uni0926094D092F094D092D
ENCODING -1
SWIDTH 607 0
DWIDTH 10 0
BBX 10 13 0 -3
BITMAP
AAEBA0
0A8240
240240
140240
0E4240
140240
240240
0AAE40
002640
699240
024240
008240
000100
ENDCHAR
STARTCHAR uni0926094D092F094D0930
ENCODING -1
SWIDTH 595 0
DWIDTH 10 0
BBX 10 11 0 -1
BITMAP
AAEBA0
1A8200
200200
200200
1E4200
200200
200200
200300
1AAB00
006100
004000
ENDCHAR
STARTCHAR uni0927094D0928094D092F
ENCODING -1
SWIDTH 1138 0
DWIDTH 18 0
BBX 19 10 0 0
BITMAP
BE2AAAEAE4
2000005080
2000005080
1E46AE8080
200C080080
2008080080
0AA8060180
000001A980
0000000080
0000000040
ENDCHAR
STARTCHAR uni0928094D0915094D0938
ENCODING -1
SWIDTH 1384 0
DWIDTH 22 0
BBX 23 10 0 0
BITMAP
AAAABAAAEAE4
000020008080
001A2A908080
2AB024218080
5020202FAA80
502020080080
002020090080
001AA0020080
000020014080
000010004040
ENDCHAR
STARTCHAR uni0928094D0924094D092F
ENCODING -1
SWIDTH 1073 0
DWIDTH 17 0
BBX 18 10 0 0
BITMAP
AAAAABAB90
0000014200
0000024200
2ABEBA0200
5030200200
5020200200
1020240600
00200AA600
0024000200
0005000100
ENDCHAR
STARTCHAR uni0928094D0924094D0930
ENCODING -1
SWIDTH 732 0
DWIDTH 12 0
BBX 12 10 0 0
BITMAP
AAAABA
000024
001AA4
2AB024
502024
501024
0000B4
000264
001924
001010
ENDCHAR
STARTCHAR uni0928094D0924094D0938
ENCODING -1
SWIDTH 1134 0
DWIDTH 18 0
BBX 19 10 0 0
BITMAP
AAAAAAEAE4
0000008080
001A908080
2AB0218080
50202FAA80
5020080080
0020090080
0020020080
0024014080
0005004040
ENDCHAR
STARTCHAR uni0928094D0925094D092F
ENCODING -1
SWIDTH 1168 0
DWIDTH 19 0
BBX 19 10 0 0
BITMAP
AA1A86FAE8
0020802090
0010802090
2ABA469090
6020060090
5020060090
10240700D0
000AA9AA90
0000000090
0000000040
ENDCHAR
STARTCHAR uni0928094D0925094D0935
ENCODING -1
SWIDTH 1089 0
DWIDTH 17 0
BBX 18 10 0 0
BITMAP
AA1A86AB90
0020800200
001081A200
2ABA420200
6020050200
5020050200
10240A0300
000AA5AA00
0000000200
0000000100
ENDCHAR
STARTCHAR uni0928094D0926094D0930
ENCODING -1
SWIDTH 734 0
DWIDTH 12 0
BBX 12 10 0 0
BITMAP
AAAABE
000014
001AA4
2AB000
502000
502004
002018
000AE8
000198
000204
ENDCHAR
STARTCHAR uni0928094D0926094D0935
ENCODING -1
SWIDTH 732 0
DWIDTH 12 0
BBX 12 12 0 -2
BITMAP
AAAABA
000014
000AA4
002000
2AA000
502000
502014
002018
001EA8
002018
002014
001AA0
ENDCHAR
STARTCHAR uni0928094D0927094D092F
ENCODING -1
SWIDTH 1097 0
DWIDTH 18 0
BBX 18 10 0 0
BITMAP
AAB86BABA0
0060008200
0060008200
2ABE1A4200
6020140200
2060140200
0020080300
001AA6AA00
0000000200
0000000100
ENDCHAR
STARTCHAR uni0928094D0927094D0930
ENCODING -1
SWIDTH 783 0
DWIDTH 13 0
BBX 13 10 0 0
BITMAP
AAB96E80
00600800
00600800
2ABE0800
60200800
20600800
00200C00
001AA800
00018800
00060400
ENDCHAR
STARTCHAR uni0928094D0927094D0935
ENCODING -1
SWIDTH 1036 0
DWIDTH 17 0
BBX 17 10 0 0
BITMAP
AAB86AAE80
0060000800
0060068800
2ABE080800
6020080800
2060080800
00200C0C00
001AA6A800
0000000800
0000000400
ENDCHAR
STARTCHAR uni0928094D0928094D092F
ENCODING -1
SWIDTH 1071 0
DWIDTH 17 0
BBX 18 10 0 0
BITMAP
AAAAABAB90
0000014200
0000024200
2ABABA0200
5020200200
5020200200
0000240A00
00000AA600
0000000200
0000000100
ENDCHAR
STARTCHAR uni0928094D092A094D0930
ENCODING -1
SWIDTH 737 0
DWIDTH 12 0
BBX 12 10 0 0
BITMAP
AABABE
002014
002014
2AA014
502024
101AE4
000154
000614
000814
001010
ENDCHAR
STARTCHAR uni0928094D092B094D0930
ENCODING -1
SWIDTH 975 0
DWIDTH 16 0
BBX 16 10 0 0
BITMAP
AABABAAA
00202AA0
00202424
2AA02418
50202408
501AE418
00026424
000525A0
00182400
00101000
ENDCHAR
STARTCHAR uni0928094D092D094D092F
ENCODING -1
SWIDTH 1071 0
DWIDTH 17 0
BBX 18 10 0 0
BITMAP
AA90ABAB90
0020024200
0020024200
2AB02A0200
503AB00200
5020200200
1020240A00
00000AA600
0000000200
0000000100
ENDCHAR
STARTCHAR uni0928094D092D094D0935
ENCODING -1
SWIDTH 995 0
DWIDTH 16 0
BBX 16 10 0 0
BITMAP
AA90AABE
00200014
00200A54
2AB02414
503AB014
50202014
00102424
00000AA4
00000014
00000004
ENDCHAR
STARTCHAR uni0928094D092E094D092F
ENCODING -1
SWIDTH 1071 0
DWIDTH 17 0
BBX 18 10 0 0
BITMAP
AABAABAB90
0020024200
0020024200
2AB02A0200
503AB00200
5020200200
1020240A00
00000AA600
0000000200
0000000100
ENDCHAR
STARTCHAR uni0928094D0938094D091F
ENCODING -1
SWIDTH 1113 0
DWIDTH 18 0
BBX 18 10 0 0
BITMAP
AAABAAABA0
0002400200
000240AA00
2A92024000
603AAB0000
2024020040
0008020080
0005020080
000200AA40
0001400000
ENDCHAR
STARTCHAR uni0928094D0938094D092E094D092F
ENCODING -1
SWIDTH 1453 0
DWIDTH 23 0
BBX 24 10 0 0
BITMAP
AAABABAABAB9
000202001420
000202001420
2A820202A020
607AABAB0020
502002020020
001802018060
000900006A60
000200000020
000100000010
ENDCHAR
STARTCHAR uni0928094D0938094D092F
ENCODING -1
SWIDTH 1194 0
DWIDTH 19 0
BBX 19 10 0 0
BITMAP
AAABAABAB8
0002002060
0002002060
2A82029060
507AAA0060
5020020060
00180240A0
000900AA60
0002000060
0001000010
ENDCHAR
STARTCHAR uni092A094D0924094D092F
ENCODING -1
SWIDTH 1119 0
DWIDTH 18 0
BBX 18 10 0 0
BITMAP
BAAAAAEBE0
2000008140
2000008140
2006AE4140
2008080140
2424080140
0AA4090240
001402AA40
000D000140
0001400040
ENDCHAR
STARTCHAR uni092C094D091C094D092F
ENCODING -1
SWIDTH 1235 0
DWIDTH 20 0
BBX 20 10 0 0
BITMAP
AAAAAABEBE
0000000814
0A46EA4814
280061E414
2500218014
2140208024
2080208024
2020602AA4
0AAA800014
0000000010
ENDCHAR
STARTCHAR uni092C094D0927094D0935
ENCODING -1
SWIDTH 1097 0
DWIDTH 18 0
BBX 18 10 0 0
BITMAP
AAAE4AABA0
0008000200
1A4801A200
240B820200
2108060200
2098060200
2038020300
1A96A9AA00
0000000200
0000000100
ENDCHAR
STARTCHAR uni092C094D092D094D0930
ENCODING -1
SWIDTH 764 0
DWIDTH 12 0
BBX 13 10 0 0
BITMAP
AAA06E40
00140800
1A540800
28140800
211EA800
20541800
20245800
1AA18800
00060800
00040400
ENDCHAR
STARTCHAR uni092C094D0932094D092F
ENCODING -1
SWIDTH 480 0
DWIDTH 8 0
BBX 22 10 0 0
BITMAP
AAAAAAABAB90
000000024200
1A469A924200
2408243A0200
221424200200
209410200600
203400240A00
1A98000AA600
000680000200
000000000100
ENDCHAR
STARTCHAR uni092D094D0930094D092F
ENCODING -1
SWIDTH 830 0
DWIDTH 13 0
BBX 14 10 0 0
BITMAP
90ABAB90
20014200
20014200
202A0200
2AB00200
20300200
10A80600
0246A600
09000200
04000100
ENDCHAR
STARTCHAR uni092E094D092A094D0930
ENCODING -1
SWIDTH 765 0
DWIDTH 12 0
BBX 13 10 0 0
BITMAP
BABAAE40
20240800
20240800
20240800
2AB41800
200AA800
00008800
00020800
00090800
00040400
ENDCHAR
STARTCHAR uni092E094D092C094D092F
ENCODING -1
SWIDTH 1124 0
DWIDTH 18 0
BBX 18 10 0 0
BITMAP
BAAAAAEAE0
2000008180
200A808180
20290A4180
2AB1480180
2020580180
20142D0280
000AA6A980
0000000180
0000000040
ENDCHAR
STARTCHAR uni092E094D092C094D0930
ENCODING -1
SWIDTH 768 0
DWIDTH 12 0
BBX 13 10 0 0
BITMAP
BAAAAE40
20000800
200A8800
20190800
2AB54800
20245800
10142800
000AE800
00018800
00060400
ENDCHAR
STARTCHAR uni092E094D092D094D092F
ENCODING -1
SWIDTH 1101 0
DWIDTH 18 0
BBX 18 10 0 0
BITMAP
BAA06BEBA0
2014008200
2014008200
20141A4200
2ABEA40200
2014140200
2014080300
000006AA00
0000000200
0000000100
ENDCHAR
STARTCHAR uni092E094D092D094D0930
ENCODING -1
SWIDTH 759 0
DWIDTH 12 0
BBX 13 10 0 0
BITMAP
BAA0AE40
20240800
20140800
20140800
2ABEA800
20142800
20149800
00014800
00060800
00040400
ENDCHAR
STARTCHAR uni092E094D092D094D0935
ENCODING -1
SWIDTH 1028 0
DWIDTH 16 0
BBX 17 10 0 0
BITMAP
BAA06AAE40
2014000800
2014068800
2014080800
2ABEA80800
2014180800
1014080C00
000006A800
0000000800
0000000400
ENDCHAR
STARTCHAR uni0932094D0915094D092F
ENCODING -1
SWIDTH 1534 0
DWIDTH 25 0
BBX 25 10 0 0
BITMAP
AAAAAABAAEAE80
00000060020800
0A4A2960020800
2460D06AA90800
20208060500800
20208060500800
201090A0201C00
20002AA01AA800
1A400060000800
00000010000400
ENDCHAR
STARTCHAR uni0932094D0925094D092F
ENCODING -1
SWIDTH 1397 0
DWIDTH 22 0
BBX 23 10 0 0
BITMAP
AAA92A4AEAE4
000020805080
0A9A40805080
246081868080
2020AA090080
202090090080
2000600A01C0
20001AA5A980
1A4000000080
000000000040
ENDCHAR
STARTCHAR uni0932094D0926094D0930
ENCODING -1
SWIDTH 933 0
DWIDTH 15 0
BBX 15 10 0 0
BITMAP
AAAAAAB8
00000060
0A9A6A90
24609000
20208000
20208010
20009020
20002BA0
1A400620
00000810
ENDCHAR
STARTCHAR uni0932094D0932094D092F
ENCODING -1
SWIDTH 1476 0
DWIDTH 24 0
BBX 24 10 0 0
BITMAP
AAAAAAAABEBA
000000000820
0A9A6A6A0820
246091C2E420
202080814020
201080418020
200080008030
200090006AA0
1A4029000020
000000000010
ENDCHAR
STARTCHAR uni0932094D0935094D0921
ENCODING -1
SWIDTH 1247 0
DWIDTH 20 0
BBX 20 10 0 0
BITMAP
AAAAAAAAAE
0000000014
0A9A690AA4
2460901400
2020801400
2020800AA4
2000905008
20002AA008
1A40002558
0000000650
ENDCHAR
STARTCHAR uni0937094D0915094D0930
ENCODING -1
SWIDTH 1042 0
DWIDTH 17 0
BBX 17 10 0 0
BITMAP
BAAAAEAA80
2800090000
26029AA800
20880A0600
2068090200
2428090200
0A98090600
0006B96800
0000990000
0002440000
ENDCHAR
STARTCHAR uni0937094D091F094D092F
ENCODING -1
SWIDTH 997 0
DWIDTH 16 0
BBX 16 10 0 0
BITMAP
BAAEAAAE
29080018
214EA918
14680618
14006918
20005018
20086028
20081A98
29580018
05500004
ENDCHAR
STARTCHAR uni0937094D091F094D0930
ENCODING -1
SWIDTH 493 0
DWIDTH 8 0
BBX 8 12 0 -2
BITMAP
BAAE
2908
2148
2468
1EA4
2000
2008
2008
2958
07D0
0960
1814
ENDCHAR
STARTCHAR uni0937094D091F094D0935
ENCODING -1
SWIDTH 493 0
DWIDTH 8 0
BBX 8 12 0 -2
BITMAP
BEAE
2908
2148
2468
1EA4
2000
2008
2008
1EA8
2414
2014
1AA0
ENDCHAR
STARTCHAR uni0937094D0920094D092F
ENCODING -1
SWIDTH 1006 0
DWIDTH 16 0
BBX 17 10 0 0
BITMAP
BFFEAAAE40
2FFC000800
2FFEA90800
2FF8020800
0FF4020800
2418690800
2008602800
20081A9800
2958000800
0550000400
ENDCHAR
STARTCHAR uni0937094D0920094D0930
ENCODING -1
SWIDTH 512 0
DWIDTH 8 0
BBX 9 12 0 -2
BITMAP
BFFE40
2FFC00
2FFC00
2FF800
0FF400
240800
200800
200800
295800
07D000
096000
181400
ENDCHAR
STARTCHAR uni0937094D0923094D092F
ENCODING -1
SWIDTH 1273 0
DWIDTH 20 0
BBX 21 10 0 0
BITMAP
BAAEAEAEAE40
280818050800
260818060800
208818680800
202818900800
242C14900800
0A96A0601C00
0000001AA800
000000000800
000000000400
ENDCHAR
STARTCHAR uni0937094D092A094D0930
ENCODING -1
SWIDTH 798 0
DWIDTH 13 0
BBX 13 10 0 0
BITMAP
BAAEAF80
28080500
26080500
21880500
20680500
242C0900
0A96B900
00004500
00020500
00040400
ENDCHAR
STARTCHAR uni0937094D092E094D092F
ENCODING -1
SWIDTH 1121 0
DWIDTH 18 0
BBX 18 10 0 0
BITMAP
BAAEAAEBE0
2808008140
2608008140
20880A4140
202EA80140
2428080140
0A98090240
000002AA40
0000000140
0000000040
ENDCHAR
STARTCHAR uni0938094D0915094D0930
ENCODING -1
SWIDTH 1084 0
DWIDTH 17 0
BBX 18 10 0 0
BITMAP
ABAAABAA90
0200020000
0201A2A900
0606024240
6EA9020140
2005020140
1402030240
0801AA2900
0600620000
0101810000
ENDCHAR
STARTCHAR uni0938094D0915094D0935
ENCODING -1
SWIDTH 1369 0
DWIDTH 22 0
BBX 22 10 0 0
BITMAP
ABAAABAAABE0
020002000140
0201A2A9A540
060602424140
6EA902020140
200502020140
140203024240
0801AA00AA40
060002000140
010001000040
ENDCHAR
STARTCHAR uni0938094D0924094D092F
ENCODING -1
SWIDTH 1185 0
DWIDTH 19 0
BBX 19 10 0 0
BITMAP
ABAAAABAB8
0200002060
0200002060
0601AB9060
6EAA020060
2005020060
14050240A0
080600AA60
0602400060
0100500010
ENDCHAR
STARTCHAR uni0938094D0924094D0930
ENCODING -1
SWIDTH 818 0
DWIDTH 13 0
BBX 14 10 0 0
BITMAP
ABAAAB90
02000200
0202AA00
06090600
6EA80600
20000600
14001A00
08006600
06024200
01050100
ENDCHAR
STARTCHAR uni0938094D0924094D0935
ENCODING -1
SWIDTH 1126 0
DWIDTH 18 0
BBX 18 10 0 0
BITMAP
ABAAAAAAE0
0200000180
0201AA4180
0602020180
6EAA020180
2006020180
1406024180
080600AA80
0602400180
0100500040
ENDCHAR
STARTCHAR uni0938094D0925094D092F
ENCODING -1
SWIDTH 1303 0
DWIDTH 21 0
BBX 21 10 0 0
BITMAP
ABA1A86FAF80
020208020500
020108020500
0602A4290500
6EAA00200500
200200200500
140240700900
0800AA8AA900
060000000500
010000000500
ENDCHAR
STARTCHAR uni0938094D092A094D0930
ENCODING -1
SWIDTH 850 0
DWIDTH 14 0
BBX 14 10 0 0
BITMAP
ABABABA0
02020200
02020200
06020200
6EAA0200
2002AE00
14002600
08005200
06018200
01010100
ENDCHAR
STARTCHAR uni0938094D092E094D092F
ENCODING -1
SWIDTH 1189 0
DWIDTH 19 0
BBX 19 10 0 0
BITMAP
ABABAABAB8
0202002060
0202002460
060202A060
6EABAB0060
2002020060
14020240A0
080000AA60
0600000060
0100000010
ENDCHAR
STARTCHAR uni093F.a01
ENCODING -1
SWIDTH 231 0
DWIDTH 4 0
BBX 8 14 0 0
BITMAP
0AA9
1402
2402
2400
BA00
2400
2400
2400
2400
2400
2400
2400
2400
1000
ENDCHAR
STARTCHAR uni093F.a04
ENCODING -1
SWIDTH 231 0
DWIDTH 4 0
BBX 10 14 0 0
BITMAP
0AAA90
140020
240020
240000
BA0000
240000
240000
240000
240000
240000
240000
240000
240000
100000
ENDCHAR
STARTCHAR uni093F.a05
ENCODING -1
SWIDTH 231 0
DWIDTH 4 0
BBX 11 14 0 0
BITMAP
0AAAA4
140008
240008
240000
BA0000
240000
240000
240000
240000
240000
240000
240000
240000
100000
ENDCHAR
STARTCHAR uni093F.a06
ENCODING -1
SWIDTH 231 0
DWIDTH 4 0
BBX 12 14 0 0
BITMAP
0AAAA8
140005
240006
240000
BA0000
240000
240000
240000
240000
240000
240000
240000
240000
100000
ENDCHAR
STARTCHAR uni093F.a07
ENCODING -1
SWIDTH 231 0
DWIDTH 4 0
BBX 13 14 0 0
BITMAP
0AAAAA00
14000240
24000140
24000000
BA000000
24000000
24000000
24000000
24000000
24000000
24000000
24000000
24000000
10000000
ENDCHAR
STARTCHAR uni093F.a08
ENCODING -1
SWIDTH 231 0
DWIDTH 4 0
BBX 13 14 0 0
BITMAP
0AAAAA40
14000080
24000080
24000000
BA000000
24000000
24000000
24000000
24000000
24000000
24000000
24000000
24000000
10000000
ENDCHAR
STARTCHAR uni093F.a09
ENCODING -1
SWIDTH 231 0
DWIDTH 4 0
BBX 14 14 0 0
BITMAP
0AAAAA90
14000020
24000020
24000000
BA000000
24000000
24000000
24000000
24000000
24000000
24000000
24000000
24000000
10000000
ENDCHAR
STARTCHAR uni093F.a10
ENCODING -1
SWIDTH 231 0
DWIDTH 4 0
BBX 15 14 0 0
BITMAP
0AAAAAA0
14000014
24000008
24000000
BA000000
24000000
24000000
24000000
24000000
24000000
24000000
24000000
24000000
10000000
ENDCHAR
STARTCHAR uni093F.a11
ENCODING -1
SWIDTH 231 0
DWIDTH 4 0
BBX 16 14 0 0
BITMAP
0AAAAAA8
14000009
24000005
24000000
BA000000
24000000
24000000
24000000
24000000
24000000
24000000
24000000
24000000
10000000
ENDCHAR
STARTCHAR uni093F.a12
ENCODING -1
SWIDTH 231 0
DWIDTH 4 0
BBX 16 14 0 0
BITMAP
0AAAAAA9
14000002
24000002
24000000
BA000000
24000000
24000000
24000000
24000000
24000000
24000000
24000000
24000000
10000000
ENDCHAR
STARTCHAR uni093F.a13
ENCODING -1
SWIDTH 231 0
DWIDTH 4 0
BBX 17 14 0 0
BITMAP
0AAAAAAA40
1400000080
2400000080
2400000000
BA00000000
2400000000
2400000000
2400000000
2400000000
2400000000
2400000000
2400000000
2400000000
1000000000
ENDCHAR
STARTCHAR uni093F.a14
ENCODING -1
SWIDTH 231 0
DWIDTH 4 0
BBX 18 14 0 0
BITMAP
0AAAAAAA80
1400000050
2400000020
2400000000
BA00000000
2400000000
2400000000
2400000000
2400000000
2400000000
2400000000
2400000000
2400000000
1000000000
ENDCHAR
STARTCHAR uni093F.a15
ENCODING -1
SWIDTH 231 0
DWIDTH 4 0
BBX 19 14 0 0
BITMAP
0AAAAAAAA0
1400000024
2400000014
2400000000
BA00000000
2400000000
2400000000
2400000000
2400000000
2400000000
2400000000
2400000000
2400000000
1000000000
ENDCHAR
STARTCHAR uni093F.a16
ENCODING -1
SWIDTH 231 0
DWIDTH 4 0
BBX 19 14 0 0
BITMAP
0AAAAAAAA4
1400000008
2400000008
2400000000
BA00000000
2400000000
2400000000
2400000000
2400000000
2400000000
2400000000
2400000000
2400000000
1000000000
ENDCHAR
STARTCHAR uni093F.a17
ENCODING -1
SWIDTH 231 0
DWIDTH 4 0
BBX 20 14 0 0
BITMAP
0AAAAAAAA9
1400000002
2400000002
2400000000
BA00000000
2400000000
2400000000
2400000000
2400000000
2400000000
2400000000
2400000000
2400000000
1000000000
ENDCHAR
STARTCHAR uni093F.a18
ENCODING -1
SWIDTH 231 0
DWIDTH 4 0
BBX 21 14 0 0
BITMAP
0AAAAAAAAA00
140000000180
240000000080
240000000000
BA0000000000
240000000000
240000000000
240000000000
240000000000
240000000000
240000000000
240000000000
240000000000
100000000000
ENDCHAR
STARTCHAR uni093F.a19
ENCODING -1
SWIDTH 231 0
DWIDTH 4 0
BBX 22 14 0 0
BITMAP
0AAAAAAAAA80
140000000090
240000000050
240000000000
BA0000000000
240000000000
240000000000
240000000000
240000000000
240000000000
240000000000
240000000000
240000000000
100000000000
ENDCHAR
STARTCHAR uni093F.a20
ENCODING -1
SWIDTH 231 0
DWIDTH 4 0
BBX 22 14 0 0
BITMAP
0AAAAAAAAA90
140000000020
240000000020
240000000000
BA0000000000
240000000000
240000000000
240000000000
240000000000
240000000000
240000000000
240000000000
240000000000
100000000000
ENDCHAR
STARTCHAR uni093F.a21
ENCODING -1
SWIDTH 231 0
DWIDTH 4 0
BBX 23 14 0 0
BITMAP
0AAAAAAAAAA4
140000000008
240000000008
240000000000
BA0000000000
240000000000
240000000000
240000000000
240000000000
240000000000
240000000000
240000000000
240000000000
100000000000
ENDCHAR
STARTCHAR uni093F.a22
ENCODING -1
SWIDTH 231 0
DWIDTH 4 0
BBX 24 14 0 0
BITMAP
0AAAAAAAAAA8
140000000006
240000000002
240000000000
BA0000000000
240000000000
240000000000
240000000000
240000000000
240000000000
240000000000
240000000000
240000000000
100000000000
ENDCHAR
STARTCHAR uni093F.a23
ENCODING -1
SWIDTH 231 0
DWIDTH 4 0
BBX 25 14 0 0
BITMAP
0AAAAAAAAAAA00
14000000000240
24000000000140
24000000000000
BA000000000000
24000000000000
24000000000000
24000000000000
24000000000000
24000000000000
24000000000000
24000000000000
24000000000000
10000000000000
ENDCHAR
STARTCHAR uni093F.a24
ENCODING -1
SWIDTH 231 0
DWIDTH 4 0
BBX 25 14 0 0
BITMAP
0AAAAAAAAAAA40
14000000000080
24000000000080
24000000000000
BA000000000000
24000000000000
24000000000000
24000000000000
24000000000000
24000000000000
24000000000000
24000000000000
24000000000000
10000000000000
ENDCHAR
STARTCHAR uni093F.a25
ENCODING -1
SWIDTH 231 0
DWIDTH 4 0
BBX 26 14 0 0
BITMAP
0AAAAAAAAAAA90
14000000000020
24000000000020
24000000000000
BA000000000000
24000000000000
24000000000000
24000000000000
24000000000000
24000000000000
24000000000000
24000000000000
24000000000000
10000000000000
ENDCHAR
STARTCHAR uni093F.a26
ENCODING -1
SWIDTH 231 0
DWIDTH 4 0
BBX 27 14 0 0
BITMAP
0AAAAAAAAAAAA0
14000000000018
24000000000008
24000000000000
BA000000000000
24000000000000
24000000000000
24000000000000
24000000000000
24000000000000
24000000000000
24000000000000
24000000000000
10000000000000
ENDCHAR
STARTCHAR uni093F.a32
ENCODING -1
SWIDTH 231 0
DWIDTH 4 0
BBX 33 14 0 0
BITMAP
0AAAAAAAAAAAAAAA00
140000000000000240
240000000000000140
240000000000000000
BA0000000000000000
240000000000000000
240000000000000000
240000000000000000
240000000000000000
240000000000000000
240000000000000000
240000000000000000
240000000000000000
100000000000000000
ENDCHAR
STARTCHAR uni093E0901
ENCODING -1
SWIDTH 231 0
DWIDTH 4 0
BBX 6 14 -1 0
BITMAP
0500
9050
2A80
0000
2E80
0900
0900
0900
0900
0900
0900
0900
0900
0400
ENDCHAR
STARTCHAR dvNG_GA
ENCODING -1
SWIDTH 562 0
DWIDTH 9 0
BBX 9 14 0 -4
BITMAP
AAAE80
000800
1AA800
200140
200000
1AA800
000500
200500
1AA800
051400
051400
081400
641400
001400
ENDCHAR
STARTCHAR dvNG_MA
ENCODING -1
SWIDTH 728 0
DWIDTH 12 0
BBX 12 14 0 -4
BITMAP
AABABA
002424
1AA024
200024
200224
1AA424
001824
200824
1AA424
006024
007AB4
006024
001024
000024
ENDCHAR
STARTCHAR dvNY_CA
ENCODING -1
SWIDTH 963 0
DWIDTH 15 0
BBX 16 10 0 0
BITMAP
AAAAAAB9
00000020
2A02B920
01809020
00E88020
00808020
01409030
6A002AA0
00000020
00000010
ENDCHAR
STARTCHAR dvTT_GA
ENCODING -1
SWIDTH 510 0
DWIDTH 8 0
BBX 9 14 0 -4
BITMAP
AAAE40
001800
001800
0AA400
240000
200000
200500
240900
0AB800
051400
051400
081400
641400
001400
ENDCHAR
STARTCHAR dvTTH_TTHA
ENCODING -1
SWIDTH 511 0
DWIDTH 8 0
BBX 9 14 0 -4
BITMAP
AABA40
002400
0AB000
240800
200800
200800
240800
0AB400
016000
1AA400
200800
200800
200800
0AA400
ENDCHAR
STARTCHAR dvDD_GA
ENCODING -1
SWIDTH 541 0
DWIDTH 9 0
BBX 9 14 0 -4
BITMAP
AAAE80
000800
1AA800
200000
200000
1AA800
000500
200500
1AA800
051400
051400
081400
641400
001400
ENDCHAR
STARTCHAR dvDDH_DDHA
ENCODING -1
SWIDTH 487 0
DWIDTH 8 0
BBX 8 13 0 -3
BITMAP
AABA
0020
0AA0
2400
20A4
2088
2408
1EA4
2410
20A8
2088
2408
0AA4
ENDCHAR
STARTCHAR dvSHA_MatraVocalicR
ENCODING -1
SWIDTH 558 0
DWIDTH 9 0
BBX 10 14 0 -4
BITMAP
1A8780
209500
205500
198500
0B4500
646900
000900
000500
000500
002900
005000
005000
006090
002A40
ENDCHAR
STARTCHAR dvT_KH_NA
ENCODING -1
SWIDTH 1341 0
DWIDTH 21 0
BBX 22 10 0 0
BITMAP
AAAAEAAAAB90
000080000200
1A9086A00200
20208816AB00
202E480E0200
200808190200
200606A00200
200240000200
290080000200
050040000100
ENDCHAR
STARTCHAR dvT_S_NA
ENCODING -1
SWIDTH 1169 0
DWIDTH 19 0
BBX 19 10 0 0
BITMAP
AAAAEAAAE8
0000800090
1AA0800090
2014806AD0
201FAA8090
2008008090
2006000090
2002400090
2900800090
0500400040
ENDCHAR
ENDFONT
